JosefinSans.glyphspackage
{
glyphname = exclam;
layers = (
{
layerId = UUID1;
shapes = (
{
closed = 1;
nodes = (
(36,199,l),
(161,199,l),
(161,765,l),
(36,765,l)
);
},
{
closed = 1;
nodes = (
(150,-14,o),
(182,14,o),
(182,57,c),
(182,98,o),
(149,130,o),
(102,130,c),
(55,130,o),
(20,98,o),
(20,57,c),
(20,14,o),
(54,-14,o),
(102,-14,c)
);
}
);
width = 202;
},
{
layerId = "4C85334C-E1D4-4EB0-A0B2-9D58DDEA71D9";
shapes = (
{
closed = 1;
nodes = (
(78,175,l),
(121,175,l),
(121,754,l),
(78,754,l)
);
},
{
closed = 1;
nodes = (
(122,22,o),
(138,37,o),
(138,58,cs),
(138,77,o),
(122,93,o),
(101,93,cs),
(80,93,o),
(63,77,o),
(63,58,cs),
(63,37,o),
(80,22,o),
(101,22,cs)
);
}
);
width = 201;
},
{
layerId = "93649EC8-ADF5-4C20-AD08-3ED15854CD33";
shapes = (
{
closed = 1;
nodes = (
(90.5,167.5,l),
(109.333,167.5,l),
(109.333,750.667,l),
(90.5,750.667,l)
);
},
{
closed = 1;
nodes = (
(113.667,32.833,o),
(124.667,43.667,o),
(124.667,58,cs),
(124.667,71.167,o),
(113.667,82.167,o),
(101,82.167,cs),
(87.5,82.167,o),
(76.333,71.167,o),
(76.333,58,cs),
(76.333,43.667,o),
(87.5,32.833,o),
(101,32.833,cs)
);
}
);
width = 201;
},
{
layerId = "3DCE0E54-12D6-4F05-956C-7616B59038AD";
shapes = (
{
closed = 1;
nodes = (
(54,189,l),
(144,189,l),
(144,760,l),
(54,760,l)
);
},
{
closed = 1;
nodes = (
(138,1,o),
(164,24,o),
(164,57,c),
(164,89,o),
(138,114,o),
(102,114,c),
(66,114,o),
(38,89,o),
(38,57,c),
(38,24,o),
(65,1,o),
(102,1,c)
);
}
);
width = 202;
}
);
unicode = 33;
}
{
glyphname = quotedbl;
layers = (
{
layerId = UUID1;
shapes = (
{
closed = 1;
nodes = (
(64,734,l),
(64,481,l),
(182,481,l),
(183,566,o),
(185,650,o),
(186,734,c)
);
},
{
closed = 1;
nodes = (
(200,734,l),
(200,481,l),
(318,481,l),
(319,566,o),
(321,650,o),
(322,734,c)
);
}
);
width = 366;
},
{
layerId = "4C85334C-E1D4-4EB0-A0B2-9D58DDEA71D9";
shapes = (
{
closed = 1;
nodes = (
(63,724,l),
(63,474,l),
(105,474,l),
(106,558,o),
(108,640,o),
(109,724,c)
);
},
{
closed = 1;
nodes = (
(197,724,l),
(197,474,l),
(239,474,l),
(240,558,o),
(242,640,o),
(243,724,c)
);
}
);
width = 312;
},
{
layerId = "93649EC8-ADF5-4C20-AD08-3ED15854CD33";
shapes = (
{
closed = 1;
nodes = (
(63,720.667,l),
(63,472.333,l),
(81.667,472.333,l),
(82.667,555.5,o),
(84.667,637.5,o),
(85.667,720.667,c)
);
},
{
closed = 1;
nodes = (
(196.167,720.667,l),
(196.167,472.333,l),
(214.833,472.333,l),
(215.833,555.5,o),
(217.833,637.5,o),
(218.833,720.667,c)
);
}
);
width = 296;
},
{
layerId = "3DCE0E54-12D6-4F05-956C-7616B59038AD";
shapes = (
{
closed = 1;
nodes = (
(64,730,l),
(64,478,l),
(150,478,l),
(151,563,o),
(153,646,o),
(154,730,c)
);
},
{
closed = 1;
nodes = (
(199,730,l),
(199,478,l),
(285,478,l),
(286,563,o),
(288,646,o),
(289,730,c)
);
}
);
width = 343;
}
);
unicode = 34;
}
{
glyphname = numbersign;
layers = (
{
layerId = UUID1;
shapes = (
{
closed = 1;
nodes = (
(161,656,l),
(153,596,o),
(146,539,o),
(138,479,c),
(59,479,l),
(54,439,o),
(51,398,o),
(46,358,c),
(125,358,l),
(122,336,o),
(120,314,o),
(117,292,c),
(38,292,l),
(34,251,o),
(28,211,o),
(23,170,c),
(102,170,l),
(96,113,o),
(88,57,o),
(82,0,c),
(209,0,l),
(214,57,o),
(223,113,o),
(229,170,c),
(290,170,l),
(284,113,o),
(276,57,o),
(270,0,c),
(396,0,l),
(402,57,o),
(410,113,o),
(416,170,c),
(501,170,l),
(505,211,o),
(511,251,o),
(516,292,c),
(431,292,l),
(433,314,o),
(436,336,o),
(439,358,c),
(524,358,l),
(529,398,o),
(532,439,o),
(536,479,c),
(452,479,l),
(460,539,o),
(467,596,o),
(475,656,c),
(348,656,l),
(341,596,o),
(333,539,o),
(326,479,c),
(264,479,l),
(272,539,o),
(279,596,o),
(287,656,c)
);
},
{
closed = 1;
nodes = (
(312,358,l),
(310,336,o),
(307,314,o),
(305,292,c),
(243,292,l),
(246,314,o),
(249,336,o),
(251,358,c)
);
}
);
width = 582;
},
{
layerId = "4C85334C-E1D4-4EB0-A0B2-9D58DDEA71D9";
shapes = (
{
closed = 1;
nodes = (
(187,646,l),
(179,576,o),
(170,507,o),
(162,436,c),
(55,436,l),
(53,422,o),
(52,408,o),
(50,394,c),
(157,394,l),
(151,347,o),
(146,300,o),
(140,253,c),
(32,253,l),
(31,239,o),
(29,225,o),
(27,210,c),
(134,210,l),
(126,140,o),
(118,70,o),
(110,0,c),
(154,0,l),
(162,70,o),
(170,140,o),
(178,210,c),
(319,210,l),
(311,140,o),
(303,70,o),
(295,0,c),
(339,0,l),
(347,70,o),
(355,140,o),
(363,210,c),
(486,210,l),
(487,225,o),
(489,239,o),
(490,253,c),
(369,253,l),
(374,300,o),
(379,347,o),
(385,394,c),
(509,394,l),
(510,408,o),
(511,422,o),
(512,436,c),
(390,436,l),
(399,507,o),
(407,576,o),
(416,646,c),
(372,646,l),
(364,576,o),
(355,507,o),
(347,436,c),
(205,436,l),
(214,507,o),
(222,576,o),
(231,646,c)
);
},
{
closed = 1;
nodes = (
(341,394,l),
(336,347,o),
(331,300,o),
(325,253,c),
(183,253,l),
(189,300,o),
(195,347,o),
(200,394,c)
);
}
);
width = 574;
},
{
layerId = "93649EC8-ADF5-4C20-AD08-3ED15854CD33";
shapes = (
{
closed = 1;
nodes = (
(195.333,643.5,l),
(186.5,570.167,o),
(177.5,497,o),
(168.667,423.5,c),
(53.333,423.5,l),
(53,417,o),
(52,411.333,o),
(51.667,404.833,c),
(166.167,404.833,l),
(159.333,350.333,o),
(153.5,295.833,o),
(146.667,241.333,c),
(30.333,241.333,l),
(30.167,234.833,o),
(29,229.167,o),
(28.667,222.5,c),
(144,222.5,l),
(135.167,148.333,o),
(127.167,74.167,o),
(118.333,0,c),
(137.333,0,l),
(146.167,74.167,o),
(154.167,148.333,o),
(163,222.5,c),
(328.167,222.5,l),
(319.333,148.333,o),
(311.333,74.167,o),
(302.5,0,c),
(321.5,0,l),
(330.333,74.167,o),
(338.333,148.333,o),
(347.167,222.5,c),
(481,222.5,l),
(481.167,229.167,o),
(482.333,234.833,o),
(482.5,241.333,c),
(349.833,241.333,l),
(356.5,295.833,o),
(362.333,350.333,o),
(369.167,404.833,c),
(504,404.833,l),
(504.167,411.333,o),
(505.167,417,o),
(505.333,423.5,c),
(371.667,423.5,l),
(380.667,497,o),
(389.5,570.167,o),
(398.5,643.5,c),
(379.5,643.5,l),
(370.667,570.167,o),
(361.667,497,o),
(352.833,423.5,c),
(187.5,423.5,l),
(196.5,497,o),
(205.333,570.167,o),
(214.333,643.5,c)
);
},
{
closed = 1;
nodes = (
(350.167,404.833,l),
(343.5,350.333,o),
(337.667,295.833,o),
(330.833,241.333,c),
(165.5,241.333,l),
(172.333,295.833,o),
(178.333,350.333,o),
(185,404.833,c)
);
}
);
width = 572;
},
{
layerId = "3DCE0E54-12D6-4F05-956C-7616B59038AD";
shapes = (
{
closed = 1;
nodes = (
(172,652,l),
(164,588,o),
(156,526,o),
(148,461,c),
(57,461,l),
(54,432,o),
(51,402,o),
(48,373,c),
(138,373,l),
(134,341,o),
(131,308,o),
(127,276,c),
(35,276,l),
(33,246,o),
(28,217,o),
(25,187,c),
(115,187,l),
(109,124,o),
(101,62,o),
(94,0,c),
(186,0,l),
(192,62,o),
(201,124,o),
(208,187,c),
(302,187,l),
(295,124,o),
(287,62,o),
(281,0,c),
(372,0,l),
(379,62,o),
(387,124,o),
(394,187,c),
(495,187,l),
(497,217,o),
(502,246,o),
(505,276,c),
(405,276,l),
(408,308,o),
(412,341,o),
(416,373,c),
(518,373,l),
(521,402,o),
(523,432,o),
(526,461,c),
(426,461,l),
(434,526,o),
(442,588,o),
(450,652,c),
(358,652,l),
(351,588,o),
(342,526,o),
(335,461,c),
(239,461,l),
(248,526,o),
(255,588,o),
(263,652,c)
);
},
{
closed = 1;
nodes = (
(324,373,l),
(321,341,o),
(317,308,o),
(313,276,c),
(218,276,l),
(222,308,o),
(226,341,o),
(230,373,c)
);
}
);
width = 579;
}
);
unicode = 35;
}
{
glyphname = dollar;
layers = (
{
layerId = UUID1;
shapes = (
{
closed = 1;
nodes = (
(316,-68,l),
(316,324,l),
(356,385,l),
(356,804,l),
(272,804,l),
(272,413,l),
(232,366,l),
(232,-68,l)
);
},
{
ref = S;
}
);
width = 567;
},
{
layerId = "4C85334C-E1D4-4EB0-A0B2-9D58DDEA71D9";
shapes = (
{
closed = 1;
nodes = (
(321,-68,l),
(321,369,l),
(321,392,l),
(321,775,l),
(288,775,l),
(288,391,l),
(288,373,l),
(288,-68,l)
);
},
{
ref = S;
}
);
width = 567;
},
{
layerId = "93649EC8-ADF5-4C20-AD08-3ED15854CD33";
shapes = (
{
closed = 1;
nodes = (
(293.5,-68,l),
(293.5,374.833,l),
(293.5,382.833,l),
(293.5,765.833,l),
(276.333,765.833,l),
(276.333,387.667,l),
(276.333,379.667,l),
(276.333,-68,l)
);
},
{
alignment = -1;
ref = S;
}
);
width = 567;
},
{
layerId = "3DCE0E54-12D6-4F05-956C-7616B59038AD";
shapes = (
{
closed = 1;
nodes = (
(318,-68,l),
(318,343,l),
(341,388,l),
(341,792,l),
(279,792,l),
(279,404,l),
(256,369,l),
(256,-68,l)
);
},
{
alignment = -1;
ref = S;
}
);
width = 567;
}
);
unicode = 36;
}
{
glyphname = percent;
layers = (
{
layerId = UUID1;
shapes = (
{
closed = 1;
nodes = (
(306,294,o),
(357,376,o),
(357,484,c),
(357,591,o),
(306,673,o),
(196,673,c),
(85,673,o),
(35,591,o),
(35,484,c),
(35,376,o),
(85,294,o),
(196,294,c)
);
},
{
closed = 1;
nodes = (
(157,547,o),
(165,574,o),
(196,574,c),
(227,574,o),
(234,547,o),
(234,484,c),
(234,429,o),
(227,392,o),
(196,392,c),
(165,392,o),
(157,429,o),
(157,484,c)
);
},
{
closed = 1;
nodes = (
(724,-28,o),
(775,54,o),
(775,162,c),
(775,269,o),
(724,351,o),
(614,351,c),
(503,351,o),
(453,269,o),
(453,162,c),
(453,54,o),
(503,-28,o),
(614,-28,c)
);
},
{
closed = 1;
nodes = (
(575,225,o),
(583,252,o),
(614,252,c),
(645,252,o),
(652,225,o),
(652,162,c),
(652,107,o),
(645,70,o),
(614,70,c),
(583,70,o),
(575,107,o),
(575,162,c)
);
},
{
closed = 1;
nodes = (
(589,673,l),
(105,0,l),
(242,-2,l),
(728,673,l)
);
}
);
width = 810;
},
{
layerId = "4C85334C-E1D4-4EB0-A0B2-9D58DDEA71D9";
shapes = (
{
closed = 1;
nodes = (
(285,240,o),
(337,297,o),
(337,392,c),
(337,485,o),
(286,544,o),
(214,544,c),
(140,544,o),
(90,485,o),
(90,392,c),
(90,298,o),
(140,240,o),
(214,240,c)
);
},
{
closed = 1;
nodes = (
(133,470,o),
(166,508,o),
(214,508,c),
(261,508,o),
(294,465,o),
(294,391,c),
(294,318,o),
(261,275,o),
(214,275,c),
(166,275,o),
(133,318,o),
(133,391,c)
);
},
{
closed = 1;
nodes = (
(618,-4,o),
(671,53,o),
(671,148,c),
(671,241,o),
(620,300,o),
(547,300,c),
(474,300,o),
(424,241,o),
(424,148,c),
(424,54,o),
(474,-4,o),
(547,-4,c)
);
},
{
closed = 1;
nodes = (
(466,226,o),
(500,264,o),
(547,264,c),
(594,264,o),
(628,221,o),
(628,147,c),
(628,74,o),
(594,31,o),
(547,31,c),
(500,31,o),
(466,74,o),
(466,147,c)
);
},
{
closed = 1;
nodes = (
(529,546,l),
(182,0,l),
(230,-1,l),
(578,546,l)
);
}
);
width = 750;
},
{
layerId = "93649EC8-ADF5-4C20-AD08-3ED15854CD33";
shapes = (
{
closed = 1;
nodes = (
(278.333,223.333,o),
(331.167,273.667,o),
(331.167,364.5,c),
(331.167,453.333,o),
(280.167,504.833,o),
(219,504.833,c),
(156.667,504.833,o),
(106.667,453.333,o),
(106.667,364.5,c),
(106.667,274.667,o),
(156.667,223.333,o),
(219,223.333,c)
);
},
{
closed = 1;
nodes = (
(125.5,446.667,o),
(166.833,488,o),
(219,488,c),
(271,488,o),
(312.333,440,o),
(312.333,363.5,c),
(312.333,284.667,o),
(271,240,o),
(219,240,c),
(166.833,240,o),
(125.5,284.667,o),
(125.5,363.5,c)
);
},
{
closed = 1;
nodes = (
(586.333,2.667,o),
(639.333,53,o),
(639.333,143.833,c),
(639.333,232.667,o),
(588.333,284.167,o),
(527,284.167,c),
(464.833,284.167,o),
(414.833,232.667,o),
(414.833,143.833,c),
(414.833,54,o),
(464.833,2.667,o),
(527,2.667,c)
);
},
{
closed = 1;
nodes = (
(433.5,226,o),
(475,267.333,o),
(527,267.333,c),
(579,267.333,o),
(620.5,219.333,o),
(620.5,142.833,c),
(620.5,64,o),
(579,19.333,o),
(527,19.333,c),
(475,19.333,o),
(433.5,64,o),
(433.5,142.833,c)
);
},
{
closed = 1;
nodes = (
(511.5,507.667,l),
(205.333,0,l),
(226.667,-0.167,l),
(533,507.667,l)
);
}
);
width = 732;
},
{
layerId = "3DCE0E54-12D6-4F05-956C-7616B59038AD";
shapes = (
{
closed = 1;
nodes = (
(297,271,o),
(349,343,o),
(349,445,c),
(349,546,o),
(298,619,o),
(204,619,c),
(108,619,o),
(58,546,o),
(58,445,c),
(58,343,o),
(108,271,o),
(204,271,c)
);
},
{
closed = 1;
nodes = (
(147,515,o),
(165,546,o),
(204,546,c),
(241,546,o),
(259,513,o),
(259,445,c),
(259,382,o),
(241,343,o),
(204,343,c),
(165,343,o),
(147,382,o),
(147,445,c)
);
},
{
closed = 1;
nodes = (
(679,-18,o),
(731,54,o),
(731,156,c),
(731,257,o),
(680,330,o),
(586,330,c),
(491,330,o),
(441,257,o),
(441,156,c),
(441,54,o),
(491,-18,o),
(586,-18,c)
);
},
{
closed = 1;
nodes = (
(529,225,o),
(548,257,o),
(586,257,c),
(624,257,o),
(642,223,o),
(642,156,c),
(642,93,o),
(624,54,o),
(586,54,c),
(548,54,o),
(529,93,o),
(529,156,c)
);
},
{
closed = 1;
nodes = (
(564,620,l),
(137,0,l),
(237,-2,l),
(665,620,l)
);
}
);
width = 785;
}
);
unicode = 37;
}
{
glyphname = ampersand;
layers = (
{
layerId = UUID1;
shapes = (
{
closed = 1;
nodes = (
(345,498,ls),
(339,507,o),
(311,549,o),
(311,577,cs),
(311,609,o),
(330,641,o),
(375,641,cs),
(411,641,o),
(448,612,o),
(490,567,c),
(563,664,l),
(520,718,o),
(446,763,o),
(352,763,cs),
(222,763,o),
(161,670,o),
(161,591,cs),
(161,529,o),
(202,464,o),
(223,436,c),
(547,0,l),
(547,0,o),
(678,0,o),
(715,0,c)
);
},
{
closed = 1;
nodes = (
(309,448,l),
(179,444,o),
(45,346,o),
(45,214,cs),
(45,81,o),
(153,-12,o),
(292,-12,cs),
(410,-12,o),
(483,43,o),
(519,111,c),
(426,188,l),
(407,149,o),
(377,118,o),
(312,118,cs),
(247,118,o),
(195,160,o),
(195,222,cs),
(195,280,o),
(245,335,o),
(310,335,c)
);
},
{
closed = 1;
nodes = (
(431,198,l),
(536,136,l),
(660,448,l),
(528,448,l)
);
}
);
width = 740;
},
{
layerId = "4C85334C-E1D4-4EB0-A0B2-9D58DDEA71D9";
shapes = (
{
closed = 1;
nodes = (
(246,502,ls),
(244,505,o),
(215,548,o),
(215,595,cs),
(215,661,o),
(266,710,o),
(337,710,cs),
(378,710,o),
(419,691,o),
(459,662,c),
(483,695,l),
(447,724,o),
(393,752,o),
(330,752,cs),
(233,752,o),
(165,684,o),
(165,595,cs),
(165,547,o),
(187,509,o),
(204,481,c),
(573,0,l),
(573,0,o),
(621,0,o),
(630,0,c)
);
},
{
closed = 1;
nodes = (
(299,401,l),
(182,397,o),
(68,311,o),
(68,193,cs),
(68,81,o),
(165,-8,o),
(299,-8,cs),
(400,-8,o),
(482,41,o),
(517,105,c),
(486,137,l),
(461,83,o),
(390,36,o),
(304,36,cs),
(204,36,o),
(120,100,o),
(120,194,cs),
(120,293,o),
(216,360,o),
(302,361,c)
);
},
{
closed = 1;
nodes = (
(487,139,l),
(522,112,l),
(633,401,l),
(585,401,l)
);
}
);
width = 711;
},
{
layerId = "93649EC8-ADF5-4C20-AD08-3ED15854CD33";
shapes = (
{
closed = 1;
nodes = (
(216,503.667,ls),
(215.667,504.167,o),
(186.667,547.167,o),
(186.667,600,cs),
(186.667,676.833,o),
(246.833,730.833,o),
(325.333,730.833,cs),
(368,730.833,o),
(409.833,714.333,o),
(449.833,690.333,c),
(458.833,704.167,l),
(425.333,725.667,o),
(377.167,748.667,o),
(323.333,748.667,cs),
(236.333,748.667,o),
(165.833,688.167,o),
(165.833,596.667,cs),
(165.833,552.833,o),
(182,522.333,o),
(198.167,494.333,c),
(580.5,0,l),
(580.5,0,o),
(603.5,0,o),
(605,0,c)
);
},
{
closed = 1;
nodes = (
(295.667,386.833,l),
(182.833,382.833,o),
(74.667,300.167,o),
(74.667,187.167,cs),
(74.667,81,o),
(168.333,-6.333,o),
(300.667,-6.333,cs),
(396.667,-6.333,o),
(482,40.167,o),
(516.167,103.333,c),
(503.5,121.167,l),
(476.833,63,o),
(394.167,11.833,o),
(301.5,11.833,cs),
(191.5,11.833,o),
(97.5,82.5,o),
(97.5,185.667,cs),
(97.5,296.333,o),
(207.667,367.5,o),
(299.5,368.5,c)
);
},
{
closed = 1;
nodes = (
(503.667,121.5,l),
(517.833,105.333,l),
(624.667,386.833,l),
(602.5,386.833,l)
);
}
);
width = 702;
},
{
layerId = "3DCE0E54-12D6-4F05-956C-7616B59038AD";
shapes = (
{
closed = 1;
nodes = (
(303,500,ls),
(299,506,o),
(271,549,o),
(271,585,cs),
(271,631,o),
(303,670,o),
(359,670,cs),
(397,670,o),
(436,645,o),
(477,607,c),
(529,677,l),
(489,721,o),
(424,758,o),
(343,758,cs),
(227,758,o),
(163,676,o),
(163,593,cs),
(163,537,o),
(196,483,o),
(215,455,c),
(558,0,l),
(558,0,o),
(654,0,o),
(679,0,c)
);
},
{
closed = 1;
nodes = (
(305,428,l),
(180,424,o),
(55,331,o),
(55,205,cs),
(55,81,o),
(158,-10,o),
(295,-10,cs),
(406,-10,o),
(483,42,o),
(518,108,c),
(451,167,l),
(430,121,o),
(382,84,o),
(309,84,cs),
(229,84,o),
(164,135,o),
(164,210,cs),
(164,285,o),
(233,346,o),
(307,346,c)
);
},
{
closed = 1;
nodes = (
(455,173,l),
(530,126,l),
(649,428,l),
(552,428,l)
);
}
);
width = 728;
}
);
unicode = 38;
}
{
glyphname = quotesingle;
layers = (
{
layerId = UUID1;
shapes = (
{
closed = 1;
nodes = (
(28,734,l),
(28,481,l),
(148,481,l),
(149,566,o),
(151,650,o),
(152,734,c)
);
}
);
width = 175;
},
{
layerId = "4C85334C-E1D4-4EB0-A0B2-9D58DDEA71D9";
shapes = (
{
closed = 1;
nodes = (
(57,724,l),
(57,474,l),
(99,474,l),
(100,558,o),
(102,640,o),
(103,724,c)
);
}
);
width = 154;
},
{
layerId = "93649EC8-ADF5-4C20-AD08-3ED15854CD33";
shapes = (
{
closed = 1;
nodes = (
(65.333,720.667,l),
(65.333,472.333,l),
(84,472.333,l),
(85,555.5,o),
(87,637.5,o),
(88,720.667,c)
);
}
);
width = 148;
},
{
layerId = "3DCE0E54-12D6-4F05-956C-7616B59038AD";
shapes = (
{
closed = 1;
nodes = (
(40,730,l),
(40,478,l),
(127,478,l),
(128,563,o),
(130,646,o),
(131,730,c)
);
}
);
width = 166;
}
);
unicode = 39;
}
{
glyphname = parenleft;
layers = (
{
layerId = UUID1;
shapes = (
{
closed = 1;
nodes = (
(358,-114,l),
(280,-25,o),
(221,112,o),
(221,296,cs),
(221,480,o),
(280,617,o),
(358,707,c),
(243,760,l),
(158,670,o),
(75,500,o),
(75,296,cs),
(75,92,o),
(158,-77,o),
(243,-168,c)
);
}
);
width = 408;
},
{
layerId = "4C85334C-E1D4-4EB0-A0B2-9D58DDEA71D9";
shapes = (
{
closed = 1;
nodes = (
(326,-133,l),
(249,-45,o),
(177,105,o),
(177,293,cs),
(177,481,o),
(249,631,o),
(326,720,c),
(294,750,l),
(209,661,o),
(128,494,o),
(128,293,cs),
(128,92,o),
(209,-75,o),
(294,-164,c)
);
}
);
width = 398;
},
{
layerId = "93649EC8-ADF5-4C20-AD08-3ED15854CD33";
shapes = (
{
closed = 1;
nodes = (
(316.833,-138.833,l),
(239.833,-50.833,o),
(163.667,102.5,o),
(163.667,292.167,cs),
(163.667,481.833,o),
(239.833,635.167,o),
(316.833,723.333,c),
(309,747.5,l),
(224.833,658.5,o),
(143.833,492.333,o),
(143.833,292.167,cs),
(143.833,92,o),
(224.833,-74.167,o),
(309,-163.167,c)
);
}
);
width = 395;
},
{
layerId = "3DCE0E54-12D6-4F05-956C-7616B59038AD";
shapes = (
{
closed = 1;
nodes = (
(345,-122,l),
(267,-33,o),
(203,109,o),
(203,295,cs),
(203,480,o),
(267,623,o),
(345,712,c),
(264,756,l),
(179,666,o),
(97,497,o),
(97,295,cs),
(97,92,o),
(179,-76,o),
(264,-166,c)
);
}
);
width = 404;
}
);
unicode = 40;
}
{
glyphname = parenright;
layers = (
{
layerId = UUID1;
shapes = (
{
closed = 1;
nodes = (
(250,-78,o),
(333,92,o),
(333,296,cs),
(333,500,o),
(250,669,o),
(165,760,c),
(50,706,l),
(128,617,o),
(187,480,o),
(187,296,cs),
(187,112,o),
(128,-25,o),
(50,-115,c),
(165,-168,l)
);
}
);
width = 408;
},
{
layerId = "4C85334C-E1D4-4EB0-A0B2-9D58DDEA71D9";
shapes = (
{
closed = 1;
nodes = (
(212,-75,o),
(293,92,o),
(293,293,cs),
(293,494,o),
(212,661,o),
(128,750,c),
(95,719,l),
(172,631,o),
(244,481,o),
(244,293,cs),
(244,105,o),
(172,-45,o),
(95,-133,c),
(128,-164,l)
);
}
);
width = 402;
},
{
layerId = "93649EC8-ADF5-4C20-AD08-3ED15854CD33";
shapes = (
{
closed = 1;
nodes = (
(200,-74,o),
(281,92,o),
(281,292,cs),
(281,492,o),
(200,659,o),
(116,748,c),
(108,723,l),
(185,635,o),
(262,482,o),
(262,292,cs),
(262,103,o),
(185,-51,o),
(108,-139,c),
(116,-163,l)
);
}
);
width = 400;
},
{
layerId = "3DCE0E54-12D6-4F05-956C-7616B59038AD";
shapes = (
{
closed = 1;
nodes = (
(234,-77,o),
(316,92,o),
(316,295,cs),
(316,497,o),
(234,666,o),
(149,756,c),
(69,711,l),
(146,623,o),
(211,480,o),
(211,295,cs),
(211,109,o),
(146,-33,o),
(69,-123,c),
(149,-166,l)
);
}
);
width = 405;
}
);
unicode = 41;
}
{
glyphname = asterisk;
layers = (
{
layerId = UUID1;
shapes = (
{
closed = 1;
nodes = (
(128,434,l),
(208,434,l),
(208,457,o),
(209,480,o),
(209,503,c),
(230,491,o),
(250,478,o),
(271,466,c),
(285,490,o),
(299,515,o),
(313,539,c),
(292,551,o),
(271,563,o),
(250,575,c),
(250,575,l),
(272,587,o),
(293,600,o),
(315,612,c),
(302,635,o),
(288,658,o),
(275,681,c),
(254,669,o),
(232,657,o),
(211,645,c),
(211,670,o),
(212,695,o),
(212,720,c),
(128,720,l),
(128,645,l),
(107,657,o),
(86,670,o),
(65,682,c),
(52,659,o),
(39,636,o),
(26,613,c),
(46,601,o),
(67,588,o),
(87,576,c),
(66,565,o),
(46,553,o),
(25,542,c),
(39,518,o),
(53,493,o),
(67,469,c),
(87,481,o),
(108,492,o),
(128,504,c)
);
}
);
width = 335;
},
{
layerId = "4C85334C-E1D4-4EB0-A0B2-9D58DDEA71D9";
shapes = (
{
closed = 1;
nodes = (
(150,434,l),
(182,434,l),
(182,472,o),
(183,509,o),
(183,546,c),
(216,527,o),
(249,507,o),
(281,488,c),
(287,498,o),
(293,508,o),
(299,518,c),
(266,537,o),
(233,556,o),
(200,575,c),
(200,575,l),
(234,594,o),
(267,614,o),
(300,633,c),
(295,642,o),
(289,651,o),
(285,660,c),
(251,642,o),
(217,622,o),
(184,604,c),
(185,643,o),
(185,681,o),
(186,720,c),
(150,720,l),
(150,604,l),
(117,623,o),
(84,642,o),
(51,661,c),
(46,652,o),
(40,643,o),
(36,634,c),
(68,615,o),
(101,595,o),
(133,576,c),
(101,558,o),
(68,539,o),
(35,521,c),
(41,511,o),
(47,500,o),
(53,490,c),
(86,509,o),
(118,527,o),
(150,546,c)
);
}
);
width = 335;
},
{
layerId = "93649EC8-ADF5-4C20-AD08-3ED15854CD33";
shapes = (
{
closed = 1;
nodes = (
(156.667,434,l),
(173.667,434,l),
(174.5,476.167,o),
(174.667,517.333,o),
(175.5,559.333,c),
(211.833,537.833,o),
(248.167,516.167,o),
(284.333,494.667,c),
(287.833,500.5,o),
(291.333,506.333,o),
(294.833,512.167,c),
(258.5,532.833,o),
(221.333,554.333,o),
(185,575,c),
(185,575,l),
(222.333,596.5,o),
(258.667,618.167,o),
(295.833,639.667,c),
(293.333,644.5,o),
(289.833,649.333,o),
(287.5,654.167,c),
(250.167,633.667,o),
(212.833,612,o),
(175.667,591.5,c),
(176.667,634.667,o),
(176.667,676.833,o),
(177.667,720,c),
(156.667,720,l),
(156.667,591.5,l),
(120.333,613,o),
(83.167,633.667,o),
(46.833,655.167,c),
(44.333,650.333,o),
(40.833,645.5,o),
(38.5,640.667,c),
(74.667,619.167,o),
(111,597.5,o),
(147.167,576,c),
(111,555.5,o),
(74.667,534.833,o),
(38.333,514.333,c),
(41.833,508.5,o),
(45.333,502.5,o),
(48.833,496.667,c),
(85.167,517.333,o),
(120.5,537.833,o),
(156.667,558.5,c)
);
}
);
width = 335;
},
{
layerId = "3DCE0E54-12D6-4F05-956C-7616B59038AD";
shapes = (
{
closed = 1;
nodes = (
(137,434,l),
(197,434,l),
(197,463,o),
(198,492,o),
(198,521,c),
(224,506,o),
(250,490,o),
(275,475,c),
(286,493,o),
(296,512,o),
(307,530,c),
(281,545,o),
(255,560,o),
(229,575,c),
(229,575,l),
(256,590,o),
(282,606,o),
(309,621,c),
(299,638,o),
(288,655,o),
(279,672,c),
(253,658,o),
(226,642,o),
(200,628,c),
(200,659,o),
(201,689,o),
(201,720,c),
(137,720,l),
(137,628,l),
(111,643,o),
(85,658,o),
(59,673,c),
(49,656,o),
(39,639,o),
(30,622,c),
(55,607,o),
(81,591,o),
(106,576,c),
(81,562,o),
(55,547,o),
(29,533,c),
(40,515,o),
(50,496,o),
(61,478,c),
(87,493,o),
(112,507,o),
(137,522,c)
);
}
);
width = 335;
}
);
unicode = 42;
}
{
glyphname = plus;
layers = (
{
layerId = UUID1;
shapes = (
{
closed = 1;
nodes = (
(208,295,l),
(88,295,l),
(88,174,l),
(208,174,l),
(208,52,l),
(335,52,l),
(335,174,l),
(455,174,l),
(455,295,l),
(335,295,l),
(335,419,l),
(208,419,l)
);
}
);
width = 554;
},
{
layerId = "4C85334C-E1D4-4EB0-A0B2-9D58DDEA71D9";
shapes = (
{
closed = 1;
nodes = (
(246,254,l),
(87,254,l),
(87,212,l),
(246,212,l),
(246,51,l),
(289,51,l),
(289,212,l),
(448,212,l),
(448,254,l),
(289,254,l),
(289,413,l),
(246,413,l)
);
}
);
width = 546;
},
{
layerId = "93649EC8-ADF5-4C20-AD08-3ED15854CD33";
shapes = (
{
closed = 1;
nodes = (
(256.833,241.5,l),
(86.167,241.5,l),
(86.167,222.833,l),
(256.833,222.833,l),
(256.833,51,l),
(275.667,51,l),
(275.667,222.833,l),
(446.333,222.833,l),
(446.333,241.5,l),
(275.667,241.5,l),
(275.667,411.333,l),
(256.833,411.333,l)
);
}
);
width = 544;
},
{
layerId = "3DCE0E54-12D6-4F05-956C-7616B59038AD";
shapes = (
{
closed = 1;
nodes = (
(224,278,l),
(88,278,l),
(88,190,l),
(224,190,l),
(224,52,l),
(316,52,l),
(316,190,l),
(452,190,l),
(452,278,l),
(316,278,l),
(316,416,l),
(224,416,l)
);
}
);
width = 551;
}
);
unicode = 43;
}
{
glyphname = comma;
kernLeft = period;
layers = (
{
layerId = UUID1;
shapes = (
{
closed = 1;
nodes = (
(67,88,l),
(40,17,o),
(15,-52,o),
(-12,-122,c),
(100,-122,l),
(129,-52,o),
(158,17,o),
(188,88,c)
);
}
);
width = 205;
},
{
layerId = "4C85334C-E1D4-4EB0-A0B2-9D58DDEA71D9";
shapes = (
{
closed = 1;
nodes = (
(94,87,l),
(68,17,o),
(43,-51,o),
(17,-121,c),
(57,-121,l),
(86,-51,o),
(114,17,o),
(143,87,c)
);
}
);
width = 201;
},
{
layerId = "93649EC8-ADF5-4C20-AD08-3ED15854CD33";
shapes = (
{
closed = 1;
nodes = (
(104.833,86.167,l),
(78.833,17,o),
(53.833,-51,o),
(27.833,-120.167,c),
(46.167,-120.167,l),
(75.167,-51,o),
(103.167,17,o),
(132.167,86.167,c)
);
}
);
width = 184;
},
{
layerId = "3DCE0E54-12D6-4F05-956C-7616B59038AD";
shapes = (
{
closed = 1;
nodes = (
(78,88,l),
(52,17,o),
(27,-52,o),
(0,-122,c),
(82,-122,l),
(111,-52,o),
(140,17,o),
(169,88,c)
);
}
);
width = 203;
}
);
unicode = 44;
}
{
glyphname = hyphen;
layers = (
{
layerId = UUID1;
shapes = (
{
closed = 1;
nodes = (
(54,168,l),
(242,168,l),
(242,290,l),
(54,290,l)
);
}
);
width = 306;
},
{
layerId = "4C85334C-E1D4-4EB0-A0B2-9D58DDEA71D9";
shapes = (
{
closed = 1;
nodes = (
(53,180,l),
(238,180,l),
(238,222,l),
(53,222,l)
);
}
);
width = 302;
},
{
layerId = "93649EC8-ADF5-4C20-AD08-3ED15854CD33";
shapes = (
{
closed = 1;
nodes = (
(53,183.333,l),
(237.167,183.333,l),
(237.167,202,l),
(53,202,l)
);
}
);
width = 300;
},
{
layerId = "3DCE0E54-12D6-4F05-956C-7616B59038AD";
shapes = (
{
closed = 1;
nodes = (
(54,173,l),
(240,173,l),
(240,261,l),
(54,261,l)
);
}
);
width = 304;
}
);
unicode = 45;
}
{
glyphname = period;
kernLeft = period;
layers = (
{
layerId = UUID1;
shapes = (
{
closed = 1;
nodes = (
(15,72,ls),
(15,28,o),
(51,0,o),
(87,0,cs),
(120,0,o),
(157,28,o),
(157,72,cs),
(157,113,o),
(120,145,o),
(87,145,cs),
(51,145,o),
(15,113,o),
(15,72,cs)
);
}
);
width = 172;
},
{
layerId = "4C85334C-E1D4-4EB0-A0B2-9D58DDEA71D9";
shapes = (
{
closed = 1;
nodes = (
(53,34,ls),
(53,14,o),
(69,0,o),
(86,0,cs),
(103,0,o),
(120,14,o),
(120,34,cs),
(120,53,o),
(103,68,o),
(86,68,cs),
(69,68,o),
(53,53,o),
(53,34,cs)
);
}
);
width = 165;
},
{
layerId = "93649EC8-ADF5-4C20-AD08-3ED15854CD33";
shapes = (
{
closed = 1;
nodes = (
(71.333,22.333,ls),
(71.333,9.833,o),
(81.5,0,o),
(93.5,0,cs),
(105.5,0,o),
(115.833,9.833,o),
(115.833,22.333,cs),
(115.833,34.667,o),
(105.5,44.667,o),
(93.5,44.667,cs),
(81.5,44.667,o),
(71.333,34.667,o),
(71.333,22.333,cs)
);
}
);
width = 186;
},
{
layerId = "3DCE0E54-12D6-4F05-956C-7616B59038AD";
shapes = (
{
closed = 1;
nodes = (
(31,56,ls),
(31,22,o),
(59,0,o),
(87,0,cs),
(113,0,o),
(141,22,o),
(141,56,cs),
(141,88,o),
(113,113,o),
(87,113,cs),
(59,113,o),
(31,88,o),
(31,56,cs)
);
}
);
width = 169;
}
);
unicode = 46;
}
{
glyphname = slash;
layers = (
{
layerId = UUID1;
shapes = (
{
closed = 1;
nodes = (
(301,751,l),
(206,494,o),
(112,238,o),
(17,-19,c),
(143,-19,l),
(238,238,o),
(332,494,o),
(427,751,c)
);
}
);
width = 421;
},
{
layerId = "4C85334C-E1D4-4EB0-A0B2-9D58DDEA71D9";
shapes = (
{
closed = 1;
nodes = (
(297,740,l),
(203,487,o),
(111,234,o),
(17,-19,c),
(61,-19,l),
(154,234,o),
(247,487,o),
(340,740,c)
);
}
);
width = 348;
},
{
layerId = "93649EC8-ADF5-4C20-AD08-3ED15854CD33";
shapes = (
{
closed = 1;
nodes = (
(295.333,736.667,l),
(202.167,484.5,o),
(110.167,233.167,o),
(17,-19,c),
(36,-19,l),
(129,233.167,o),
(221.167,484.5,o),
(314.167,736.667,c)
);
}
);
width = 326;
},
{
layerId = "3DCE0E54-12D6-4F05-956C-7616B59038AD";
shapes = (
{
closed = 1;
nodes = (
(299,746,l),
(205,491,o),
(112,236,o),
(17,-19,c),
(109,-19,l),
(203,236,o),
(296,491,o),
(390,746,c)
);
}
);
width = 390;
}
);
unicode = 47;
}
{
glyphname = zero;
layers = (
{
layerId = UUID1;
shapes = (
{
closed = 1;
nodes = (
(465,-2,o),
(593,97,o),
(593,335,c),
(593,564,o),
(467,672,o),
(314,671,c),
(154,672,o),
(35,590,o),
(35,335,cs),
(35,106,o),
(161,-2,o),
(314,-1,c)
);
},
{
closed = 1;
nodes = (
(214,138,o),
(186,226,o),
(186,336,c),
(186,445,o),
(214,531,o),
(313,531,c),
(412,531,o),
(442,448,o),
(442,339,c),
(442,226,o),
(413,138,o),
(313,138,c)
);
}
);
width = 628;
},
{
layerId = "4C85334C-E1D4-4EB0-A0B2-9D58DDEA71D9";
shapes = (
{
closed = 1;
nodes = (
(483,-6,o),
(583,142,o),
(583,328,c),
(583,511,o),
(483,660,o),
(310,659,c),
(134,660,o),
(36,518,o),
(36,328,c),
(36,144,o),
(136,-6,o),
(310,-5,c)
);
},
{
closed = 1;
nodes = (
(178,41,o),
(87,152,o),
(86,327,c),
(87,502,o),
(178,613,o),
(309,612,c),
(441,613,o),
(532,502,o),
(533,328,c),
(532,152,o),
(441,41,o),
(309,42,c)
);
}
);
width = 619;
},
{
layerId = "93649EC8-ADF5-4C20-AD08-3ED15854CD33";
shapes = (
{
closed = 1;
nodes = (
(488,-6.833,o),
(580.5,155.333,o),
(580.5,325.5,c),
(580.5,495.167,o),
(488,655.833,o),
(308.333,654.833,c),
(128.167,655.833,o),
(36,496.333,o),
(36,325.5,c),
(36,155.667,o),
(128.5,-6.833,o),
(308.333,-5.833,c)
);
},
{
closed = 1;
nodes = (
(167.167,11.833,o),
(57,130.333,o),
(56,324.5,c),
(57,518.667,o),
(167.167,637.167,o),
(308.167,636.167,c),
(449.333,637.167,o),
(559.5,518.667,o),
(560.5,324.667,c),
(559.5,130.333,o),
(449.333,11.833,o),
(308.167,12.833,c)
);
}
);
width = 616.5;
},
{
layerId = "3DCE0E54-12D6-4F05-956C-7616B59038AD";
shapes = (
{
closed = 1;
nodes = (
(473,-4,o),
(589,116,o),
(589,332,c),
(589,542,o),
(474,667,o),
(312,666,c),
(146,667,o),
(35,560,o),
(35,332,cs),
(35,122,o),
(151,-4,o),
(312,-3,c)
);
},
{
closed = 1;
nodes = (
(199,97,o),
(144,195,o),
(144,332,c),
(144,469,o),
(199,565,o),
(311,565,c),
(424,565,o),
(480,471,o),
(480,334,c),
(480,195,o),
(425,97,o),
(311,98,c)
);
}
);
width = 624;
}
);
unicode = 48;
}
{
glyphname = one;
layers = (
{
layerId = UUID1;
shapes = (
{
closed = 1;
nodes = (
(50,523,l),
(103,523,l),
(103,0,l),
(249,0,l),
(249,663,l),
(50,663,l)
);
}
);
width = 344;
},
{
layerId = "4C85334C-E1D4-4EB0-A0B2-9D58DDEA71D9";
shapes = (
{
closed = 1;
nodes = (
(56,606,l),
(153,606,l),
(153,0,l),
(202,0,l),
(202,653,l),
(56,653,l)
);
}
);
width = 315;
},
{
layerId = "93649EC8-ADF5-4C20-AD08-3ED15854CD33";
shapes = (
{
closed = 1;
nodes = (
(59.333,631,l),
(169.667,631,l),
(169.667,0,l),
(189.5,0,l),
(189.5,650.5,l),
(59.333,650.5,l)
);
}
);
width = 308;
},
{
layerId = "3DCE0E54-12D6-4F05-956C-7616B59038AD";
shapes = (
{
closed = 1;
nodes = (
(53,558,l),
(124,558,l),
(124,0,l),
(229,0,l),
(229,659,l),
(53,659,l)
);
}
);
width = 332;
}
);
metricRight = H;
unicode = 49;
}
{
glyphname = two;
layers = (
{
layerId = UUID1;
shapes = (
{
closed = 1;
nodes = (
(533,0,l),
(533,140,l),
(287,140,l),
(353,121,l),
(442,230,o),
(525,330,o),
(525,451,cs),
(525,565,o),
(434,671,o),
(297,671,cs),
(128,671,o),
(35,561,o),
(35,452,cs),
(35,403,o),
(68,303,o),
(126,275,c),
(215,356,l),
(191,381,o),
(176,413,o),
(176,456,cs),
(176,492,o),
(210,531,o),
(272,531,cs),
(333,531,o),
(374,496,o),
(374,439,cs),
(374,310,o),
(218,168,o),
(54,0,c)
);
}
);
width = 583;
},
{
layerId = "4C85334C-E1D4-4EB0-A0B2-9D58DDEA71D9";
shapes = (
{
closed = 1;
nodes = (
(471,0,l),
(471,47,l),
(133,47,l),
(152,37,l),
(277,172,o),
(435,315,o),
(435,461,cs),
(435,573,o),
(359,661,o),
(246,661,cs),
(117,661,o),
(46,572,o),
(46,465,cs),
(46,412,o),
(67,359,o),
(103,328,c),
(133,355,l),
(107,382,o),
(94,419,o),
(94,466,cs),
(94,526,o),
(126,615,o),
(240,615,cs),
(304,615,o),
(385,574,o),
(385,457,cs),
(385,322,o),
(223,166,o),
(53,0,c)
);
}
);
width = 507;
},
{
layerId = "93649EC8-ADF5-4C20-AD08-3ED15854CD33";
shapes = (
{
closed = 1;
nodes = (
(452.667,0,l),
(452.667,18.667,l),
(86.333,18.667,l),
(91.167,12,l),
(227.833,154.5,o),
(408.333,310,o),
(408.333,463.5,cs),
(408.333,575.5,o),
(336.5,658.5,o),
(231,658.5,cs),
(113.667,658.5,o),
(49.333,575.333,o),
(49.333,468.333,cs),
(49.333,414.5,o),
(67,375.667,o),
(96.333,343.833,c),
(108,355,l),
(82,382.833,o),
(69,420.667,o),
(69,468.5,cs),
(69,536,o),
(101,640,o),
(230,640,cs),
(295.667,640,o),
(388.333,597.333,o),
(388.333,462.833,cs),
(388.333,325.333,o),
(224.667,165.167,o),
(53,0,c)
);
}
);
width = 496;
},
{
layerId = "3DCE0E54-12D6-4F05-956C-7616B59038AD";
shapes = (
{
closed = 1;
nodes = (
(507,0,l),
(507,101,l),
(222,101,l),
(269,86,l),
(373,206,o),
(487,324,o),
(487,455,cs),
(487,568,o),
(403,667,o),
(276,667,cs),
(123,667,o),
(40,566,o),
(40,457,cs),
(40,407,o),
(68,327,o),
(116,297,c),
(181,356,l),
(156,381,o),
(142,416,o),
(142,460,cs),
(142,506,o),
(175,566,o),
(259,566,cs),
(321,566,o),
(379,529,o),
(379,447,cs),
(379,315,o),
(220,167,o),
(54,0,c)
);
}
);
width = 551;
}
);
unicode = 50;
}
{
glyphname = three;
layers = (
{
background = {
shapes = (
{
closed = 1;
nodes = (
(95,663,l),
(95,523,l),
(304,523,l),
(262,540,l),
(145,316,l),
(145,316,l),
(165,321,o),
(184,326,o),
(224,326,cs),
(282,326,o),
(317,288,o),
(317,230,cs),
(317,166,o),
(269,132,o),
(225,132,cs),
(179,132,o),
(134,162,o),
(114,187,c),
(40,67,l),
(83,22,o),
(153,-8,o),
(219,-8,cs),
(344,-8,o),
(467,76,o),
(467,221,cs),
(467,313,o),
(430,405,o),
(320,436,c),
(306,375,l),
(456,663,l)
);
}
);
};
layerId = UUID1;
shapes = (
{
closed = 1;
nodes = (
(95,663,l),
(95,523,l),
(304,523,l),
(262,540,l),
(145,321,l),
(148,317,l),
(168,322,o),
(184,326,o),
(224,326,cs),
(282,326,o),
(317,288,o),
(317,230,cs),
(317,166,o),
(269,132,o),
(225,132,cs),
(179,132,o),
(134,162,o),
(114,187,c),
(40,67,l),
(83,22,o),
(163,-8,o),
(229,-8,cs),
(354,-8,o),
(467,76,o),
(467,221,cs),
(467,386,o),
(363,428,o),
(270,426,cs),
(257,426,o),
(240,423,o),
(227,418,c),
(306,375,l),
(456,663,l)
);
}
);
width = 527;
},
{
layerId = "4C85334C-E1D4-4EB0-A0B2-9D58DDEA71D9";
shapes = (
{
closed = 1;
nodes = (
(88,653,l),
(88,607,l),
(360,607,l),
(342,616,l),
(148,352,l),
(152,349,l),
(175,360,o),
(208,369,o),
(245,369,cs),
(341,369,o),
(403,312,o),
(403,219,cs),
(403,112,o),
(328,39,o),
(224,39,cs),
(172,39,o),
(120,65,o),
(91,100,c),
(66,60,l),
(104,19,o),
(164,-8,o),
(225,-8,cs),
(355,-8,o),
(453,81,o),
(453,217,cs),
(453,349,o),
(362,410,o),
(258,405,c),
(229,405,o),
(201,399,o),
(179,386,c),
(216,375,l),
(418,653,l)
);
}
);
width = 520;
},
{
layerId = "93649EC8-ADF5-4C20-AD08-3ED15854CD33";
shapes = (
{
closed = 1;
nodes = (
(85.5,650.5,l),
(85.5,632,l),
(376.667,632,l),
(373.667,638.5,l),
(148.833,361.167,l),
(152.833,358.167,l),
(176.667,371.667,o),
(215.5,382.333,o),
(251.667,382.333,cs),
(358.5,382.333,o),
(428.833,318.667,o),
(428.833,215.667,cs),
(428.833,96.167,o),
(345.5,10.667,o),
(224,10.667,cs),
(169.5,10.667,o),
(115.833,35.833,o),
(84.333,73.333,c),
(73.5,58.333,l),
(110.667,18.167,o),
(164,-8,o),
(224.167,-8,cs),
(355.833,-8,o),
(448.833,82.667,o),
(448.833,215.333,cs),
(448.833,338.167,o),
(362,405,o),
(254.667,399.167,c),
(220.667,399.167,o),
(189.333,392.333,o),
(164.833,376.833,c),
(181,375,l),
(406.333,650.5,l)
);
}
);
width = 518;
},
{
layerId = "3DCE0E54-12D6-4F05-956C-7616B59038AD";
shapes = (
{
closed = 1;
nodes = (
(92,659,l),
(92,558,l),
(328,558,l),
(296,572,l),
(146,334,l),
(150,330,l),
(171,338,o),
(194,344,o),
(233,344,cs),
(307,344,o),
(353,298,o),
(353,225,cs),
(353,143,o),
(294,93,o),
(225,93,cs),
(176,93,o),
(128,121,o),
(104,150,c),
(51,64,l),
(92,21,o),
(163,-8,o),
(227,-8,cs),
(354,-8,o),
(461,78,o),
(461,219,cs),
(461,370,o),
(363,420,o),
(265,417,cs),
(245,417,o),
(224,413,o),
(207,405,c),
(268,375,l),
(440,659,l)
);
}
);
width = 524;
}
);
unicode = 51;
}
{
glyphname = four;
layers = (
{
layerId = UUID1;
shapes = (
{
closed = 1;
nodes = (
(288,145,l),
(288,0,l),
(434,0,l),
(434,145,l),
(513,145,l),
(513,255,l),
(434,255,l),
(434,671,l),
(433,671,l),
(10,146,l),
(10,145,l)
);
},
{
closed = 1;
nodes = (
(288,359,l),
(288,255,l),
(204,255,l),
(218,249,l),
(295,352,l)
);
}
);
width = 553;
},
{
layerId = "4C85334C-E1D4-4EB0-A0B2-9D58DDEA71D9";
shapes = (
{
closed = 1;
nodes = (
(347,173,l),
(347,0,l),
(396,0,l),
(396,173,l),
(488,173,l),
(488,212,l),
(396,212,l),
(396,661,l),
(395,661,l),
(15,174,l),
(15,173,l)
);
},
{
closed = 1;
nodes = (
(347,571,l),
(347,212,l),
(76,212,l),
(92,208,l),
(353,542,l)
);
}
);
width = 518;
},
{
layerId = "93649EC8-ADF5-4C20-AD08-3ED15854CD33";
shapes = (
{
closed = 1;
nodes = (
(372,181.333,l),
(372,0,l),
(391.833,0,l),
(391.833,181.333,l),
(488,181.333,l),
(488,198.667,l),
(391.833,198.667,l),
(391.833,658.5,l),
(390.833,658.5,l),
(23.333,182.333,l),
(23.333,181.333,l)
);
},
{
closed = 1;
nodes = (
(372,618.5,l),
(372,198.667,l),
(51,198.667,l),
(56.167,195.5,l),
(374.667,608.667,l)
);
}
);
width = 506;
},
{
layerId = "3DCE0E54-12D6-4F05-956C-7616B59038AD";
shapes = (
{
closed = 1;
nodes = (
(313,157,l),
(313,0,l),
(418,0,l),
(418,157,l),
(503,157,l),
(503,237,l),
(418,237,l),
(418,667,l),
(417,667,l),
(12,158,l),
(12,157,l)
);
},
{
closed = 1;
nodes = (
(313,448,l),
(313,237,l),
(150,237,l),
(165,232,l),
(319,432,l)
);
}
);
width = 538;
}
);
unicode = 52;
}
{
glyphname = five;
layers = (
{
layerId = UUID1;
shapes = (
{
closed = 1;
nodes = (
(368,-8,o),
(468,93,o),
(468,226,cs),
(468,346,o),
(388,449,o),
(249,450,cs),
(232,450,o),
(214,449,o),
(196,446,c),
(213,416,l),
(213,523,l),
(419,523,l),
(419,663,l),
(88,663,l),
(88,291,l),
(89,291,l),
(140,318,o),
(173,328,o),
(214,328,cs),
(278,328,o),
(318,285,o),
(318,221,cs),
(318,162,o),
(277,132,o),
(231,132,cs),
(189,132,o),
(139,154,o),
(115,183,c),
(40,67,l),
(81,26,o),
(163,-8,o),
(242,-8,cs)
);
}
);
width = 518;
},
{
layerId = "4C85334C-E1D4-4EB0-A0B2-9D58DDEA71D9";
shapes = (
{
closed = 1;
nodes = (
(373,-8,o),
(457,86,o),
(457,203,cs),
(457,317,o),
(394,409,o),
(264,410,cs),
(228,410,o),
(186,402,o),
(159,389,c),
(167,378,l),
(167,607,l),
(422,607,l),
(422,653,l),
(124,653,l),
(124,329,l),
(125,329,l),
(159,352,o),
(202,368,o),
(253,368,cs),
(360,368,o),
(407,295,o),
(407,202,cs),
(407,111,o),
(343,37,o),
(242,37,cs),
(195,37,o),
(148,56,o),
(118,88,c),
(90,53,l),
(129,16,o),
(186,-8,o),
(247,-8,cs)
);
}
);
width = 527;
},
{
layerId = "93649EC8-ADF5-4C20-AD08-3ED15854CD33";
shapes = (
{
closed = 1;
nodes = (
(368,-8,o),
(459.5,83.5,o),
(459.5,196.333,cs),
(459.5,308.667,o),
(371.5,397.333,o),
(256.5,397.5,cs),
(221.333,397.5,o),
(178.5,387.833,o),
(153.167,371.5,c),
(158.667,366.333,l),
(158.667,632,l),
(428.667,632,l),
(428.667,650.5,l),
(139.833,650.5,l),
(139.833,339.833,l),
(140.833,339.833,l),
(165.667,362,o),
(206.167,379.667,o),
(253,379.667,cs),
(359.167,379.667,o),
(439.5,297.5,o),
(439.5,196.167,cs),
(439.5,96,o),
(356.333,10.333,o),
(251.167,10.333,cs),
(201.667,10.333,o),
(155.5,29.333,o),
(123.833,62.167,c),
(110.833,48.833,l),
(148.167,13.5,o),
(198.5,-8,o),
(253.667,-8,cs)
);
}
);
width = 543;
},
{
layerId = "3DCE0E54-12D6-4F05-956C-7616B59038AD";
shapes = (
{
closed = 1;
nodes = (
(370,-8,o),
(463,90,o),
(463,216,cs),
(463,334,o),
(391,432,o),
(255,433,cs),
(230,433,o),
(202,429,o),
(180,422,c),
(194,400,l),
(194,558,l),
(420,558,l),
(420,659,l),
(103,659,l),
(103,307,l),
(104,307,l),
(148,332,o),
(185,345,o),
(230,345,cs),
(312,345,o),
(355,289,o),
(355,213,cs),
(355,141,o),
(305,92,o),
(236,92,cs),
(192,92,o),
(143,113,o),
(116,143,c),
(61,61,l),
(101,22,o),
(173,-8,o),
(244,-8,cs)
);
}
);
width = 522;
}
);
unicode = 53;
}
{
glyphname = six;
layers = (
{
background = {
shapes = (
{
closed = 0;
nodes = (
(275,449,l),
(302,471,o),
(420,534,o),
(454,557,c),
(429,588,o),
(403,621,o),
(377,652,c),
(282,583,o),
(50,444,o),
(50,222,cs),
(50,222,ls),
(50,52,o),
(186,-8,o),
(280,-8,cs),
(404,-8,o),
(511,96,o),
(511,223,cs),
(511,350,o),
(404,449,o),
(279,449,cs),
(278,449,o),
(277,449,o),
(275,449,c)
);
},
{
closed = 1;
nodes = (
(180,222,ls),
(180,281,o),
(224,328,o),
(280,328,cs),
(336,328,o),
(386,281,o),
(386,222,cs),
(386,164,o),
(337,113,o),
(280,113,cs),
(223,113,o),
(180,164,o),
(180,222,cs)
);
}
);
};
layerId = UUID1;
shapes = (
{
closed = 1;
nodes = (
(410,-8,o),
(531,75,o),
(531,223,cs),
(531,350,o),
(432,437,o),
(336,437,cs),
(234,437,o),
(184,388,o),
(148,304,c),
(184,300,l),
(184,388,o),
(254,513,o),
(414,576,c),
(317,681,l),
(159,587,o),
(30,444,o),
(30,287,cs),
(30,96,o),
(141,-8,o),
(286,-8,cs)
);
},
{
closed = 1;
nodes = (
(223,122,o),
(180,167,o),
(180,215,cs),
(180,239,ls),
(180,279,o),
(224,315,o),
(280,315,cs),
(336,315,o),
(380,284,o),
(380,222,cs),
(380,157,o),
(337,122,o),
(280,122,cs)
);
}
);
width = 561;
},
{
layerId = "4C85334C-E1D4-4EB0-A0B2-9D58DDEA71D9";
shapes = (
{
closed = 1;
nodes = (
(378,-8,o),
(477,80,o),
(477,201,cs),
(477,316,o),
(384,406,o),
(276,406,cs),
(199,406,o),
(137,371,o),
(100,306,c),
(113,303,l),
(137,398,o),
(231,511,o),
(397,609,c),
(365,646,l),
(215,542,o),
(45,407,o),
(45,218,cs),
(45,86,o),
(141,-8,o),
(262,-8,cs)
);
},
{
closed = 1;
nodes = (
(168,36,o),
(94,110,o),
(94,199,cs),
(94,210,ls),
(94,297,o),
(168,364,o),
(260,364,cs),
(352,364,o),
(427,294,o),
(427,201,cs),
(427,107,o),
(352,36,o),
(260,36,cs)
);
}
);
width = 529;
},
{
layerId = "93649EC8-ADF5-4C20-AD08-3ED15854CD33";
shapes = (
{
closed = 1;
nodes = (
(368.833,-8,o),
(461.167,81.667,o),
(461.167,194.333,cs),
(461.167,306,o),
(369.833,396.833,o),
(257.667,396.833,cs),
(189,396.833,o),
(122,366,o),
(85,306.833,c),
(90.5,303.833,l),
(122,403,o),
(223.5,515.167,o),
(392,627.333,c),
(379.167,643.5,l),
(231.667,535.333,o),
(49.167,400.333,o),
(49.167,197.167,cs),
(49.167,82.667,o),
(141,-8,o),
(255.333,-8,cs)
);
},
{
closed = 1;
nodes = (
(151.333,10.167,o),
(68.167,92.5,o),
(68.167,194,cs),
(68.167,201.667,ls),
(68.167,307.833,o),
(151.333,379,o),
(254.167,379,cs),
(357,379,o),
(441.167,296.5,o),
(441.167,194.333,cs),
(441.167,92,o),
(357,10.167,o),
(254.167,10.167,cs)
);
}
);
width = 520;
},
{
layerId = "3DCE0E54-12D6-4F05-956C-7616B59038AD";
shapes = (
{
closed = 1;
nodes = (
(397,-8,o),
(508,77,o),
(508,214,cs),
(508,336,o),
(412,424,o),
(311,424,cs),
(219,424,o),
(164,381,o),
(128,305,c),
(154,301,l),
(164,392,o),
(244,512,o),
(407,590,c),
(337,666,l),
(183,568,o),
(36,428,o),
(36,258,cs),
(36,92,o),
(141,-8,o),
(276,-8,cs)
);
},
{
closed = 1;
nodes = (
(200,86,o),
(144,143,o),
(144,208,cs),
(144,227,ls),
(144,287,o),
(200,336,o),
(272,336,cs),
(343,336,o),
(400,288,o),
(400,213,cs),
(400,136,o),
(343,86,o),
(272,86,cs)
);
}
);
width = 548;
}
);
unicode = 54;
}
{
glyphname = seven;
layers = (
{
layerId = UUID1;
shapes = (
{
closed = 1;
nodes = (
(40,663,l),
(40,523,l),
(331,523,l),
(284,540,l),
(79,0,l),
(241,0,l),
(488,663,l)
);
}
);
width = 503;
},
{
layerId = "4C85334C-E1D4-4EB0-A0B2-9D58DDEA71D9";
shapes = (
{
closed = 1;
nodes = (
(22,653,l),
(22,607,l),
(388,607,l),
(368,618,l),
(99,0,l),
(155,0,l),
(435,653,l)
);
}
);
width = 476;
},
{
layerId = "93649EC8-ADF5-4C20-AD08-3ED15854CD33";
shapes = (
{
closed = 1;
nodes = (
(45.333,650.5,l),
(45.333,632,l),
(433.833,632,l),
(422.167,641.333,l),
(134,0,l),
(158.333,0,l),
(448.333,650.5,l)
);
}
);
width = 476;
},
{
layerId = "3DCE0E54-12D6-4F05-956C-7616B59038AD";
shapes = (
{
closed = 1;
nodes = (
(32,659,l),
(32,558,l),
(355,558,l),
(319,573,l),
(87,0,l),
(205,0,l),
(466,659,l)
);
}
);
width = 492;
}
);
unicode = 55;
}
{
glyphname = eight;
layers = (
{
layerId = UUID1;
shapes = (
{
closed = 1;
nodes = (
(15,215,ls),
(15,99,o),
(119,-8,o),
(265,-8,cs),
(410,-8,o),
(517,99,o),
(517,215,cs),
(517,316,o),
(449,369,o),
(402,400,c),
(434,432,o),
(459,457,o),
(459,524,cs),
(459,607,o),
(371,671,o),
(267,671,cs),
(163,671,o),
(78,607,o),
(78,517,cs),
(78,457,o),
(101,431,o),
(131,400,c),
(84,372,o),
(15,318,o),
(15,215,cs)
);
},
{
closed = 1;
nodes = (
(164,221,ls),
(164,283,o),
(216,330,o),
(272,328,cs),
(328,326,o),
(372,278,o),
(372,221,cs),
(372,162,o),
(323,114,o),
(266,114,cs),
(210,114,o),
(164,162,o),
(164,221,cs)
);
},
{
closed = 1;
nodes = (
(219,499,ls),
(219,526,o),
(245,550,o),
(270,550,cs),
(295,550,o),
(320,526,o),
(320,499,cs),
(320,472,o),
(294,449,o),
(270,449,cs),
(246,449,o),
(219,472,o),
(219,499,cs)
);
}
);
width = 532;
},
{
layerId = "4C85334C-E1D4-4EB0-A0B2-9D58DDEA71D9";
shapes = (
{
closed = 1;
nodes = (
(41,200,ls),
(41,87,o),
(135,-8,o),
(255,-8,cs),
(376,-8,o),
(473,87,o),
(473,200,cs),
(473,297,o),
(406,368,o),
(328,392,c),
(376,414,o),
(410,456,o),
(410,514,cs),
(410,597,o),
(347,661,o),
(254,661,cs),
(161,661,o),
(98,598,o),
(98,513,cs),
(98,457,o),
(133,413,o),
(182,392,c),
(106,368,o),
(41,297,o),
(41,200,cs)
);
},
{
closed = 1;
nodes = (
(90,202,ls),
(90,294,o),
(165,368,o),
(256,368,cs),
(349,367,o),
(424,293,o),
(424,202,cs),
(424,111,o),
(347,34,o),
(254,34,cs),
(163,34,o),
(90,111,o),
(90,202,cs)
);
},
{
closed = 1;
nodes = (
(145,508,ls),
(145,575,o),
(195,620,o),
(256,620,cs),
(316,620,o),
(363,575,o),
(363,508,cs),
(363,452,o),
(316,409,o),
(256,409,cs),
(195,409,o),
(145,452,o),
(145,508,cs)
);
}
);
width = 514;
},
{
layerId = "93649EC8-ADF5-4C20-AD08-3ED15854CD33";
shapes = (
{
closed = 1;
nodes = (
(48.5,195.833,ls),
(48.5,83.667,o),
(140,-8,o),
(252.5,-8,cs),
(366,-8,o),
(459.667,83.667,o),
(459.667,195.833,cs),
(459.667,291.167,o),
(392.667,368,o),
(305.5,389.5,c),
(358.5,409,o),
(395.833,456,o),
(395.833,510.667,cs),
(395.833,593.667,o),
(340.333,658.5,o),
(249.833,658.5,cs),
(160.167,658.5,o),
(103.833,595.5,o),
(103.833,512.167,cs),
(103.833,457,o),
(143,408,o),
(197.833,389.5,c),
(112.667,367.167,o),
(48.5,290.333,o),
(48.5,195.833,cs)
);
},
{
closed = 1;
nodes = (
(68.333,196.167,ls),
(68.333,297.333,o),
(149.167,379.667,o),
(251,379.667,cs),
(354.833,379.5,o),
(439.833,297.167,o),
(439.833,196.167,cs),
(439.833,96,o),
(354.5,9.833,o),
(250.667,9.833,cs),
(148.833,9.833,o),
(68.333,96,o),
(68.333,196.167,cs)
);
},
{
closed = 1;
nodes = (
(123.333,510.5,ls),
(123.333,589.167,o),
(180,640.833,o),
(251.833,640.833,cs),
(322.667,640.833,o),
(376.333,589.167,o),
(376.333,510.5,cs),
(376.333,446.167,o),
(322.667,397.333,o),
(251.833,397.333,cs),
(180,397.333,o),
(123.333,446.167,o),
(123.333,510.5,cs)
);
}
);
width = 508;
},
{
layerId = "3DCE0E54-12D6-4F05-956C-7616B59038AD";
shapes = (
{
closed = 1;
nodes = (
(26,209,ls),
(26,94,o),
(126,-8,o),
(261,-8,cs),
(396,-8,o),
(499,94,o),
(499,209,cs),
(499,308,o),
(431,369,o),
(371,397,c),
(410,424,o),
(438,457,o),
(438,520,cs),
(438,603,o),
(361,667,o),
(262,667,cs),
(162,667,o),
(86,603,o),
(86,515,cs),
(86,457,o),
(114,423,o),
(152,397,c),
(93,370,o),
(26,309,o),
(26,209,cs)
);
},
{
closed = 1;
nodes = (
(133,213,ls),
(133,288,o),
(195,346,o),
(265,345,cs),
(337,343,o),
(394,284,o),
(394,213,cs),
(394,141,o),
(333,80,o),
(261,80,cs),
(190,80,o),
(133,141,o),
(133,213,cs)
);
},
{
closed = 1;
nodes = (
(188,503,ls),
(188,547,o),
(224,579,o),
(264,579,cs),
(304,579,o),
(338,547,o),
(338,503,cs),
(338,464,o),
(303,432,o),
(264,432,cs),
(225,432,o),
(188,464,o),
(188,503,cs)
);
}
);
width = 524;
}
);
unicode = 56;
}
{
glyphname = nine;
layers = (
{
background = {
shapes = (
{
closed = 1;
nodes = (
(509,422,l),
(509,592,o),
(373,652,o),
(279,652,cs),
(155,652,o),
(48,548,o),
(48,421,cs),
(48,294,o),
(155,195,o),
(280,195,cs),
(281,195,o),
(282,195,o),
(284,195,c),
(257,173,o),
(139,110,o),
(105,87,c),
(130,56,o),
(156,23,o),
(182,-8,c),
(277,61,o),
(509,200,o),
(509,422,c)
);
},
{
closed = 1;
nodes = (
(379,422,l),
(379,363,o),
(335,316,o),
(279,316,cs),
(223,316,o),
(173,363,o),
(173,422,cs),
(173,480,o),
(222,531,o),
(279,531,cs),
(336,531,o),
(379,480,o),
(379,422,c)
);
}
);
};
layerId = UUID1;
shapes = (
{
closed = 1;
nodes = (
(327,207,o),
(377,256,o),
(413,340,c),
(377,344,l),
(377,254,o),
(267,153,o),
(107,88,c),
(204,-17,l),
(362,81,o),
(531,202,o),
(531,422,cs),
(531,564,o),
(420,671,o),
(275,671,cs),
(151,671,o),
(30,581,o),
(30,421,cs),
(30,294,o),
(129,207,o),
(225,207,cs)
);
},
{
closed = 1;
nodes = (
(225,329,o),
(181,364,o),
(181,433,cs),
(181,503,o),
(224,541,o),
(281,541,cs),
(338,541,o),
(381,492,o),
(381,440,cs),
(381,417,ls),
(381,372,o),
(337,329,o),
(281,329,cs)
);
}
);
width = 546;
},
{
layerId = "4C85334C-E1D4-4EB0-A0B2-9D58DDEA71D9";
shapes = (
{
closed = 1;
nodes = (
(333,224,o),
(382,257,o),
(426,323,c),
(406,320,l),
(384,242,o),
(287,132,o),
(114,29,c),
(147,-9,l),
(298,97,o),
(477,228,o),
(477,426,c),
(477,555,o),
(381,638,o),
(260,638,cs),
(144,638,o),
(45,550,o),
(45,429,cs),
(45,314,o),
(138,224,o),
(246,224,cs)
);
},
{
closed = 1;
nodes = (
(170,267,o),
(95,336,o),
(95,429,cs),
(95,523,o),
(170,593,o),
(262,593,cs),
(351,593,o),
(424,528,o),
(428,437,c),
(428,422,l),
(428,325,o),
(361,267,o),
(262,267,cs)
);
}
);
width = 529;
},
{
layerId = "93649EC8-ADF5-4C20-AD08-3ED15854CD33";
shapes = (
{
closed = 1;
nodes = (
(334.667,229,o),
(383.667,257,o),
(430.167,318,c),
(415.167,312.5,l),
(385.667,237.833,o),
(292.833,124.5,o),
(115.667,9,c),
(129.5,-8.167,l),
(278.833,102,o),
(461.167,241.333,o),
(461.167,439.333,c),
(461.167,570,o),
(369.333,650.5,o),
(255,650.5,cs),
(141.5,650.5,o),
(49.167,557.5,o),
(49.167,439.833,cs),
(49.167,324,o),
(140.5,229,o),
(252.667,229,cs)
);
},
{
closed = 1;
nodes = (
(153.333,247.833,o),
(69.167,332.667,o),
(69.167,439.833,cs),
(69.167,547.167,o),
(153.333,631.333,o),
(256.167,631.333,cs),
(355.167,631.333,o),
(436.5,557.167,o),
(442.167,447.833,c),
(442.167,435.333,l),
(442.167,315.833,o),
(368.5,247.833,o),
(256.167,247.833,cs)
);
}
);
width = 524;
},
{
layerId = "3DCE0E54-12D6-4F05-956C-7616B59038AD";
shapes = (
{
closed = 1;
nodes = (
(330,214,o),
(379,256,o),
(418,333,c),
(389,334,l),
(380,249,o),
(275,144,o),
(110,63,c),
(180,-14,l),
(335,88,o),
(508,213,o),
(508,424,cs),
(508,560,o),
(404,657,o),
(269,657,cs),
(148,657,o),
(36,568,o),
(36,424,cs),
(36,302,o),
(133,214,o),
(234,214,cs)
);
},
{
closed = 1;
nodes = (
(202,303,o),
(145,352,o),
(145,431,cs),
(145,511,o),
(201,563,o),
(273,563,cs),
(343,563,o),
(399,507,o),
(401,439,cs),
(401,419,ls),
(401,352,o),
(347,303,o),
(273,303,cs)
);
}
);
width = 539;
}
);
unicode = 57;
}
{
glyphname = colon;
layers = (
{
layerId = UUID1;
shapes = (
{
closed = 1;
nodes = (
(120,285,o),
(157,313,o),
(157,357,cs),
(157,398,o),
(120,430,o),
(87,430,cs),
(51,430,o),
(15,398,o),
(15,357,cs),
(15,313,o),
(51,285,o),
(87,285,cs)
);
},
{
closed = 1;
nodes = (
(120,0,o),
(157,28,o),
(157,72,cs),
(157,113,o),
(120,145,o),
(87,145,cs),
(51,145,o),
(15,113,o),
(15,72,cs),
(15,28,o),
(51,0,o),
(87,0,cs)
);
}
);
width = 179;
},
{
layerId = "4C85334C-E1D4-4EB0-A0B2-9D58DDEA71D9";
shapes = (
{
closed = 1;
nodes = (
(102,259,o),
(119,273,o),
(119,293,cs),
(119,312,o),
(102,327,o),
(86,327,cs),
(68,327,o),
(52,312,o),
(52,293,cs),
(52,273,o),
(68,259,o),
(86,259,cs)
);
},
{
closed = 1;
nodes = (
(102,0,o),
(119,14,o),
(119,34,cs),
(119,53,o),
(102,68,o),
(86,68,cs),
(68,68,o),
(52,53,o),
(52,34,cs),
(52,14,o),
(68,0,o),
(86,0,cs)
);
}
);
width = 176;
},
{
layerId = "93649EC8-ADF5-4C20-AD08-3ED15854CD33";
shapes = (
{
closed = 1;
nodes = (
(97,0,o),
(107.333,9.833,o),
(107.333,22.333,cs),
(107.333,34.667,o),
(97,44.667,o),
(85.167,44.667,cs),
(73,44.667,o),
(62.833,34.667,o),
(62.833,22.333,cs),
(62.833,9.833,o),
(73,0,o),
(85.167,0,cs)
);
},
{
closed = 1;
nodes = (
(97,251.5,o),
(107.333,261.333,o),
(107.333,273.833,cs),
(107.333,286.167,o),
(97,296.167,o),
(85.167,296.167,cs),
(73,296.167,o),
(62.833,286.167,o),
(62.833,273.833,cs),
(62.833,261.333,o),
(73,251.5,o),
(85.167,251.5,cs)
);
}
);
width = 175;
},
{
layerId = "3DCE0E54-12D6-4F05-956C-7616B59038AD";
shapes = (
{
closed = 1;
nodes = (
(112,274,o),
(141,296,o),
(141,330,cs),
(141,362,o),
(112,387,o),
(87,387,cs),
(58,387,o),
(31,362,o),
(31,330,cs),
(31,296,o),
(58,274,o),
(87,274,cs)
);
},
{
closed = 1;
nodes = (
(112,0,o),
(141,22,o),
(141,56,cs),
(141,88,o),
(112,113,o),
(87,113,cs),
(58,113,o),
(31,88,o),
(31,56,cs),
(31,22,o),
(58,0,o),
(87,0,cs)
);
}
);
width = 178;
}
);
unicode = 58;
}
{
glyphname = semicolon;
layers = (
{
layerId = UUID1;
shapes = (
{
closed = 1;
nodes = (
(52,327,ls),
(52,283,o),
(88,255,o),
(123,255,cs),
(157,255,o),
(193,283,o),
(193,327,cs),
(193,368,o),
(157,400,o),
(123,400,cs),
(88,400,o),
(52,368,o),
(52,327,cs)
);
},
{
closed = 1;
nodes = (
(53,88,l),
(26,17,o),
(1,-52,o),
(-26,-122,c),
(86,-122,l),
(115,-52,o),
(144,17,o),
(174,88,c)
);
}
);
width = 205;
},
{
layerId = "4C85334C-E1D4-4EB0-A0B2-9D58DDEA71D9";
shapes = (
{
closed = 1;
nodes = (
(78,285,ls),
(78,265,o),
(95,251,o),
(112,251,cs),
(129,251,o),
(145,265,o),
(145,285,cs),
(145,304,o),
(129,319,o),
(112,319,cs),
(95,319,o),
(78,304,o),
(78,285,cs)
);
},
{
closed = 1;
nodes = (
(79,87,l),
(53,17,o),
(28,-51,o),
(2,-121,c),
(42,-121,l),
(71,-51,o),
(99,17,o),
(128,87,c)
);
}
);
width = 202;
},
{
layerId = "93649EC8-ADF5-4C20-AD08-3ED15854CD33";
shapes = (
{
closed = 1;
nodes = (
(86.333,272.5,ls),
(86.333,260,o),
(96.667,250.167,o),
(108.667,250.167,cs),
(120.667,250.167,o),
(130.833,260,o),
(130.833,272.5,cs),
(130.833,284.833,o),
(120.667,294.833,o),
(108.667,294.833,cs),
(96.667,294.833,o),
(86.333,284.833,o),
(86.333,272.5,cs)
);
},
{
closed = 1;
nodes = (
(87.333,86.167,l),
(61.333,17,o),
(36.333,-51,o),
(10.333,-120.167,c),
(28.667,-120.167,l),
(57.667,-51,o),
(85.667,17,o),
(114.667,86.167,c)
);
}
);
width = 201;
},
{
layerId = "3DCE0E54-12D6-4F05-956C-7616B59038AD";
shapes = (
{
closed = 1;
nodes = (
(63,309,ls),
(63,275,o),
(91,253,o),
(118,253,cs),
(145,253,o),
(173,275,o),
(173,309,cs),
(173,341,o),
(145,366,o),
(118,366,cs),
(91,366,o),
(63,341,o),
(63,309,cs)
);
},
{
closed = 1;
nodes = (
(64,88,l),
(37,17,o),
(12,-52,o),
(-14,-122,c),
(68,-122,l),
(97,-52,o),
(125,17,o),
(155,88,c)
);
}
);
width = 204;
}
);
unicode = 59;
}
{
glyphname = less;
layers = (
{
layerId = UUID1;
shapes = (
{
closed = 1;
nodes = (
(475,499,l),
(30,242,l),
(475,-14,l),
(475,137,l),
(298,242,l),
(475,347,l)
);
}
);
width = 555;
},
{
layerId = "4C85334C-E1D4-4EB0-A0B2-9D58DDEA71D9";
shapes = (
{
closed = 1;
nodes = (
(532,493,l),
(93,239,l),
(532,-15,l),
(532,37,l),
(183,239,l),
(532,441,l)
);
}
);
width = 647;
},
{
layerId = "93649EC8-ADF5-4C20-AD08-3ED15854CD33";
shapes = (
{
closed = 1;
nodes = (
(549.5,491.333,l),
(111.333,238.167,l),
(549.5,-15,l),
(549.5,7,l),
(148,238.167,l),
(549.5,469.333,l)
);
}
);
width = 675;
},
{
layerId = "3DCE0E54-12D6-4F05-956C-7616B59038AD";
shapes = (
{
closed = 1;
nodes = (
(499,496,l),
(56,241,l),
(499,-14,l),
(499,95,l),
(250,241,l),
(499,386,l)
);
}
);
width = 594;
}
);
unicode = 60;
}
{
glyphname = equal;
layers = (
{
layerId = UUID1;
shapes = (
{
closed = 1;
nodes = (
(102,290,l),
(618,290,l),
(618,412,l),
(102,412,l)
);
},
{
closed = 1;
nodes = (
(102,92,l),
(618,92,l),
(618,214,l),
(102,214,l)
);
}
);
width = 722;
},
{
layerId = "4C85334C-E1D4-4EB0-A0B2-9D58DDEA71D9";
shapes = (
{
closed = 1;
nodes = (
(101,330,l),
(609,330,l),
(609,372,l),
(101,372,l)
);
},
{
closed = 1;
nodes = (
(101,135,l),
(609,135,l),
(609,177,l),
(101,177,l)
);
}
);
width = 712;
},
{
layerId = "93649EC8-ADF5-4C20-AD08-3ED15854CD33";
shapes = (
{
closed = 1;
nodes = (
(100.167,341.667,l),
(606.5,341.667,l),
(606.5,360.333,l),
(100.167,360.333,l)
);
},
{
closed = 1;
nodes = (
(100.167,147.5,l),
(606.5,147.5,l),
(606.5,166.167,l),
(100.167,166.167,l)
);
}
);
width = 709;
},
{
layerId = "3DCE0E54-12D6-4F05-956C-7616B59038AD";
shapes = (
{
closed = 1;
nodes = (
(102,307,l),
(614,307,l),
(614,395,l),
(102,395,l)
);
},
{
closed = 1;
nodes = (
(102,110,l),
(614,110,l),
(614,198,l),
(102,198,l)
);
}
);
width = 718;
}
);
unicode = 61;
}
{
glyphname = greater;
layers = (
{
layerId = UUID1;
shapes = (
{
closed = 1;
nodes = (
(80,-14,l),
(80,-14,l),
(525,243,l),
(80,499,l),
(80,348,l),
(257,243,l),
(80,138,l)
);
}
);
width = 555;
},
{
layerId = "4C85334C-E1D4-4EB0-A0B2-9D58DDEA71D9";
shapes = (
{
closed = 1;
nodes = (
(106,-15,l),
(106,-15,l),
(546,239,l),
(106,493,l),
(106,441,l),
(456,239,l),
(106,37,l)
);
}
);
width = 625;
},
{
layerId = "93649EC8-ADF5-4C20-AD08-3ED15854CD33";
shapes = (
{
closed = 1;
nodes = (
(113.5,-15,l),
(113.5,-15,l),
(551.833,238.167,l),
(113.5,491.333,l),
(113.5,469.333,l),
(515.167,238.167,l),
(113.5,7,l)
);
}
);
width = 646;
},
{
layerId = "3DCE0E54-12D6-4F05-956C-7616B59038AD";
shapes = (
{
closed = 1;
nodes = (
(91,-14,l),
(91,-14,l),
(534,241,l),
(91,496,l),
(91,387,l),
(341,241,l),
(91,96,l)
);
}
);
width = 584;
}
);
unicode = 62;
}
{
glyphname = question;
layers = (
{
layerId = UUID1;
shapes = (
{
closed = 1;
nodes = (
(282,197,l),
(282,218,l),
(282,294,o),
(313,333,o),
(348,368,cs),
(392,413,o),
(444,452,o),
(444,561,c),
(444,692,o),
(355,746,o),
(242,747,c),
(87,748,o),
(25,627,o),
(10,579,c),
(125,525,l),
(143,570,o),
(169,617,o),
(227,617,c),
(257,617,o),
(295,591,o),
(295,548,c),
(295,495,o),
(262,467,o),
(226,434,cs),
(186,395,o),
(142,349,o),
(142,250,c),
(142,197,l)
);
},
{
closed = 1;
nodes = (
(260,-14,o),
(292,14,o),
(292,57,c),
(292,98,o),
(259,130,o),
(212,130,c),
(165,130,o),
(130,98,o),
(130,57,c),
(130,14,o),
(164,-14,o),
(212,-14,c)
);
}
);
width = 464;
},
{
layerId = "4C85334C-E1D4-4EB0-A0B2-9D58DDEA71D9";
shapes = (
{
closed = 1;
nodes = (
(238,173,l),
(238,236,ls),
(238,320,o),
(276,332,o),
(324,370,cs),
(379,413,o),
(420,462,o),
(420,543,cs),
(420,657,o),
(334,736,o),
(223,736,cs),
(119,736,o),
(49,663,o),
(25,594,c),
(65,577,l),
(87,643,o),
(145,692,o),
(219,692,cs),
(302,692,o),
(371,628,o),
(371,540,cs),
(371,470,o),
(335,432,o),
(287,396,cs),
(238,358,o),
(191,341,o),
(191,246,cs),
(191,173,l)
);
},
{
closed = 1;
nodes = (
(238,22,o),
(254,37,o),
(254,58,cs),
(254,77,o),
(238,93,o),
(217,93,cs),
(196,93,o),
(179,77,o),
(179,58,cs),
(179,37,o),
(196,22,o),
(217,22,cs)
);
}
);
width = 455;
},
{
layerId = "93649EC8-ADF5-4C20-AD08-3ED15854CD33";
shapes = (
{
closed = 1;
nodes = (
(224.667,165.5,l),
(224.667,241,ls),
(224.667,328.333,o),
(264.333,332,o),
(317.333,370.833,cs),
(374.833,413,o),
(413.333,465.333,o),
(413.333,538,cs),
(413.333,646.167,o),
(327.333,732.667,o),
(217.167,732.667,cs),
(128.167,732.667,o),
(55.667,673.833,o),
(30,598.167,c),
(47.5,592.833,l),
(70.333,664.667,o),
(138.333,714.5,o),
(216.5,714.5,cs),
(315.333,714.5,o),
(393.5,638.833,o),
(393.5,537.5,cs),
(393.5,462.5,o),
(356.667,422,o),
(305.333,384.333,cs),
(253.833,346.333,o),
(205.167,338.5,o),
(205.167,245.167,cs),
(205.167,165.5,l)
);
},
{
closed = 1;
nodes = (
(231.333,32.833,o),
(242.333,43.667,o),
(242.333,58,cs),
(242.333,71.167,o),
(231.333,82.167,o),
(218.667,82.167,cs),
(205.167,82.167,o),
(194,71.167,o),
(194,58,cs),
(194,43.667,o),
(205.167,32.833,o),
(218.667,32.833,cs)
);
}
);
width = 453;
},
{
layerId = "3DCE0E54-12D6-4F05-956C-7616B59038AD";
shapes = (
{
closed = 1;
nodes = (
(264,187,l),
(264,226,l),
(264,305,o),
(297,333,o),
(338,369,cs),
(387,413,o),
(434,456,o),
(434,553,c),
(434,677,o),
(346,742,o),
(234,742,c),
(100,743,o),
(35,642,o),
(16,585,c),
(100,547,l),
(119,601,o),
(159,649,o),
(224,649,c),
(276,649,o),
(327,607,o),
(327,545,c),
(327,485,o),
(293,452,o),
(252,418,cs),
(208,379,o),
(163,346,o),
(163,248,c),
(163,187,l)
);
},
{
closed = 1;
nodes = (
(251,1,o),
(276,24,o),
(276,57,c),
(276,89,o),
(250,114,o),
(214,114,c),
(178,114,o),
(151,89,o),
(151,57,c),
(151,24,o),
(177,1,o),
(214,1,c)
);
}
);
width = 460;
}
);
unicode = 63;
}
{
glyphname = at;
layers = (
{
layerId = UUID1;
shapes = (
{
closed = 1;
nodes = (
(552,-226,o),
(674,-197,o),
(755,-131,c),
(699,-52,l),
(634,-93,o),
(557,-118,o),
(481,-118,cs),
(312,-118,o),
(164,-33,o),
(164,182,cs),
(164,294,o),
(237,571,o),
(595,571,cs),
(800,571,o),
(894,451,o),
(894,312,cs),
(894,196,o),
(838,120,o),
(789,120,cs),
(766,120,o),
(757,137,o),
(762,172,cs),
(799,437,l),
(665,437,l),
(649,390,l),
(625,425,o),
(594,459,o),
(507,459,cs),
(355,459,o),
(253,343,o),
(253,191,cs),
(253,61,o),
(337,-12,o),
(448,-12,cs),
(529,-12,o),
(611,48,o),
(641,90,c),
(617,152,l),
(602,60,o),
(667,-8,o),
(753,-8,c),
(915,-8,o),
(1023,139,o),
(1023,312,cs),
(1023,516,o),
(881,680,o),
(615,680,cs),
(199,680,o),
(38,401,o),
(38,178,cs),
(38,-100,o),
(241,-226,o),
(460,-226,cs)
);
},
{
closed = 1;
nodes = (
(444,102,o),
(402,149,o),
(402,210,cs),
(402,279,o),
(456,345,o),
(531,345,c),
(584,345,o),
(622,318,o),
(632,275,c),
(617,168,l),
(588,124,o),
(557,102,o),
(504,102,c)
);
}
);
width = 1061;
},
{
layerId = "4C85334C-E1D4-4EB0-A0B2-9D58DDEA71D9";
shapes = (
{
closed = 1;
nodes = (
(503,-212,o),
(593,-184,o),
(668,-133,c),
(647,-103,l),
(580,-145,o),
(502,-173,o),
(421,-173,c),
(220,-173,o),
(95,-61,o),
(95,147,c),
(95,290,o),
(215,571,o),
(567,571,c),
(766,571,o),
(896,439,o),
(896,272,c),
(896,147,o),
(817,34,o),
(731,34,c),
(679,34,o),
(670,77,o),
(675,117,c),
(713,391,l),
(670,391,l),
(651,294,l),
(630,357,o),
(573,403,o),
(486,403,c),
(359,403,o),
(262,297,o),
(262,173,c),
(259,67,o),
(337,-8,o),
(445,-8,c),
(525,-8,o),
(604,50,o),
(639,114,c),
(630,139,l),
(612,48,o),
(646,-9,o),
(722,-9,c),
(846,-9,o),
(942,124,o),
(942,272,c),
(942,463,o),
(795,610,o),
(574,610,c),
(194,610,o),
(51,327,o),
(51,144,c),
(51,-85,o),
(195,-212,o),
(414,-212,c)
);
},
{
closed = 1;
nodes = (
(372,32,o),
(311,95,o),
(312,178,c),
(312,279,o),
(395,363,o),
(491,363,c),
(574,363,o),
(637,307,o),
(642,234,c),
(635,178,l),
(617,92,o),
(537,32,o),
(461,32,c)
);
}
);
width = 993;
},
{
layerId = "93649EC8-ADF5-4C20-AD08-3ED15854CD33";
shapes = (
{
closed = 1;
nodes = (
(488,-207.833,o),
(568.833,-179.833,o),
(641.333,-133.833,c),
(631.167,-118,l),
(563.333,-160.833,o),
(485.333,-189.667,o),
(403.5,-189.667,c),
(192.5,-189.667,o),
(74.167,-69.333,o),
(74.167,137,c),
(74.167,289.167,o),
(208.333,571,o),
(558.667,571,c),
(756,571,o),
(896.833,435.667,o),
(896.833,260.333,c),
(896.833,132.833,o),
(811.167,8.167,o),
(713.5,8.167,c),
(652.333,8.167,o),
(643.333,58.667,o),
(648.333,100.333,c),
(687.167,377.667,l),
(671.667,377.667,l),
(651.833,265.667,l),
(631.667,336.167,o),
(566.333,386.333,o),
(479.333,386.333,c),
(360.667,386.333,o),
(264.5,283.667,o),
(264.5,168,c),
(260.667,68.667,o),
(337,-6.333,o),
(444.167,-6.333,c),
(523.333,-6.333,o),
(602.333,50.833,o),
(638.167,121.5,c),
(634.167,134.833,l),
(614.5,43.833,o),
(640.167,-9.833,o),
(712.833,-9.833,c),
(825.167,-9.833,o),
(917.833,119.833,o),
(917.833,260.333,c),
(917.833,447.167,o),
(769.167,589.167,o),
(561.5,589.167,c),
(192.333,589.167,o),
(54.333,305.333,o),
(54.333,134,c),
(54.333,-80.833,o),
(181.667,-207.833,o),
(400.667,-207.833,c)
);
},
{
closed = 1;
nodes = (
(350.333,11.167,o),
(283.5,79.167,o),
(285.333,168,c),
(285.333,279,o),
(376.667,368.833,o),
(478.5,368.833,c),
(571.5,368.833,o),
(641.167,303.667,o),
(645.333,221.5,c),
(640,180.5,l),
(626.167,82.833,o),
(531.167,11.167,o),
(447.667,11.167,c)
);
}
);
width = 972;
},
{
layerId = "3DCE0E54-12D6-4F05-956C-7616B59038AD";
shapes = (
{
closed = 1;
nodes = (
(531,-220,o),
(640,-192,o),
(718,-132,c),
(677,-73,l),
(611,-115,o),
(534,-141,o),
(456,-141,cs),
(273,-141,o),
(135,-45,o),
(135,167,cs),
(135,292,o),
(228,571,o),
(583,571,cs),
(786,571,o),
(895,446,o),
(895,295,cs),
(895,175,o),
(829,84,o),
(765,84,cs),
(729,84,o),
(720,112,o),
(725,149,cs),
(763,418,l),
(667,418,l),
(650,350,l),
(627,396,o),
(585,435,o),
(498,435,cs),
(357,435,o),
(257,324,o),
(257,183,cs),
(256,64,o),
(337,-10,o),
(447,-10,cs),
(527,-10,o),
(608,49,o),
(640,100,c),
(622,147,l),
(606,55,o),
(658,-8,o),
(740,-8,c),
(886,-8,o),
(989,133,o),
(989,295,cs),
(989,494,o),
(845,651,o),
(598,651,cs),
(197,651,o),
(43,370,o),
(43,164,cs),
(43,-94,o),
(222,-220,o),
(441,-220,cs)
);
},
{
closed = 1;
nodes = (
(414,73,o),
(364,126,o),
(364,197,cs),
(364,279,o),
(430,353,o),
(514,353,c),
(580,353,o),
(628,313,o),
(636,258,c),
(625,172,l),
(600,111,o),
(549,73,o),
(486,73,c)
);
}
);
width = 1032;
}
);
metricLeft = o;
metricRight = o;
unicode = 64;
}
{
glyphname = A;
kernLeft = A;
kernRight = A;
layers = (
{
anchors = (
{
name = bottom;
pos = (348,0);
},
{
name = ogonek;
pos = (620,10);
},
{
name = top;
pos = (348,776);
}
);
layerId = UUID1;
shapes = (
{
closed = 1;
nodes = (
(155,0,l),
(409,610,l),
(304,538,l),
(516,0,l),
(684,0,l),
(352,765,l),
(344,765,l),
(12,0,l)
);
},
{
closed = 1;
nodes = (
(194,144,l),
(511,144,l),
(460,266,l),
(239,266,l)
);
}
);
width = 696;
},
{
anchors = (
{
name = bottom;
pos = (353,0);
},
{
name = ogonek;
pos = (627,10);
},
{
name = top;
pos = (353,720);
}
);
layerId = "4C85334C-E1D4-4EB0-A0B2-9D58DDEA71D9";
shapes = (
{
closed = 1;
nodes = (
(100,0,l),
(373,682,l),
(339,663,l),
(600,0,l),
(655,0,l),
(355,741,l),
(351,741,l),
(51,0,l)
);
},
{
closed = 1;
nodes = (
(184,235,l),
(525,235,l),
(511,281,l),
(196,281,l)
);
}
);
width = 706;
},
{
anchors = (
{
name = bottom;
pos = (354.667,0);
},
{
name = ogonek;
pos = (628.667,10);
},
{
name = top;
pos = (354.667,703.333);
}
);
layerId = "93649EC8-ADF5-4C20-AD08-3ED15854CD33";
shapes = (
{
closed = 1;
nodes = (
(83.333,0,l),
(362.167,703.667,l),
(349,700.5,l),
(625,0,l),
(646.667,0,l),
(355.833,733.5,l),
(353.5,733.5,l),
(62.667,0,l)
);
},
{
closed = 1;
nodes = (
(181.5,262.5,l),
(529.167,262.5,l),
(526.833,281,l),
(183.5,281,l)
);
}
);
width = 709;
},
{
anchors = (
{
name = bottom;
pos = (350,0);
},
{
name = ogonek;
pos = (623,10);
},
{
name = top;
pos = (350,752);
}
);
layerId = "3DCE0E54-12D6-4F05-956C-7616B59038AD";
shapes = (
{
closed = 1;
nodes = (
(132,0,l),
(394,640,l),
(319,591,l),
(551,0,l),
(672,0,l),
(353,755,l),
(347,755,l),
(28,0,l)
);
},
{
closed = 1;
nodes = (
(190,182,l),
(517,182,l),
(481,272,l),
(221,272,l)
);
}
);
width = 700;
}
);
unicode = 65;
}
{
glyphname = B;
kernRight = B;
layers = (
{
anchors = (
{
name = bottom;
pos = (336,0);
},
{
name = top;
pos = (336,736);
}
);
layerId = UUID1;
shapes = (
{
closed = 1;
nodes = (
(95,736,l),
(95,0,l),
(340,0,l),
(471,0,o),
(597,57,o),
(597,217,c),
(597,346,o),
(464,425,o),
(283,425,c),
(306,347,l),
(453,347,o),
(562,415,o),
(562,551,c),
(562,673,o),
(464,736,o),
(311,736,c)
);
},
{
closed = 1;
nodes = (
(240,435,l),
(240,596,l),
(318,596,l),
(375,596,o),
(412,571,o),
(412,520,c),
(412,476,o),
(385,435,o),
(328,435,c)
);
},
{
closed = 1;
nodes = (
(240,135,l),
(240,295,l),
(323,295,l),
(385,295,o),
(447,280,o),
(447,217,c),
(447,160,o),
(397,135,o),
(333,135,c)
);
}
);
width = 647;
},
{
anchors = (
{
name = bottom;
pos = (290,0);
},
{
name = top;
pos = (290,710);
}
);
layerId = "4C85334C-E1D4-4EB0-A0B2-9D58DDEA71D9";
shapes = (
{
closed = 1;
nodes = (
(113,710,l),
(113,0,l),
(298,0,ls),
(414,0,o),
(522,61,o),
(522,189,cs),
(522,295,o),
(430,363,o),
(321,372,c),
(326,348,l),
(432,361,o),
(486,436,o),
(486,530,cs),
(486,656,o),
(407,710,o),
(270,710,cs)
);
},
{
closed = 1;
nodes = (
(162,378,l),
(162,663,l),
(272,663,ls),
(372,663,o),
(436,622,o),
(436,521,cs),
(436,440,o),
(394,378,o),
(293,378,cs)
);
},
{
closed = 1;
nodes = (
(162,45,l),
(162,331,l),
(293,331,ls),
(378,331,o),
(472,290,o),
(472,187,cs),
(472,92,o),
(392,45,o),
(296,45,cs)
);
}
);
width = 590;
},
{
anchors = (
{
name = bottom;
pos = (275.833,0);
},
{
name = top;
pos = (275.833,701.667);
}
);
layerId = "93649EC8-ADF5-4C20-AD08-3ED15854CD33";
shapes = (
{
closed = 1;
nodes = (
(118.833,701.667,l),
(118.833,0,l),
(285.5,0,ls),
(396.5,0,o),
(499.5,61.833,o),
(499.5,180.667,cs),
(499.5,279.167,o),
(420,343.833,o),
(331.833,356.167,c),
(331.833,348.833,l),
(425.333,365.167,o),
(462.667,442.667,o),
(462.667,523.333,cs),
(462.667,651,o),
(390.333,701.667,o),
(257.5,701.667,cs)
);
},
{
closed = 1;
nodes = (
(138.667,360.5,l),
(138.667,683,l),
(258.667,683,ls),
(371.167,683,o),
(442.667,637.833,o),
(442.667,521.833,cs),
(442.667,429.167,o),
(396.5,360.5,o),
(283,360.5,cs)
);
},
{
closed = 1;
nodes = (
(138.667,18.333,l),
(138.667,341.833,l),
(283.833,341.833,ls),
(375.5,341.833,o),
(479.5,292.5,o),
(479.5,177.833,cs),
(479.5,72,o),
(390.333,18.333,o),
(284.333,18.333,cs)
);
}
);
width = 573;
},
{
anchors = (
{
name = bottom;
pos = (317,0);
},
{
name = top;
pos = (317,725);
}
);
layerId = "3DCE0E54-12D6-4F05-956C-7616B59038AD";
shapes = (
{
closed = 1;
nodes = (
(103,725,l),
(103,0,l),
(322,0,l),
(447,0,o),
(566,59,o),
(566,205,c),
(566,325,o),
(450,399,o),
(299,403,c),
(314,347,l),
(444,353,o),
(530,424,o),
(530,542,c),
(530,666,o),
(440,725,o),
(294,725,c)
);
},
{
closed = 1;
nodes = (
(207,411,l),
(207,624,l),
(299,624,l),
(374,624,o),
(422,592,o),
(422,520,c),
(422,461,o),
(389,411,o),
(313,411,c)
);
},
{
closed = 1;
nodes = (
(207,97,l),
(207,310,l),
(310,310,l),
(382,310,o),
(458,284,o),
(458,204,c),
(458,131,o),
(395,97,o),
(317,97,c)
);
}
);
width = 623;
}
);
metricLeft = H;
metricRight = O;
unicode = 66;
}
{
glyphname = C;
kernLeft = O;
layers = (
{
anchors = (
{
name = bottom;
pos = (399,0);
},
{
name = top;
pos = (389,756);
}
);
layerId = UUID1;
shapes = (
{
closed = 1;
nodes = (
(587,191,l),
(558,163,o),
(501,132,o),
(422,132,cs),
(287,132,o),
(201,228,o),
(201,370,cs),
(201,503,o),
(300,604,o),
(413,604,c),
(485,604,o),
(542,569,o),
(575,544,c),
(632,681,l),
(584,711,o),
(506,744,o),
(408,744,cs),
(194,744,o),
(50,586,o),
(50,362,cs),
(50,163,o),
(186,-4,o),
(419,-8,cs),
(532,-10,o),
(622,41,o),
(647,61,c)
);
}
);
width = 697;
},
{
anchors = (
{
name = bottom;
pos = (411,0);
},
{
name = top;
pos = (408,722);
}
);
layerId = "4C85334C-E1D4-4EB0-A0B2-9D58DDEA71D9";
shapes = (
{
closed = 1;
nodes = (
(600,90,l),
(554,61,o),
(496,39,o),
(427,39,cs),
(239,39,o),
(119,180,o),
(119,352,cs),
(119,530,o),
(258,671,o),
(427,671,cs),
(492,671,o),
(552,648,o),
(599,619,c),
(620,664,l),
(567,696,o),
(501,718,o),
(426,718,cs),
(224,718,o),
(68,559,o),
(68,350,cs),
(68,156,o),
(209,-7,o),
(426,-8,cs),
(509,-9,o),
(577,19,o),
(623,47,c)
);
}
);
width = 691;
},
{
anchors = (
{
name = bottom;
pos = (414.333,0);
},
{
name = top;
pos = (413.833,712);
}
);
layerId = "93649EC8-ADF5-4C20-AD08-3ED15854CD33";
shapes = (
{
closed = 1;
nodes = (
(604.167,60,l),
(553.167,30.167,o),
(494.333,10.667,o),
(428.667,10.667,cs),
(224.833,10.667,o),
(94,165.833,o),
(94,346.167,cs),
(94,538.333,o),
(245.5,691,o),
(431.167,691,cs),
(494.5,691,o),
(555.333,672.167,o),
(605.667,641.5,c),
(615.833,659,l),
(562,691,o),
(499.333,709.667,o),
(431,709.667,cs),
(233.167,709.667,o),
(73.833,550.667,o),
(73.833,346.667,cs),
(73.833,154.333,o),
(215.667,-7.833,o),
(428.5,-8,cs),
(502.333,-8.167,o),
(563.667,12.333,o),
(615.5,42.833,c)
);
}
);
width = 690;
},
{
anchors = (
{
name = bottom;
pos = (404,0);
},
{
name = top;
pos = (397,742);
}
);
layerId = "3DCE0E54-12D6-4F05-956C-7616B59038AD";
shapes = (
{
closed = 1;
nodes = (
(592,149,l),
(556,120,o),
(499,93,o),
(424,93,cs),
(267,93,o),
(167,208,o),
(167,362,cs),
(167,514,o),
(282,632,o),
(419,632,c),
(488,632,o),
(546,602,o),
(585,576,c),
(627,674,l),
(577,705,o),
(504,733,o),
(416,733,cs),
(207,733,o),
(58,575,o),
(58,357,cs),
(58,160,o),
(196,-5,o),
(422,-8,cs),
(522,-10,o),
(603,32,o),
(637,55,c)
);
}
);
width = 694;
}
);
metricLeft = O;
metricRight = O;
unicode = 67;
}
{
glyphname = D;
kernRight = O;
layers = (
{
anchors = (
{
name = bottom;
pos = (398,0);
},
{
name = center;
pos = (167,368);
},
{
name = top;
pos = (318,736);
}
);
layerId = UUID1;
shapes = (
{
closed = 1;
nodes = (
(351,0,l),
(551,0,o),
(721,136,o),
(721,355,c),
(721,540,o),
(612,736,o),
(315,736,c),
(95,736,l),
(95,0,l)
);
},
{
closed = 1;
nodes = (
(240,597,l),
(358,597,l),
(425,597,o),
(571,557,o),
(571,365,c),
(571,217,o),
(473,140,o),
(326,140,c),
(240,140,l)
);
}
);
width = 771;
},
{
anchors = (
{
name = bottom;
pos = (363,0);
},
{
name = center;
pos = (136,355);
},
{
name = top;
pos = (297,710);
}
);
layerId = "4C85334C-E1D4-4EB0-A0B2-9D58DDEA71D9";
shapes = (
{
closed = 1;
nodes = (
(322,0,ls),
(505,0,o),
(668,136,o),
(668,351,cs),
(668,516,o),
(563,710,o),
(288,710,cs),
(113,710,l),
(113,0,l)
);
},
{
closed = 1;
nodes = (
(162,662,l),
(295,662,ls),
(507,662,o),
(618,516,o),
(618,354,cs),
(618,163,o),
(480,47,o),
(309,47,c),
(162,47,l)
);
}
);
width = 736;
},
{
anchors = (
{
name = bottom;
pos = (352.167,0);
},
{
name = center;
pos = (126.833,350.833);
},
{
name = top;
pos = (291.167,701.667);
}
);
layerId = "93649EC8-ADF5-4C20-AD08-3ED15854CD33";
shapes = (
{
closed = 1;
nodes = (
(312.833,0,ls),
(490.833,0,o),
(652.167,136,o),
(652.167,350.167,cs),
(652.167,509.333,o),
(548,701.667,o),
(279.667,701.667,cs),
(118.833,701.667,l),
(118.833,0,l)
);
},
{
closed = 1;
nodes = (
(138.667,682,l),
(275.833,682,ls),
(532,682,o),
(632.167,503.5,o),
(632.167,350.667,cs),
(632.167,147.167,o),
(482.5,18.667,o),
(304,18.667,c),
(138.667,18.667,l)
);
}
);
width = 726;
},
{
anchors = (
{
name = bottom;
pos = (383,0);
},
{
name = center;
pos = (154,363);
},
{
name = top;
pos = (309,725);
}
);
layerId = "3DCE0E54-12D6-4F05-956C-7616B59038AD";
shapes = (
{
closed = 1;
nodes = (
(339,0,l),
(532,0,o),
(699,136,o),
(699,353,c),
(699,530,o),
(591,725,o),
(304,725,c),
(103,725,l),
(103,0,l)
);
},
{
closed = 1;
nodes = (
(207,624,l),
(332,624,l),
(459,624,o),
(591,540,o),
(591,360,c),
(591,194,o),
(476,101,o),
(319,101,c),
(207,101,l)
);
}
);
width = 757;
}
);
metricLeft = H;
metricRight = O;
unicode = 68;
}
{
glyphname = E;
layers = (
{
anchors = (
{
name = bottom;
pos = (346,0);
},
{
name = ogonek;
pos = (547,10);
},
{
name = top;
pos = (346,756);
},
{
name = topleft;
pos = (45,736);
}
);
layerId = UUID1;
shapes = (
{
closed = 1;
nodes = (
(95,0,l),
(611,0,l),
(611,140,l),
(240,140,l),
(240,299,l),
(556,299,l),
(556,439,l),
(240,439,l),
(240,596,l),
(597,596,l),
(597,736,l),
(95,736,l)
);
}
);
width = 666;
},
{
anchors = (
{
name = bottom;
pos = (323,0);
},
{
name = ogonek;
pos = (536,10);
},
{
name = top;
pos = (323,715);
},
{
name = topleft;
pos = (12,710);
}
);
layerId = "4C85334C-E1D4-4EB0-A0B2-9D58DDEA71D9";
shapes = (
{
closed = 1;
nodes = (
(113,0,l),
(565,0,l),
(565,47,l),
(162,47,l),
(162,334,l),
(512,334,l),
(512,381,l),
(162,381,l),
(162,663,l),
(551,663,l),
(551,710,l),
(113,710,l)
);
}
);
width = 639;
},
{
anchors = (
{
name = bottom;
pos = (316.333,0);
},
{
name = ogonek;
pos = (532.667,10);
},
{
name = top;
pos = (316.333,702.5);
},
{
name = topleft;
pos = (2,701.667);
}
);
layerId = "93649EC8-ADF5-4C20-AD08-3ED15854CD33";
shapes = (
{
closed = 1;
nodes = (
(118.833,0,l),
(551.667,0,l),
(551.667,18.667,l),
(138.667,18.667,l),
(138.667,344.833,l),
(498.667,344.833,l),
(498.667,363.5,l),
(138.667,363.5,l),
(138.667,683,l),
(537.667,683,l),
(537.667,701.667,l),
(118.833,701.667,l)
);
}
);
width = 631;
},
{
anchors = (
{
name = bottom;
pos = (336,0);
},
{
name = ogonek;
pos = (542,10);
},
{
name = top;
pos = (336,739);
},
{
name = topleft;
pos = (31,725);
}
);
layerId = "3DCE0E54-12D6-4F05-956C-7616B59038AD";
shapes = (
{
closed = 1;
nodes = (
(103,0,l),
(592,0,l),
(592,101,l),
(207,101,l),
(207,314,l),
(538,314,l),
(538,415,l),
(207,415,l),
(207,624,l),
(578,624,l),
(578,725,l),
(103,725,l)
);
}
);
width = 655;
}
);
metricLeft = H;
unicode = 69;
}
{
glyphname = F;
kernRight = F;
layers = (
{
anchors = (
{
name = bottom;
pos = (313,0);
},
{
name = top;
pos = (313,736);
}
);
layerId = UUID1;
shapes = (
{
closed = 1;
nodes = (
(95,0,l),
(240,0,l),
(240,289,l),
(513,289,l),
(513,429,l),
(240,429,l),
(240,596,l),
(555,596,l),
(555,736,l),
(95,736,l)
);
}
);
width = 600;
},
{
anchors = (
{
name = bottom;
pos = (295,0);
},
{
name = top;
pos = (295,710);
}
);
layerId = "4C85334C-E1D4-4EB0-A0B2-9D58DDEA71D9";
shapes = (
{
closed = 1;
nodes = (
(113,0,l),
(162,0,l),
(162,324,l),
(471,324,l),
(471,370,l),
(162,370,l),
(162,663,l),
(511,663,l),
(511,710,l),
(113,710,l)
);
}
);
width = 578;
},
{
anchors = (
{
name = bottom;
pos = (289.167,0);
},
{
name = top;
pos = (289.167,701.667);
}
);
layerId = "93649EC8-ADF5-4C20-AD08-3ED15854CD33";
shapes = (
{
closed = 1;
nodes = (
(118.833,0,l),
(138.667,0,l),
(138.667,334,l),
(458.5,334,l),
(458.5,352.5,l),
(138.667,352.5,l),
(138.667,683,l),
(497.667,683,l),
(497.667,701.667,l),
(118.833,701.667,l)
);
}
);
width = 571;
},
{
anchors = (
{
name = bottom;
pos = (305,0);
},
{
name = top;
pos = (305,725);
}
);
layerId = "3DCE0E54-12D6-4F05-956C-7616B59038AD";
shapes = (
{
closed = 1;
nodes = (
(103,0,l),
(207,0,l),
(207,304,l),
(495,304,l),
(495,404,l),
(207,404,l),
(207,624,l),
(537,624,l),
(537,725,l),
(103,725,l)
);
}
);
width = 591;
}
);
metricLeft = H;
unicode = 70;
}
{
glyphname = G;
kernLeft = O;
layers = (
{
anchors = (
{
name = bottom;
pos = (381,0);
},
{
name = top;
pos = (411,736);
}
);
layerId = UUID1;
shapes = (
{
closed = 1;
nodes = (
(692,385,l),
(418,385,l),
(418,245,l),
(545,245,l),
(545,156,l),
(521,142,o),
(485,137,o),
(444,137,c),
(301,137,o),
(200,221,o),
(200,360,c),
(200,518,o),
(288,598,o),
(447,598,c),
(494,598,o),
(574,575,o),
(611,555,c),
(658,690,l),
(603,720,o),
(523,744,o),
(428,744,c),
(227,744,o),
(50,616,o),
(50,347,c),
(50,141,o),
(201,-8,o),
(440,-8,c),
(530,-8,o),
(657,37,o),
(692,74,c)
);
}
);
width = 762;
},
{
anchors = (
{
name = bottom;
pos = (388,0);
},
{
name = top;
pos = (403,710);
}
);
layerId = "4C85334C-E1D4-4EB0-A0B2-9D58DDEA71D9";
shapes = (
{
closed = 1;
nodes = (
(649,323,l),
(440,323,l),
(440,276,l),
(600,276,l),
(600,79,l),
(556,54,o),
(489,40,o),
(433,40,cs),
(243,40,o),
(118,175,o),
(118,351,cs),
(118,533,o),
(255,669,o),
(436,669,cs),
(495,669,o),
(561,650,o),
(608,622,c),
(626,666,l),
(572,698,o),
(505,718,o),
(431,718,cs),
(233,718,o),
(68,565,o),
(68,348,cs),
(68,149,o),
(211,-8,o),
(434,-8,cs),
(507,-8,o),
(601,18,o),
(649,50,c)
);
}
);
width = 741;
},
{
anchors = (
{
name = bottom;
pos = (389.667,0);
},
{
name = top;
pos = (400.5,701.667);
}
);
layerId = "93649EC8-ADF5-4C20-AD08-3ED15854CD33";
shapes = (
{
closed = 1;
nodes = (
(636.5,303.833,l),
(446.667,303.833,l),
(446.667,285.167,l),
(616.667,285.167,l),
(616.667,55.667,l),
(566.833,27.333,o),
(490.667,10.833,o),
(429.667,10.833,cs),
(225.5,10.833,o),
(93.833,161.667,o),
(93.833,348.5,cs),
(93.833,537.167,o),
(245,690.667,o),
(432.667,690.667,cs),
(495,690.667,o),
(556.833,672.5,o),
(607.167,642,c),
(616.833,659.333,l),
(562.833,691.333,o),
(500,709.667,o),
(431.833,709.667,cs),
(234.667,709.667,o),
(73.833,550,o),
(73.833,348.833,cs),
(73.833,151.5,o),
(214.333,-8,o),
(432.333,-8,cs),
(500.333,-8,o),
(584.333,12.167,o),
(636.5,43.333,c)
);
}
);
width = 735;
},
{
anchors = (
{
name = bottom;
pos = (384,0);
},
{
name = top;
pos = (408,725);
}
);
layerId = "3DCE0E54-12D6-4F05-956C-7616B59038AD";
shapes = (
{
closed = 1;
nodes = (
(674,359,l),
(427,359,l),
(427,258,l),
(568,258,l),
(568,124,l),
(536,105,o),
(487,96,o),
(439,96,c),
(277,96,o),
(166,202,o),
(166,356,c),
(166,524,o),
(274,628,o),
(442,628,c),
(494,628,o),
(569,607,o),
(610,583,c),
(645,680,l),
(590,711,o),
(515,733,o),
(429,733,c),
(230,733,o),
(58,595,o),
(58,347,c),
(58,144,o),
(205,-8,o),
(437,-8,c),
(520,-8,o),
(633,29,o),
(674,64,c)
);
}
);
width = 753;
}
);
metricLeft = O;
unicode = 71;
}
{
glyphname = H;
layers = (
{
anchors = (
{
name = bottom;
pos = (405,0);
},
{
name = center;
pos = (405,368);
},
{
name = top;
pos = (405,736);
},
{
name = topleft;
pos = (45,736);
}
);
layerId = UUID1;
shapes = (
{
closed = 1;
nodes = (
(569,736,l),
(569,439,l),
(240,439,l),
(240,736,l),
(95,736,l),
(95,0,l),
(240,0,l),
(240,299,l),
(569,299,l),
(569,0,l),
(714,0,l),
(714,736,l)
);
}
);
width = 809;
},
{
anchors = (
{
name = bottom;
pos = (376,0);
},
{
name = center;
pos = (376,355);
},
{
name = top;
pos = (376,710);
},
{
name = topleft;
pos = (12,710);
}
);
layerId = "4C85334C-E1D4-4EB0-A0B2-9D58DDEA71D9";
shapes = (
{
closed = 1;
nodes = (
(590,710,l),
(590,380,l),
(162,380,l),
(162,710,l),
(113,710,l),
(113,0,l),
(162,0,l),
(162,334,l),
(590,334,l),
(590,0,l),
(639,0,l),
(639,710,l)
);
}
);
width = 752;
},
{
anchors = (
{
name = bottom;
pos = (367.667,0);
},
{
name = center;
pos = (367.667,350.833);
},
{
name = top;
pos = (367.667,701.667);
},
{
name = topleft;
pos = (2,701.667);
}
);
layerId = "93649EC8-ADF5-4C20-AD08-3ED15854CD33";
shapes = (
{
closed = 1;
nodes = (
(596.667,701.667,l),
(596.667,362.5,l),
(138.667,362.5,l),
(138.667,701.667,l),
(118.833,701.667,l),
(118.833,0,l),
(138.667,0,l),
(138.667,344,l),
(596.667,344,l),
(596.667,0,l),
(616.5,0,l),
(616.5,701.667,l)
);
}
);
width = 735;
},
{
anchors = (
{
name = bottom;
pos = (393,0);
},
{
name = center;
pos = (393,363);
},
{
name = top;
pos = (393,725);
},
{
name = topleft;
pos = (31,725);
}
);
layerId = "3DCE0E54-12D6-4F05-956C-7616B59038AD";
shapes = (
{
closed = 1;
nodes = (
(578,725,l),
(578,414,l),
(207,414,l),
(207,725,l),
(103,725,l),
(103,0,l),
(207,0,l),
(207,314,l),
(578,314,l),
(578,0,l),
(683,0,l),
(683,725,l)
);
}
);
width = 785;
}
);
unicode = 72;
}
{
glyphname = I;
layers = (
{
anchors = (
{
name = bottom;
pos = (168,0);
},
{
name = ogonek;
pos = (213,10);
},
{
name = top;
pos = (168,756);
},
{
name = topleft;
pos = (45,736);
}
);
layerId = UUID1;
shapes = (
{
closed = 1;
nodes = (
(95,0,l),
(240,0,l),
(240,736,l),
(95,736,l)
);
}
);
width = 335;
},
{
anchors = (
{
name = bottom;
pos = (138,0);
},
{
name = ogonek;
pos = (142,10);
},
{
name = top;
pos = (138,715);
},
{
name = topleft;
pos = (12,710);
}
);
layerId = "4C85334C-E1D4-4EB0-A0B2-9D58DDEA71D9";
shapes = (
{
closed = 1;
nodes = (
(113,0,l),
(162,0,l),
(162,710,l),
(113,710,l)
);
}
);
width = 275;
},
{
anchors = (
{
name = bottom;
pos = (128.833,0);
},
{
name = ogonek;
pos = (120.333,10);
},
{
name = top;
pos = (128.833,702.5);
},
{
name = topleft;
pos = (2,701.667);
}
);
layerId = "93649EC8-ADF5-4C20-AD08-3ED15854CD33";
shapes = (
{
closed = 1;
nodes = (
(118.833,0,l),
(138.667,0,l),
(138.667,701.667,l),
(118.833,701.667,l)
);
}
);
width = 258;
},
{
anchors = (
{
name = bottom;
pos = (155,0);
},
{
name = ogonek;
pos = (183,10);
},
{
name = top;
pos = (155,739);
},
{
name = topleft;
pos = (31,725);
}
);
layerId = "3DCE0E54-12D6-4F05-956C-7616B59038AD";
shapes = (
{
closed = 1;
nodes = (
(103,0,l),
(207,0,l),
(207,725,l),
(103,725,l)
);
}
);
width = 310;
}
);
metricLeft = H;
metricRight = H;
unicode = 73;
}
{
glyphname = J;
layers = (
{
anchors = (
{
name = bottom;
pos = (168,0);
},
{
name = top;
pos = (238,756);
}
);
layerId = UUID1;
shapes = (
{
closed = 1;
nodes = (
(305,736,l),
(159,736,l),
(159,158,ls),
(159,38,o),
(96,-7,o),
(5,-12,c),
(5,-153,l),
(182,-148,o),
(305,-37,o),
(305,155,cs)
);
}
);
width = 400;
},
{
anchors = (
{
name = bottom;
pos = (168,0);
},
{
name = top;
pos = (187,715);
}
);
layerId = "4C85334C-E1D4-4EB0-A0B2-9D58DDEA71D9";
shapes = (
{
closed = 1;
nodes = (
(217,710,l),
(168,710,l),
(168,110,ls),
(168,-21,o),
(97,-93,o),
(1,-98,c),
(1,-145,l),
(122,-141,o),
(217,-52,o),
(217,107,cs)
);
}
);
width = 330;
},
{
anchors = (
{
name = bottom;
pos = (168,0);
},
{
name = top;
pos = (171.167,702.5);
}
);
layerId = "93649EC8-ADF5-4C20-AD08-3ED15854CD33";
shapes = (
{
closed = 1;
nodes = (
(190.333,701.667,l),
(170.5,701.667,l),
(170.5,95.833,ls),
(170.5,-38.5,o),
(97.833,-118.833,o),
(0.167,-123.833,c),
(0.167,-142.5,l),
(104.5,-138.5,o),
(190.333,-57,o),
(190.333,92.833,cs)
);
}
);
width = 309;
},
{
anchors = (
{
name = bottom;
pos = (168,0);
},
{
name = top;
pos = (217,739);
}
);
layerId = "3DCE0E54-12D6-4F05-956C-7616B59038AD";
shapes = (
{
closed = 1;
nodes = (
(268,725,l),
(163,725,l),
(163,138,ls),
(163,13,o),
(96,-43,o),
(3,-48,c),
(3,-150,l),
(157,-145,o),
(268,-43,o),
(268,135,cs)
);
}
);
width = 371;
}
);
metricRight = H;
unicode = 74;
}
{
glyphname = K;
kernRight = K;
layers = (
{
anchors = (
{
name = bottom;
pos = (330,0);
},
{
name = top;
pos = (380,736);
}
);
layerId = UUID1;
shapes = (
{
closed = 1;
nodes = (
(242,736,l),
(95,736,l),
(95,0,l),
(242,0,l),
(242,278,l),
(278,314,l),
(505,0,l),
(689,0,l),
(384,406,l),
(688,736,l),
(500,736,l),
(260,465,l),
(238,437,l),
(242,474,l)
);
}
);
width = 704;
},
{
anchors = (
{
name = bottom;
pos = (311,0);
},
{
name = top;
pos = (324,710);
}
);
layerId = "4C85334C-E1D4-4EB0-A0B2-9D58DDEA71D9";
shapes = (
{
closed = 1;
nodes = (
(163,710,l),
(113,710,l),
(113,0,l),
(163,0,l),
(162,306,l),
(248,388,l),
(549,0,l),
(611,0,l),
(284,419,l),
(578,710,l),
(515,710,l),
(164,364,l),
(161,355,l),
(163,390,l)
);
}
);
width = 655;
},
{
anchors = (
{
name = bottom;
pos = (305.167,0);
},
{
name = top;
pos = (307.333,701.667);
}
);
layerId = "93649EC8-ADF5-4C20-AD08-3ED15854CD33";
shapes = (
{
closed = 1;
nodes = (
(138.833,701.667,l),
(118.833,701.667,l),
(118.833,0,l),
(138.833,0,l),
(137.833,314.333,l),
(238.833,409.667,l),
(562.333,0,l),
(587.667,0,l),
(254,423.167,l),
(544.667,701.667,l),
(519.167,701.667,l),
(134.833,334,l),
(137.667,330.833,l),
(138.833,365,l)
);
}
);
width = 641;
},
{
anchors = (
{
name = bottom;
pos = (322,0);
},
{
name = top;
pos = (356,725);
}
);
layerId = "3DCE0E54-12D6-4F05-956C-7616B59038AD";
shapes = (
{
closed = 1;
nodes = (
(209,725,l),
(103,725,l),
(103,0,l),
(209,0,l),
(208,290,l),
(265,345,l),
(523,0,l),
(656,0,l),
(342,411,l),
(642,725,l),
(506,725,l),
(220,423,l),
(206,403,l),
(209,439,l)
);
}
);
width = 683;
}
);
metricLeft = H;
unicode = 75;
}
{
glyphname = L;
kernRight = L;
layers = (
{
anchors = (
{
name = bottom;
pos = (328,0);
},
{
name = center;
pos = (328,368);
},
{
name = top;
pos = (165,756);
},
{
name = topright;
pos = (611,736);
}
);
layerId = UUID1;
shapes = (
{
closed = 1;
nodes = (
(95,0,l),
(586,0,l),
(586,140,l),
(240,140,l),
(240,736,l),
(95,736,l)
);
}
);
width = 641;
},
{
anchors = (
{
name = bottom;
pos = (315,0);
},
{
name = center;
pos = (315,355);
},
{
name = top;
pos = (137,715);
},
{
name = topright;
pos = (617,710);
}
);
layerId = "4C85334C-E1D4-4EB0-A0B2-9D58DDEA71D9";
shapes = (
{
closed = 1;
nodes = (
(113,0,l),
(551,0,l),
(551,47,l),
(162,47,l),
(162,710,l),
(113,710,l)
);
}
);
width = 603;
},
{
anchors = (
{
name = bottom;
pos = (310.833,0);
},
{
name = center;
pos = (310.833,350.833);
},
{
name = top;
pos = (128.667,702.5);
},
{
name = topright;
pos = (618.667,701.667);
}
);
layerId = "93649EC8-ADF5-4C20-AD08-3ED15854CD33";
shapes = (
{
closed = 1;
nodes = (
(118.833,0,l),
(541,0,l),
(541,18.667,l),
(138.667,18.667,l),
(138.667,701.667,l),
(118.833,701.667,l)
);
}
);
width = 591;
},
{
anchors = (
{
name = bottom;
pos = (323,0);
},
{
name = center;
pos = (323,363);
},
{
name = top;
pos = (153,739);
},
{
name = topright;
pos = (614,725);
}
);
layerId = "3DCE0E54-12D6-4F05-956C-7616B59038AD";
shapes = (
{
closed = 1;
nodes = (
(103,0,l),
(571,0,l),
(571,101,l),
(207,101,l),
(207,725,l),
(103,725,l)
);
}
);
width = 625;
}
);
metricLeft = H;
unicode = 76;
}
{
glyphname = M;
layers = (
{
anchors = (
{
name = bottom;
pos = (474,0);
},
{
name = top;
pos = (474,736);
}
);
layerId = UUID1;
shapes = (
{
closed = 1;
nodes = (
(235,0,l),
(235,433,l),
(210,364,l),
(466,10,l),
(468,10,l),
(717,364,l),
(708,439,l),
(708,0,l),
(853,0,l),
(853,766,l),
(851,766,l),
(443,200,l),
(505,186,l),
(96,766,l),
(95,766,l),
(95,0,l)
);
}
);
width = 948;
},
{
anchors = (
{
name = bottom;
pos = (453,0);
},
{
name = top;
pos = (453,710);
}
);
layerId = "4C85334C-E1D4-4EB0-A0B2-9D58DDEA71D9";
shapes = (
{
closed = 1;
nodes = (
(161,0,l),
(161,611,l),
(153,589,l),
(451,172,l),
(453,172,l),
(749,589,l),
(745,613,l),
(745,0,l),
(793,0,l),
(793,726,l),
(792,726,l),
(443,232,l),
(464,229,l),
(114,726,l),
(113,726,l),
(113,0,l)
);
}
);
width = 906;
},
{
anchors = (
{
name = bottom;
pos = (447.167,0);
},
{
name = top;
pos = (447.167,701.667);
}
);
layerId = "93649EC8-ADF5-4C20-AD08-3ED15854CD33";
shapes = (
{
closed = 1;
nodes = (
(138.5,0,l),
(138.5,664.333,l),
(135.5,656.5,l),
(446,220.333,l),
(448,220.333,l),
(758.167,656.5,l),
(755.833,664.667,l),
(755.833,0,l),
(775.5,0,l),
(775.5,713.5,l),
(774.5,713.5,l),
(443,242,l),
(451.5,241.5,l),
(119.833,713.5,l),
(118.833,713.5,l),
(118.833,0,l)
);
}
);
width = 894;
},
{
anchors = (
{
name = bottom;
pos = (465,0);
},
{
name = top;
pos = (465,725);
}
);
layerId = "3DCE0E54-12D6-4F05-956C-7616B59038AD";
shapes = (
{
closed = 1;
nodes = (
(204,0,l),
(204,508,l),
(186,459,l),
(460,78,l),
(462,78,l),
(730,459,l),
(724,512,l),
(724,0,l),
(828,0,l),
(828,749,l),
(826,749,l),
(443,213,l),
(488,204,l),
(104,749,l),
(103,749,l),
(103,0,l)
);
}
);
width = 930;
}
);
metricLeft = H;
metricRight = H;
unicode = 77;
}
{
glyphname = N;
layers = (
{
anchors = (
{
name = bottom;
pos = (427,0);
},
{
name = top;
pos = (407,736);
}
);
layerId = UUID1;
shapes = (
{
closed = 1;
nodes = (
(758,-30,l),
(758,736,l),
(612,736,l),
(615,277,l),
(647,263,l),
(101,765,l),
(95,765,l),
(95,0,l),
(242,0,l),
(239,450,l),
(196,474,l),
(754,-30,l)
);
}
);
width = 853;
},
{
anchors = (
{
name = bottom;
pos = (412,0);
},
{
name = top;
pos = (406,710);
}
);
layerId = "4C85334C-E1D4-4EB0-A0B2-9D58DDEA71D9";
shapes = (
{
closed = 1;
nodes = (
(709,-17,l),
(709,710,l),
(662,710,l),
(663,85,l),
(676,89,l),
(116,725,l),
(113,725,l),
(113,0,l),
(161,0,l),
(160,624,l),
(147,614,l),
(707,-17,l)
);
}
);
width = 822;
},
{
anchors = (
{
name = bottom;
pos = (407,0);
},
{
name = top;
pos = (406,701.667);
}
);
layerId = "93649EC8-ADF5-4C20-AD08-3ED15854CD33";
shapes = (
{
closed = 1;
nodes = (
(694,-12.833,l),
(694,701.667,l),
(674.5,701.667,l),
(674.667,27.5,l),
(685.167,26.5,l),
(120.167,713.333,l),
(118.833,713.333,l),
(118.833,0,l),
(138.5,0,l),
(138.333,675.667,l),
(132.833,665.667,l),
(692.833,-12.833,l)
);
}
);
width = 813;
},
{
anchors = (
{
name = bottom;
pos = (421,0);
},
{
name = top;
pos = (407,725);
}
);
layerId = "3DCE0E54-12D6-4F05-956C-7616B59038AD";
shapes = (
{
closed = 1;
nodes = (
(737,-25,l),
(737,725,l),
(633,725,l),
(635,196,l),
(659,190,l),
(107,748,l),
(103,748,l),
(103,0,l),
(208,0,l),
(206,523,l),
(175,533,l),
(734,-25,l)
);
}
);
width = 840;
}
);
metricLeft = H;
metricRight = H;
unicode = 78;
}
{
glyphname = O;
kernLeft = O;
kernRight = O;
layers = (
{
anchors = (
{
name = bottom;
pos = (426,0);
},
{
name = center;
pos = (426,368);
},
{
name = ogonek;
pos = (597,10);
},
{
name = top;
pos = (426,746);
},
{
name = topleft;
pos = (20,736);
},
{
name = topright;
pos = (503,840);
}
);
annotations = (
{
pos = (300.18,381.51);
type = Text;
}
);
layerId = UUID1;
shapes = (
{
closed = 1;
nodes = (
(50,159,o),
(218,-8,o),
(425,-8,c),
(630,-8,o),
(802,160,o),
(802,367,c),
(802,570,o),
(630,744,o),
(425,744,c),
(218,744,o),
(50,570,o),
(50,367,c)
);
},
{
closed = 1;
nodes = (
(200,500,o),
(298,604,o),
(426,604,c),
(553,604,o),
(652,500,o),
(652,367,c),
(652,236,o),
(556,132,o),
(430,132,c),
(300,132,o),
(200,237,o),
(200,367,c)
);
}
);
width = 852;
},
{
anchors = (
{
name = bottom;
pos = (431,0);
},
{
name = center;
pos = (431,355);
},
{
name = ogonek;
pos = (544,10);
},
{
name = top;
pos = (431,712);
},
{
name = topleft;
pos = (24,710);
},
{
name = topright;
pos = (523,829);
}
);
layerId = "4C85334C-E1D4-4EB0-A0B2-9D58DDEA71D9";
shapes = (
{
closed = 1;
nodes = (
(68,146,o),
(231,-8,o),
(430,-8,cs),
(630,-8,o),
(794,154,o),
(794,354,cs),
(794,553,o),
(630,718,o),
(430,718,cs),
(231,718,o),
(68,553,o),
(68,354,c)
);
},
{
closed = 1;
nodes = (
(118,524,o),
(253,671,o),
(430,671,cs),
(603,671,o),
(744,528,o),
(744,354,cs),
(744,179,o),
(604,39,o),
(429,39,cs),
(257,39,o),
(118,180,o),
(118,353,c)
);
}
);
width = 862;
},
{
anchors = (
{
name = bottom;
pos = (432.667,0);
},
{
name = center;
pos = (432.667,350.833);
},
{
name = ogonek;
pos = (528.167,10);
},
{
name = top;
pos = (432.667,702);
},
{
name = topleft;
pos = (24.833,701.667);
},
{
name = topright;
pos = (528.833,825.667);
}
);
layerId = "93649EC8-ADF5-4C20-AD08-3ED15854CD33";
shapes = (
{
closed = 1;
nodes = (
(73.833,141.833,o),
(234.333,-8,o),
(431.667,-8,cs),
(630,-8,o),
(791.5,152.333,o),
(791.5,349.833,cs),
(791.5,548,o),
(630,709.667,o),
(431.667,709.667,cs),
(234.333,709.667,o),
(73.833,548,o),
(73.833,349.833,c)
);
},
{
closed = 1;
nodes = (
(93.833,530.667,o),
(239.667,691,o),
(431.667,691,cs),
(618,691,o),
(771.5,536.333,o),
(771.5,349.833,cs),
(771.5,161.5,o),
(618.167,10.667,o),
(429,10.667,cs),
(244.5,10.667,o),
(93.833,162.5,o),
(93.833,348.833,c)
);
}
);
width = 866;
},
{
anchors = (
{
name = bottom;
pos = (428,0);
},
{
name = center;
pos = (428,363);
},
{
name = ogonek;
pos = (575,10);
},
{
name = top;
pos = (428,732);
},
{
name = topleft;
pos = (22,725);
},
{
name = topright;
pos = (511,835);
}
);
layerId = "3DCE0E54-12D6-4F05-956C-7616B59038AD";
shapes = (
{
closed = 1;
nodes = (
(58,154,o),
(223,-8,o),
(427,-8,c),
(630,-8,o),
(799,157,o),
(799,362,c),
(799,563,o),
(630,733,o),
(427,733,c),
(223,733,o),
(58,563,o),
(58,362,c)
);
},
{
closed = 1;
nodes = (
(166,510,o),
(279,632,o),
(428,632,c),
(574,632,o),
(691,512,o),
(691,362,c),
(691,212,o),
(576,93,o),
(430,93,c),
(282,93,o),
(166,213,o),
(166,361,c)
);
}
);
width = 857;
}
);
unicode = 79;
}
{
glyphname = P;
kernRight = P;
layers = (
{
anchors = (
{
name = bottom;
pos = (331,0);
},
{
name = top;
pos = (331,736);
}
);
layerId = UUID1;
shapes = (
{
closed = 1;
nodes = (
(95,736,l),
(95,0,l),
(240,0,l),
(240,233,l),
(344,233,ls),
(536,233,o),
(601,367,o),
(601,488,cs),
(601,639,o),
(500,736,o),
(318,736,cs)
);
},
{
closed = 1;
nodes = (
(240,374,l),
(240,596,l),
(344,596,ls),
(446,596,o),
(456,513,o),
(456,484,cs),
(456,446,o),
(431,374,o),
(343,374,cs)
);
}
);
width = 636;
},
{
anchors = (
{
name = bottom;
pos = (275,0);
},
{
name = top;
pos = (275,710);
}
);
layerId = "4C85334C-E1D4-4EB0-A0B2-9D58DDEA71D9";
shapes = (
{
closed = 1;
nodes = (
(113,710,l),
(113,0,l),
(162,0,l),
(162,298,l),
(272,298,ls),
(432,298,o),
(497,403,o),
(497,509,cs),
(497,643,o),
(408,710,o),
(277,710,cs)
);
},
{
closed = 1;
nodes = (
(162,345,l),
(162,663,l),
(282,663,ls),
(389,663,o),
(449,599,o),
(449,509,cs),
(449,446,o),
(411,345,o),
(272,345,cs)
);
}
);
width = 554;
},
{
anchors = (
{
name = bottom;
pos = (258.333,0);
},
{
name = top;
pos = (258.333,701.667);
}
);
layerId = "93649EC8-ADF5-4C20-AD08-3ED15854CD33";
shapes = (
{
closed = 1;
nodes = (
(118.833,701.667,l),
(118.833,0,l),
(138.667,0,l),
(138.667,317.167,l),
(250.333,317.167,ls),
(401.167,317.167,o),
(466.167,413.833,o),
(466.167,514.833,cs),
(466.167,643.833,o),
(380.5,701.667,o),
(264.5,701.667,cs)
);
},
{
closed = 1;
nodes = (
(138.667,335.833,l),
(138.667,683,l),
(263.667,683,ls),
(372.333,683,o),
(446.5,624.833,o),
(446.5,516.5,cs),
(446.5,446,o),
(405.167,335.833,o),
(250.333,335.833,cs)
);
}
);
width = 530;
},
{
anchors = (
{
name = bottom;
pos = (307,0);
},
{
name = top;
pos = (307,725);
}
);
layerId = "3DCE0E54-12D6-4F05-956C-7616B59038AD";
shapes = (
{
closed = 1;
nodes = (
(103,725,l),
(103,0,l),
(207,0,l),
(207,260,l),
(314,260,ls),
(492,260,o),
(557,382,o),
(557,497,cs),
(557,641,o),
(461,725,o),
(301,725,cs)
);
},
{
closed = 1;
nodes = (
(207,362,l),
(207,624,l),
(318,624,ls),
(422,624,o),
(453,549,o),
(453,495,cs),
(453,446,o),
(423,362,o),
(313,362,cs)
);
}
);
width = 602;
}
);
metricLeft = H;
unicode = 80;
}
{
glyphname = Q;
kernLeft = O;
layers = (
{
anchors = (
{
name = bottom;
pos = (435,0);
},
{
name = top;
pos = (435,736);
}
);
layerId = UUID1;
shapes = (
{
closed = 1;
nodes = (
(425,0,l),
(843,0,l),
(843,142,l),
(615,142,l)
);
},
{
closed = 1;
nodes = (
(50,160,o),
(218,-8,o),
(425,-8,c),
(630,-8,o),
(802,160,o),
(802,367,c),
(802,570,o),
(630,744,o),
(425,744,c),
(218,744,o),
(50,570,o),
(50,367,c)
);
},
{
closed = 1;
nodes = (
(200,496,o),
(298,600,o),
(426,600,c),
(553,600,o),
(652,496,o),
(652,367,c),
(652,237,o),
(556,133,o),
(430,133,c),
(300,133,o),
(200,238,o),
(200,367,c)
);
}
);
width = 893;
},
{
anchors = (
{
name = bottom;
pos = (438,0);
},
{
name = top;
pos = (438,710);
}
);
layerId = "4C85334C-E1D4-4EB0-A0B2-9D58DDEA71D9";
shapes = (
{
closed = 1;
nodes = (
(477,0,l),
(814,0,l),
(814,47,l),
(546,47,l)
);
},
{
closed = 1;
nodes = (
(68,146,o),
(231,-8,o),
(430,-8,cs),
(630,-8,o),
(794,154,o),
(794,354,cs),
(794,553,o),
(630,718,o),
(430,718,cs),
(231,718,o),
(68,553,o),
(68,354,c)
);
},
{
closed = 1;
nodes = (
(118,522,o),
(253,670,o),
(430,670,cs),
(603,670,o),
(744,527,o),
(744,354,cs),
(744,179,o),
(604,39,o),
(429,39,cs),
(257,39,o),
(118,180,o),
(118,353,c)
);
}
);
width = 882;
},
{
anchors = (
{
name = bottom;
pos = (438.833,0);
},
{
name = top;
pos = (438.833,701.667);
}
);
layerId = "93649EC8-ADF5-4C20-AD08-3ED15854CD33";
shapes = (
{
closed = 1;
nodes = (
(492.833,0,l),
(804.833,0,l),
(804.833,18.667,l),
(525.167,18.667,l)
);
},
{
closed = 1;
nodes = (
(73.833,141.833,o),
(234.333,-8,o),
(431.667,-8,cs),
(630,-8,o),
(791.5,152.333,o),
(791.5,349.833,cs),
(791.5,548,o),
(630,709.667,o),
(431.667,709.667,cs),
(234.333,709.667,o),
(73.833,548,o),
(73.833,349.833,c)
);
},
{
closed = 1;
nodes = (
(93.833,530.333,o),
(239.667,690.833,o),
(431.667,690.833,cs),
(618,690.833,o),
(771.5,536.167,o),
(771.5,349.833,cs),
(771.5,161.5,o),
(618.167,10.667,o),
(429,10.667,cs),
(244.5,10.667,o),
(93.833,162.5,o),
(93.833,348.833,c)
);
}
);
width = 879;
},
{
anchors = (
{
name = bottom;
pos = (436,0);
},
{
name = top;
pos = (436,725);
}
);
layerId = "3DCE0E54-12D6-4F05-956C-7616B59038AD";
shapes = (
{
closed = 1;
nodes = (
(447,0,l),
(831,0,l),
(831,102,l),
(586,102,l)
);
},
{
closed = 1;
nodes = (
(58,154,o),
(223,-8,o),
(427,-8,c),
(630,-8,o),
(799,157,o),
(799,362,c),
(799,563,o),
(630,733,o),
(427,733,c),
(223,733,o),
(58,563,o),
(58,362,c)
);
},
{
closed = 1;
nodes = (
(166,507,o),
(279,629,o),
(428,629,c),
(574,629,o),
(691,509,o),
(691,362,c),
(691,213,o),
(576,94,o),
(430,94,c),
(282,94,o),
(166,214,o),
(166,361,c)
);
}
);
width = 889;
}
);
metricLeft = O;
metricRight = O;
unicode = 81;
}
{
glyphname = R;
kernRight = R;
layers = (
{
anchors = (
{
name = bottom;
pos = (361,0);
},
{
name = top;
pos = (321,756);
}
);
layerId = UUID1;
shapes = (
{
closed = 1;
nodes = (
(95,736,l),
(95,0,l),
(240,0,l),
(240,234,l),
(344,234,l),
(540,234,o),
(606,367,o),
(606,488,c),
(606,639,o),
(503,736,o),
(318,736,c)
);
},
{
closed = 1;
nodes = (
(240,374,l),
(240,596,l),
(344,596,l),
(446,596,o),
(456,514,o),
(456,483,c),
(456,441,o),
(431,374,o),
(343,374,c)
);
},
{
closed = 1;
nodes = (
(306,280,l),
(492,0,l),
(661,0,l),
(479,284,l)
);
}
);
width = 686;
},
{
anchors = (
{
name = bottom;
pos = (287,0);
},
{
name = top;
pos = (277,715);
}
);
layerId = "4C85334C-E1D4-4EB0-A0B2-9D58DDEA71D9";
shapes = (
{
closed = 1;
nodes = (
(113,710,l),
(113,0,l),
(162,0,l),
(162,298,l),
(272,298,ls),
(439,298,o),
(499,403,o),
(499,509,cs),
(499,650,o),
(381,710,o),
(275,710,cs)
);
},
{
closed = 1;
nodes = (
(162,345,l),
(162,663,l),
(282,663,ls),
(384,663,o),
(449,591,o),
(449,507,cs),
(449,434,o),
(411,345,o),
(269,345,cs)
);
},
{
closed = 1;
nodes = (
(313,322,l),
(511,0,l),
(568,0,l),
(371,323,l)
);
}
);
width = 633;
},
{
anchors = (
{
name = bottom;
pos = (265.333,0);
},
{
name = top;
pos = (263.667,702.5);
}
);
layerId = "93649EC8-ADF5-4C20-AD08-3ED15854CD33";
shapes = (
{
closed = 1;
nodes = (
(118.833,701.667,l),
(118.833,0,l),
(138.667,0,l),
(138.667,317.167,l),
(250.333,317.167,ls),
(409,317.167,o),
(466.5,413.833,o),
(466.5,514.833,cs),
(466.5,653.333,o),
(344.333,701.667,o),
(262.5,701.667,cs)
);
},
{
closed = 1;
nodes = (
(138.667,335.833,l),
(138.667,683,l),
(263.667,683,ls),
(364.833,683,o),
(446.5,614.333,o),
(446.5,513.667,cs),
(446.5,431.5,o),
(405.167,335.833,o),
(247.333,335.833,cs)
);
},
{
closed = 1;
nodes = (
(315.5,334.5,l),
(516.833,0,l),
(539.667,0,l),
(338.5,334.667,l)
);
}
);
width = 617;
},
{
anchors = (
{
name = bottom;
pos = (330,0);
},
{
name = top;
pos = (303,739);
}
);
layerId = "3DCE0E54-12D6-4F05-956C-7616B59038AD";
shapes = (
{
closed = 1;
nodes = (
(103,725,l),
(103,0,l),
(207,0,l),
(207,261,l),
(314,261,l),
(498,261,o),
(561,382,o),
(561,497,c),
(561,644,o),
(452,725,o),
(300,725,c)
);
},
{
closed = 1;
nodes = (
(207,362,l),
(207,624,l),
(318,624,l),
(420,624,o),
(453,546,o),
(453,493,c),
(453,438,o),
(423,362,o),
(312,362,c)
);
},
{
closed = 1;
nodes = (
(309,298,l),
(500,0,l),
(622,0,l),
(434,300,l)
);
}
);
width = 664;
}
);
metricLeft = H;
unicode = 82;
}
{
glyphname = S;
kernRight = S;
layers = (
{
anchors = (
{
name = bottom;
pos = (289,-10);
},
{
name = top;
pos = (289,736);
}
);
layerId = UUID1;
shapes = (
{
closed = 1;
nodes = (
(543,669,l),
(484,708,o),
(418,740,o),
(299,740,c),
(162,733,o),
(70,652,o),
(70,524,c),
(70,383,o),
(188,337,o),
(278,302,cs),
(336,279,o),
(385,247,o),
(385,203,c),
(385,139,o),
(323,120,o),
(271,120,c),
(219,120,o),
(147,146,o),
(96,184,c),
(32,71,l),
(109,16,o),
(200,-8,o),
(284,-8,c),
(448,-8,o),
(536,91,o),
(536,203,c),
(536,343,o),
(447,391,o),
(361,423,cs),
(290,449,o),
(220,483,o),
(220,535,c),
(220,586,o),
(258,611,o),
(321,611,c),
(372,611,o),
(432,589,o),
(488,558,c)
);
}
);
width = 583;
},
{
anchors = (
{
name = bottom;
pos = (291,-3);
},
{
name = top;
pos = (291,724);
}
);
layerId = "4C85334C-E1D4-4EB0-A0B2-9D58DDEA71D9";
shapes = (
{
closed = 1;
nodes = (
(487,668,l),
(436,694,o),
(362,714,o),
(296,714,cs),
(183,712,o),
(98,645,o),
(98,543,cs),
(98,434,o),
(197,395,o),
(289,361,cs),
(376,329,o),
(461,292,o),
(461,191,cs),
(461,85,o),
(370,35,o),
(284,35,cs),
(210,35,o),
(131,73,o),
(88,105,c),
(65,65,l),
(103,40,o),
(183,-8,o),
(289,-8,cs),
(420,-8,o),
(511,73,o),
(511,192,cs),
(511,324,o),
(412,366,o),
(318,401,cs),
(230,434,o),
(148,468,o),
(148,548,cs),
(148,619,o),
(208,671,o),
(302,671,cs),
(362,671,o),
(426,650,o),
(468,630,c)
);
}
);
width = 581;
},
{
anchors = (
{
name = bottom;
pos = (276.833,-0.5);
},
{
name = top;
pos = (276.833,720.667);
}
);
layerId = "93649EC8-ADF5-4C20-AD08-3ED15854CD33";
shapes = (
{
closed = 1;
nodes = (
(455.333,667.167,l),
(406.833,689.833,o),
(331.167,705.667,o),
(280.167,705.667,cs),
(174.667,705.333,o),
(92.167,642.5,o),
(92.167,548.833,cs),
(92.167,449.833,o),
(185.333,412.5,o),
(278.167,378.5,cs),
(373.5,344,o),
(469.333,305.333,o),
(469.333,187.667,cs),
(469.333,68.333,o),
(370,10,o),
(273.167,10,cs),
(192.5,10,o),
(111.833,51.333,o),
(71.333,80.833,c),
(60.833,63.333,l),
(86.333,47.5,o),
(163,-8,o),
(276.5,-8,cs),
(397.5,-8,o),
(489.333,67.167,o),
(489.333,188.667,cs),
(489.333,318.167,o),
(387,358.5,o),
(290.5,394.333,cs),
(197.5,429,o),
(112.167,463.833,o),
(112.167,552.167,cs),
(112.167,629,o),
(178.833,688.5,o),
(282,688.5,cs),
(344.5,688.5,o),
(410.167,668.333,o),
(447.167,651.667,c)
);
}
);
width = 551;
},
{
anchors = (
{
name = bottom;
pos = (290,-7);
},
{
name = top;
pos = (290,731);
}
);
layerId = "3DCE0E54-12D6-4F05-956C-7616B59038AD";
shapes = (
{
closed = 1;
nodes = (
(519,669,l),
(464,702,o),
(394,729,o),
(298,729,c),
(171,724,o),
(82,649,o),
(82,532,c),
(82,404,o),
(192,361,o),
(283,327,cs),
(353,300,o),
(417,266,o),
(417,198,c),
(417,116,o),
(343,84,o),
(276,84,c),
(215,84,o),
(140,115,o),
(93,151,c),
(46,68,l),
(106,26,o),
(193,-8,o),
(286,-8,c),
(436,-8,o),
(526,83,o),
(526,198,c),
(526,335,o),
(432,381,o),
(343,414,cs),
(265,443,o),
(190,477,o),
(190,540,c),
(190,600,o),
(237,636,o),
(313,636,c),
(368,636,o),
(429,615,o),
(480,588,c)
);
}
);
width = 582;
}
);
unicode = 83;
}
{
glyphname = T;
kernLeft = T;
kernRight = T;
layers = (
{
anchors = (
{
name = bottom;
pos = (293,0);
},
{
name = center;
pos = (293,368);
},
{
name = top;
pos = (293,736);
}
);
layerId = UUID1;
shapes = (
{
closed = 1;
nodes = (
(45,596,l),
(217,596,l),
(217,0,l),
(362,0,l),
(362,596,l),
(541,596,l),
(541,736,l),
(45,736,l)
);
}
);
width = 586;
},
{
anchors = (
{
name = bottom;
pos = (289,0);
},
{
name = center;
pos = (289,355);
},
{
name = top;
pos = (289,710);
}
);
layerId = "4C85334C-E1D4-4EB0-A0B2-9D58DDEA71D9";
shapes = (
{
closed = 1;
nodes = (
(56,663,l),
(263,663,l),
(263,0,l),
(312,0,l),
(312,663,l),
(521,663,l),
(521,710,l),
(56,710,l)
);
}
);
width = 577;
},
{
anchors = (
{
name = bottom;
pos = (287.333,0);
},
{
name = center;
pos = (287.333,350.833);
},
{
name = top;
pos = (287.333,701.667);
}
);
layerId = "93649EC8-ADF5-4C20-AD08-3ED15854CD33";
shapes = (
{
closed = 1;
nodes = (
(59.333,683,l),
(277.167,683,l),
(277.167,0,l),
(297,0,l),
(297,683,l),
(515.167,683,l),
(515.167,701.667,l),
(59.333,701.667,l)
);
}
);
width = 575;
},
{
anchors = (
{
name = bottom;
pos = (291,0);
},
{
name = center;
pos = (291,363);
},
{
name = top;
pos = (291,725);
}
);
layerId = "3DCE0E54-12D6-4F05-956C-7616B59038AD";
shapes = (
{
closed = 1;
nodes = (
(50,624,l),
(236,624,l),
(236,0,l),
(341,0,l),
(341,624,l),
(533,624,l),
(533,725,l),
(50,725,l)
);
}
);
width = 582;
}
);
unicode = 84;
}
{
glyphname = U;
kernLeft = U;
kernRight = U;
layers = (
{
anchors = (
{
name = bottom;
pos = (378,0);
},
{
name = ogonek;
pos = (542,10);
},
{
name = top;
pos = (378,756);
},
{
name = topright;
pos = (660,769);
}
);
layerId = UUID1;
shapes = (
{
closed = 1;
nodes = (
(225,736,l),
(80,736,l),
(80,269,ls),
(80,107,o),
(212,-8,o),
(377,-8,cs),
(377,-8,ls),
(543,-8,o),
(676,107,o),
(676,269,cs),
(676,736,l),
(533,736,l),
(533,272,ls),
(533,202,o),
(466,133,o),
(377,133,cs),
(295,133,o),
(225,202,o),
(225,272,cs)
);
}
);
width = 756;
},
{
anchors = (
{
name = bottom;
pos = (354,0);
},
{
name = ogonek;
pos = (480,10);
},
{
name = top;
pos = (354,715);
},
{
name = topright;
pos = (603,810);
}
);
layerId = "4C85334C-E1D4-4EB0-A0B2-9D58DDEA71D9";
shapes = (
{
closed = 1;
nodes = (
(158,710,l),
(109,710,l),
(109,237,ls),
(109,82,o),
(215,-8,o),
(353,-8,cs),
(353,-8,ls),
(491,-8,o),
(598,82,o),
(598,237,cs),
(598,710,l),
(550,710,l),
(550,240,ls),
(550,116,o),
(466,39,o),
(353,39,cs),
(241,39,o),
(158,116,o),
(158,240,cs)
);
}
);
width = 707;
},
{
anchors = (
{
name = bottom;
pos = (346.5,0);
},
{
name = ogonek;
pos = (461.667,10);
},
{
name = top;
pos = (346.5,702.5);
},
{
name = topright;
pos = (586.333,822.5);
}
);
layerId = "93649EC8-ADF5-4C20-AD08-3ED15854CD33";
shapes = (
{
closed = 1;
nodes = (
(138,701.667,l),
(118.167,701.667,l),
(118.167,227.833,ls),
(118.167,74.5,o),
(215.833,-8,o),
(346.333,-8,cs),
(346.333,-8,ls),
(475.167,-8,o),
(574.667,74.5,o),
(574.667,227.833,cs),
(574.667,701.667,l),
(555,701.667,l),
(555,230,ls),
(555,90.167,o),
(466,10.667,o),
(346.333,10.667,cs),
(225.167,10.667,o),
(138,90.167,o),
(138,230,cs)
);
}
);
width = 693;
},
{
anchors = (
{
name = bottom;
pos = (368,0);
},
{
name = ogonek;
pos = (516,10);
},
{
name = top;
pos = (368,739);
},
{
name = topright;
pos = (636,786);
}
);
layerId = "3DCE0E54-12D6-4F05-956C-7616B59038AD";
shapes = (
{
closed = 1;
nodes = (
(197,725,l),
(92,725,l),
(92,256,ls),
(92,97,o),
(213,-8,o),
(367,-8,cs),
(367,-8,ls),
(521,-8,o),
(643,97,o),
(643,256,cs),
(643,725,l),
(540,725,l),
(540,259,ls),
(540,166,o),
(466,94,o),
(367,94,cs),
(272,94,o),
(197,166,o),
(197,259,cs)
);
}
);
width = 735;
}
);
unicode = 85;
}
{
glyphname = V;
kernLeft = V;
kernRight = V;
layers = (
{
anchors = (
{
name = bottom;
pos = (368,0);
},
{
name = top;
pos = (368,736);
}
);
layerId = UUID1;
shapes = (
{
closed = 1;
nodes = (
(32,736,l),
(368,-34,l),
(704,736,l),
(532,736,l),
(337,223,l),
(421,206,l),
(206,736,l)
);
}
);
width = 736;
},
{
anchors = (
{
name = bottom;
pos = (351,0);
},
{
name = top;
pos = (351,710);
}
);
layerId = "4C85334C-E1D4-4EB0-A0B2-9D58DDEA71D9";
shapes = (
{
closed = 1;
nodes = (
(49,710,l),
(351,-33,l),
(653,710,l),
(597,710,l),
(341,49,l),
(368,45,l),
(106,710,l)
);
}
);
width = 702;
},
{
anchors = (
{
name = bottom;
pos = (346,0);
},
{
name = top;
pos = (346,701.667);
}
);
layerId = "93649EC8-ADF5-4C20-AD08-3ED15854CD33";
shapes = (
{
closed = 1;
nodes = (
(54,701.667,l),
(346,-32.167,l),
(638,701.667,l),
(616.167,701.667,l),
(341.833,-2.667,l),
(352.167,-3.333,l),
(76,701.667,l)
);
}
);
width = 692;
},
{
anchors = (
{
name = bottom;
pos = (361,0);
},
{
name = top;
pos = (361,725);
}
);
layerId = "3DCE0E54-12D6-4F05-956C-7616B59038AD";
shapes = (
{
closed = 1;
nodes = (
(39,725,l),
(361,-34,l),
(683,725,l),
(559,725,l),
(339,150,l),
(399,138,l),
(164,725,l)
);
}
);
width = 722;
}
);
unicode = 86;
}
{
glyphname = W;
kernLeft = W;
kernRight = W;
layers = (
{
anchors = (
{
name = bottom;
pos = (512,0);
},
{
name = top;
pos = (512,746);
}
);
layerId = UUID1;
shapes = (
{
closed = 1;
nodes = (
(328,-34,l),
(540,421,l),
(473,620,l),
(336,279,l),
(359,269,l),
(202,731,l),
(32,731,l)
);
},
{
closed = 1;
nodes = (
(707,-32,l),
(991,731,l),
(835,731,l),
(700,288,l),
(726,284,l),
(545,731,l),
(401,731,l)
);
}
);
width = 1023;
},
{
anchors = (
{
name = bottom;
pos = (497,0);
},
{
name = top;
pos = (497,712);
}
);
layerId = "4C85334C-E1D4-4EB0-A0B2-9D58DDEA71D9";
shapes = (
{
closed = 1;
nodes = (
(329,-33,l),
(500,406,l),
(477,469,l),
(329,69,l),
(340,66,l),
(105,708,l),
(49,708,l)
);
},
{
closed = 1;
nodes = (
(659,-32,l),
(944,708,l),
(892,708,l),
(654,70,l),
(669,66,l),
(425,708,l),
(376,708,l)
);
}
);
width = 993;
},
{
anchors = (
{
name = bottom;
pos = (492,0);
},
{
name = top;
pos = (492,702);
}
);
layerId = "93649EC8-ADF5-4C20-AD08-3ED15854CD33";
shapes = (
{
closed = 1;
nodes = (
(329.833,-32.167,l),
(488.333,401,l),
(477.833,424,l),
(327.333,6.5,l),
(334.167,5.167,l),
(75.833,701.333,l),
(54,701.333,l)
);
},
{
closed = 1;
nodes = (
(644.833,-32,l),
(929.833,701.333,l),
(908.667,701.333,l),
(640.667,4.167,l),
(651.5,0.167,l),
(389.167,701.333,l),
(368.5,701.333,l)
);
}
);
width = 984;
},
{
anchors = (
{
name = bottom;
pos = (506,0);
},
{
name = top;
pos = (506,732);
}
);
layerId = "3DCE0E54-12D6-4F05-956C-7616B59038AD";
shapes = (
{
closed = 1;
nodes = (
(328,-34,l),
(523,415,l),
(475,557,l),
(333,191,l),
(351,184,l),
(161,721,l),
(39,721,l)
);
},
{
closed = 1;
nodes = (
(687,-32,l),
(971,721,l),
(859,721,l),
(681,196,l),
(702,192,l),
(495,721,l),
(391,721,l)
);
}
);
width = 1010;
}
);
metricLeft = V;
metricRight = V;
unicode = 87;
}
{
glyphname = X;
kernLeft = X;
layers = (
{
anchors = (
{
name = bottom;
pos = (363,0);
},
{
name = top;
pos = (363,736);
}
);
layerId = UUID1;
shapes = (
{
closed = 1;
nodes = (
(513,0,l),
(700,0,l),
(220,736,l),
(35,736,l)
);
},
{
closed = 1;
nodes = (
(205,0,l),
(355,266,l),
(287,412,l),
(25,0,l)
);
},
{
closed = 1;
nodes = (
(440,341,l),
(693,736,l),
(517,736,l),
(365,466,l)
);
}
);
width = 725;
},
{
anchors = (
{
name = bottom;
pos = (309,0);
},
{
name = top;
pos = (309,710);
}
);
layerId = "4C85334C-E1D4-4EB0-A0B2-9D58DDEA71D9";
shapes = (
{
closed = 1;
nodes = (
(514,0,l),
(576,0,l),
(114,710,l),
(53,710,l)
);
},
{
closed = 1;
nodes = (
(103,0,l),
(309,332,l),
(283,375,l),
(43,0,l)
);
},
{
closed = 1;
nodes = (
(334,352,l),
(563,710,l),
(505,710,l),
(306,391,l)
);
}
);
width = 620;
},
{
anchors = (
{
name = bottom;
pos = (292.333,0);
},
{
name = top;
pos = (292.333,701.667);
}
);
layerId = "93649EC8-ADF5-4C20-AD08-3ED15854CD33";
shapes = (
{
closed = 1;
nodes = (
(514.833,0,l),
(539.333,0,l),
(82.333,701.667,l),
(58.833,701.667,l)
);
},
{
closed = 1;
nodes = (
(72.167,0,l),
(294.833,352,l),
(281.333,364.167,l),
(48.833,0,l)
);
},
{
closed = 1;
nodes = (
(302.333,355.333,l),
(523.833,701.667,l),
(500.833,701.667,l),
(288.5,368.5,l)
);
}
);
width = 588;
},
{
anchors = (
{
name = bottom;
pos = (340,0);
},
{
name = top;
pos = (340,725);
}
);
layerId = "3DCE0E54-12D6-4F05-956C-7616B59038AD";
shapes = (
{
closed = 1;
nodes = (
(513,0,l),
(648,0,l),
(175,725,l),
(43,725,l)
);
},
{
closed = 1;
nodes = (
(162,0,l),
(336,294,l),
(285,396,l),
(33,0,l)
);
},
{
closed = 1;
nodes = (
(395,346,l),
(638,725,l),
(512,725,l),
(340,435,l)
);
}
);
width = 681;
}
);
unicode = 88;
}
{
glyphname = Y;
kernLeft = Y;
kernRight = Y;
layers = (
{
anchors = (
{
name = bottom;
pos = (361,0);
},
{
name = top;
pos = (381,756);
},
{
name = topleft;
pos = (10,736);
}
);
layerId = UUID1;
shapes = (
{
closed = 1;
nodes = (
(286,0,l),
(431,0,l),
(431,229,l),
(707,736,l),
(528,736,l),
(341,351,l),
(384,354,l),
(194,736,l),
(15,736,l),
(286,229,l)
);
}
);
width = 722;
},
{
anchors = (
{
name = bottom;
pos = (331,0);
},
{
name = top;
pos = (336,710);
},
{
name = topleft;
pos = (25,710);
}
);
layerId = "4C85334C-E1D4-4EB0-A0B2-9D58DDEA71D9";
shapes = (
{
closed = 1;
nodes = (
(306,0,l),
(355,0,l),
(355,253,l),
(620,710,l),
(561,710,l),
(323,293,l),
(340,294,l),
(101,710,l),
(41,710,l),
(306,253,l)
);
}
);
width = 661;
},
{
anchors = (
{
name = bottom;
pos = (321.833,0);
},
{
name = top;
pos = (322.667,701.667);
},
{
name = topleft;
pos = (29.167,701.667);
}
);
layerId = "93649EC8-ADF5-4C20-AD08-3ED15854CD33";
shapes = (
{
closed = 1;
nodes = (
(311.833,0,l),
(331.667,0,l),
(331.667,260.5,l),
(594.167,701.667,l),
(571,701.667,l),
(318,275.5,l),
(326.667,276.5,l),
(72.667,701.667,l),
(48.5,701.667,l),
(311.833,260.5,l)
);
}
);
width = 643;
},
{
anchors = (
{
name = bottom;
pos = (348,0);
},
{
name = top;
pos = (362,737);
},
{
name = topleft;
pos = (16,725);
}
);
layerId = "3DCE0E54-12D6-4F05-956C-7616B59038AD";
shapes = (
{
closed = 1;
nodes = (
(294,0,l),
(399,0,l),
(399,239,l),
(670,725,l),
(542,725,l),
(333,327,l),
(366,329,l),
(155,725,l),
(26,725,l),
(294,239,l)
);
}
);
width = 696;
}
);
unicode = 89;
}
{
glyphname = Z;
layers = (
{
anchors = (
{
name = bottom;
pos = (361,0);
},
{
name = top;
pos = (361,736);
}
);
layerId = UUID1;
shapes = (
{
closed = 1;
nodes = (
(671,0,l),
(671,140,l),
(276,140,l),
(284,124,l),
(672,736,l),
(263,736,l),
(239,736,o),
(231,730,o),
(231,759,cs),
(231,773,l),
(98,773,l),
(98,668,ls),
(98,627,o),
(152,596,o),
(195,596,cs),
(460,596,l),
(444,636,l),
(444,636,o),
(45,0,o),
(45,0,c)
);
}
);
width = 722;
},
{
anchors = (
{
name = bottom;
pos = (351,0);
},
{
name = top;
pos = (351,710);
}
);
layerId = "4C85334C-E1D4-4EB0-A0B2-9D58DDEA71D9";
shapes = (
{
closed = 1;
nodes = (
(645,0,l),
(645,47,l),
(131,47,l),
(135,39,l),
(621,710,l),
(164,710,l),
(141,710,o),
(133,716,o),
(133,733,cs),
(133,745,l),
(86,745,l),
(86,714,ls),
(86,676,o),
(115,663,o),
(152,663,cs),
(553,663,l),
(544,676,l),
(423,516,o),
(177,170,o),
(56,0,c)
);
}
);
width = 703;
},
{
anchors = (
{
name = bottom;
pos = (348.5,0);
},
{
name = top;
pos = (348.5,701.667);
}
);
layerId = "93649EC8-ADF5-4C20-AD08-3ED15854CD33";
shapes = (
{
closed = 1;
nodes = (
(637.5,0,l),
(637.5,18.667,l),
(87.667,18.667,l),
(90,14,l),
(606,701.667,l),
(134,701.667,l),
(111.833,701.667,o),
(103.833,711.833,o),
(103.833,724.667,cs),
(103.833,736.667,l),
(82.667,736.667,l),
(82.667,728.167,ls),
(82.667,690.167,o),
(103.333,683,o),
(139.5,683,cs),
(580.5,683,l),
(574,688.5,l),
(416.333,480.167,o),
(217,220.833,o),
(59.333,0,c)
);
}
);
width = 697;
},
{
anchors = (
{
name = bottom;
pos = (357,0);
},
{
name = top;
pos = (357,725);
}
);
layerId = "3DCE0E54-12D6-4F05-956C-7616B59038AD";
shapes = (
{
closed = 1;
nodes = (
(660,0,l),
(660,101,l),
(215,101,l),
(221,88,l),
(651,725,l),
(221,725,l),
(198,725,o),
(190,724,o),
(190,748,cs),
(190,761,l),
(93,761,l),
(93,687,ls),
(93,648,o),
(136,624,o),
(177,624,cs),
(499,624,l),
(486,653,l),
(435,586,o),
(100,71,o),
(50,0,c)
);
}
);
width = 714;
}
);
unicode = 90;
}
{
glyphname = bracketleft;
layers = (
{
layerId = UUID1;
shapes = (
{
closed = 1;
nodes = (
(95,-152,l),
(329,-152,l),
(329,-23,l),
(240,-23,l),
(240,631,l),
(329,631,l),
(329,761,l),
(95,761,l)
);
}
);
width = 374;
},
{
layerId = "4C85334C-E1D4-4EB0-A0B2-9D58DDEA71D9";
shapes = (
{
closed = 1;
nodes = (
(113,-150,l),
(295,-150,l),
(295,-105,l),
(164,-105,l),
(164,705,l),
(295,705,l),
(295,750,l),
(113,750,l)
);
}
);
width = 351;
},
{
layerId = "93649EC8-ADF5-4C20-AD08-3ED15854CD33";
shapes = (
{
closed = 1;
nodes = (
(118.833,-149.167,l),
(285,-149.167,l),
(285,-130,l),
(140.667,-130,l),
(140.667,727.5,l),
(285,727.5,l),
(285,746.667,l),
(118.833,746.667,l)
);
}
);
width = 344;
},
{
layerId = "3DCE0E54-12D6-4F05-956C-7616B59038AD";
shapes = (
{
closed = 1;
nodes = (
(103,-151,l),
(315,-151,l),
(315,-57,l),
(208,-57,l),
(208,662,l),
(315,662,l),
(315,756,l),
(103,756,l)
);
}
);
width = 364;
}
);
metricLeft = H;
unicode = 91;
}
{
glyphname = backslash;
layers = (
{
layerId = UUID1;
shapes = (
{
closed = 1;
nodes = (
(-10,751,l),
(85,494,o),
(179,238,o),
(274,-19,c),
(416,-19,l),
(321,238,o),
(227,494,o),
(132,751,c)
);
}
);
width = 430;
},
{
layerId = "4C85334C-E1D4-4EB0-A0B2-9D58DDEA71D9";
shapes = (
{
closed = 1;
nodes = (
(10,740,l),
(103,487,o),
(196,234,o),
(289,-19,c),
(337,-19,l),
(244,234,o),
(151,487,o),
(58,740,c)
);
}
);
width = 349;
},
{
layerId = "93649EC8-ADF5-4C20-AD08-3ED15854CD33";
shapes = (
{
closed = 1;
nodes = (
(15.833,736.667,l),
(108.833,484.5,o),
(201,233.167,o),
(294,-19,c),
(313.667,-19,l),
(220.667,233.167,o),
(128.5,484.5,o),
(35.5,736.667,c)
);
}
);
width = 325;
},
{
layerId = "3DCE0E54-12D6-4F05-956C-7616B59038AD";
shapes = (
{
closed = 1;
nodes = (
(-2,746,l),
(93,491,o),
(186,236,o),
(280,-19,c),
(383,-19,l),
(289,236,o),
(195,491,o),
(101,746,c)
);
}
);
width = 396;
}
);
unicode = 92;
}
{
glyphname = bracketright;
layers = (
{
layerId = UUID1;
shapes = (
{
closed = 1;
nodes = (
(279,761,l),
(45,761,l),
(45,632,l),
(134,632,l),
(134,-22,l),
(45,-22,l),
(45,-152,l),
(279,-152,l)
);
}
);
width = 374;
},
{
layerId = "4C85334C-E1D4-4EB0-A0B2-9D58DDEA71D9";
shapes = (
{
closed = 1;
nodes = (
(238,750,l),
(56,750,l),
(56,706,l),
(188,706,l),
(188,-105,l),
(56,-105,l),
(56,-150,l),
(238,-150,l)
);
}
);
width = 351;
},
{
layerId = "93649EC8-ADF5-4C20-AD08-3ED15854CD33";
shapes = (
{
closed = 1;
nodes = (
(225.5,746.667,l),
(59.333,746.667,l),
(59.333,727.667,l),
(203.833,727.667,l),
(203.833,-130,l),
(59.333,-130,l),
(59.333,-149.167,l),
(225.5,-149.167,l)
);
}
);
width = 345;
},
{
layerId = "3DCE0E54-12D6-4F05-956C-7616B59038AD";
shapes = (
{
closed = 1;
nodes = (
(262,756,l),
(50,756,l),
(50,663,l),
(157,663,l),
(157,-57,l),
(50,-57,l),
(50,-151,l),
(262,-151,l)
);
}
);
width = 365;
}
);
metricRight = H;
unicode = 93;
}
{
glyphname = asciicircum;
layers = (
{
layerId = UUID1;
shapes = (
{
closed = 1;
nodes = (
(359,489,l),
(318,550,o),
(277,612,o),
(236,673,c),
(236,673,l),
(196,612,o),
(155,550,o),
(114,489,c),
(199,489,l),
(199,489,o),
(236,534,o),
(236,534,c),
(236,534,o),
(274,489,o),
(274,489,c)
);
}
);
width = 479;
},
{
layerId = "4C85334C-E1D4-4EB0-A0B2-9D58DDEA71D9";
shapes = (
{
closed = 1;
nodes = (
(354,482,l),
(314,542,o),
(273,603,o),
(233,663,c),
(233,663,l),
(193,603,o),
(153,542,o),
(113,482,c),
(147,482,l),
(173,519,o),
(207,569,o),
(233,607,c),
(259,569,o),
(294,519,o),
(320,482,c)
);
}
);
width = 472;
},
{
layerId = "93649EC8-ADF5-4C20-AD08-3ED15854CD33";
shapes = (
{
closed = 1;
nodes = (
(352.333,479.5,l),
(312.333,539.5,o),
(272.167,600.5,o),
(232.167,660.5,c),
(232.167,660.5,l),
(192.167,600.5,o),
(152.167,539.5,o),
(112.167,479.5,c),
(131.167,479.5,l),
(164.667,528.167,o),
(198.667,579.833,o),
(232.167,628.667,c),
(265.667,579.833,o),
(299.833,528.167,o),
(333.333,479.5,c)
);
}
);
width = 470;
},
{
layerId = "3DCE0E54-12D6-4F05-956C-7616B59038AD";
shapes = (
{
closed = 1;
nodes = (
(357,486,l),
(316,547,o),
(275,608,o),
(235,669,c),
(235,669,l),
(195,608,o),
(154,547,o),
(114,486,c),
(177,486,l),
(188,502,o),
(224,549,o),
(235,565,c),
(246,549,o),
(282,502,o),
(293,486,c)
);
}
);
width = 476;
}
);
unicode = 94;
}
{
glyphname = underscore;
layers = (
{
layerId = UUID1;
shapes = (
{
closed = 1;
nodes = (
(102,0,l),
(510,0,l),
(510,121,l),
(102,121,l)
);
}
);
width = 612;
},
{
layerId = "4C85334C-E1D4-4EB0-A0B2-9D58DDEA71D9";
shapes = (
{
closed = 1;
nodes = (
(101,0,l),
(503,0,l),
(503,42,l),
(101,42,l)
);
}
);
width = 603;
},
{
layerId = "93649EC8-ADF5-4C20-AD08-3ED15854CD33";
shapes = (
{
closed = 1;
nodes = (
(100.167,0,l),
(500.5,0,l),
(500.5,18.667,l),
(100.167,18.667,l)
);
}
);
width = 601;
},
{
layerId = "3DCE0E54-12D6-4F05-956C-7616B59038AD";
shapes = (
{
closed = 1;
nodes = (
(102,0,l),
(507,0,l),
(507,88,l),
(102,88,l)
);
}
);
width = 608;
}
);
unicode = 95;
}
{
glyphname = grave;
layers = (
{
layerId = UUID1;
shapes = (
{
closed = 1;
nodes = (
(162,489,l),
(247,489,l),
(185,624,l),
(30,624,l)
);
}
);
width = 317;
},
{
layerId = "4C85334C-E1D4-4EB0-A0B2-9D58DDEA71D9";
shapes = (
{
closed = 1;
nodes = (
(99,482,l),
(133,482,l),
(50,615,l),
(-2,615,l)
);
}
);
width = 231;
},
{
layerId = "93649EC8-ADF5-4C20-AD08-3ED15854CD33";
shapes = (
{
closed = 1;
nodes = (
(79.833,479.5,l),
(98.833,479.5,l),
(10,612.5,l),
(-12,612.5,l)
);
}
);
width = 205;
},
{
layerId = "3DCE0E54-12D6-4F05-956C-7616B59038AD";
shapes = (
{
closed = 1;
nodes = (
(136,486,l),
(199,486,l),
(128,620,l),
(17,620,l)
);
}
);
width = 281;
}
);
unicode = 96;
}
{
glyphname = a;
kernLeft = o;
layers = (
{
anchors = (
{
name = bottom;
pos = (307,0);
},
{
name = ogonek;
pos = (629,10);
},
{
name = top;
pos = (327,457);
}
);
layerId = UUID1;
shapes = (
{
closed = 1;
nodes = (
(359,-12,o),
(408,65,o),
(413,65,c),
(402,95,l),
(402,0,l),
(542,0,l),
(542,437,l),
(412,437,l),
(399,373,l),
(405,390,l),
(376,425,o),
(338,459,o),
(251,459,c),
(140,459,o),
(38,366,o),
(38,218,c),
(38,59,o),
(134,-12,o),
(256,-12,c)
);
},
{
closed = 1;
nodes = (
(234,102,o),
(180,155,o),
(180,225,c),
(180,295,o),
(231,345,o),
(291,345,c),
(344,345,o),
(386,318,o),
(402,275,c),
(402,168,l),
(380,124,o),
(346,102,o),
(296,102,c)
);
}
);
width = 614;
},
{
anchors = (
{
name = bottom;
pos = (280,0);
},
{
name = ogonek;
pos = (520,10);
},
{
name = top;
pos = (285,397);
}
);
layerId = "4C85334C-E1D4-4EB0-A0B2-9D58DDEA71D9";
shapes = (
{
closed = 1;
nodes = (
(339,-8,o),
(413,50,o),
(433,103,c),
(423,121,l),
(423,0,l),
(470,0,l),
(470,391,l),
(428,391,l),
(422,280,l),
(429,294,l),
(402,357,o),
(333,403,o),
(264,403,cs),
(142,403,o),
(51,326,o),
(51,196,cs),
(51,74,o),
(139,-8,o),
(251,-8,cs)
);
},
{
closed = 1;
nodes = (
(172,32,o),
(98,106,o),
(98,198,cs),
(98,298,o),
(171,363,o),
(260,363,cs),
(340,363,o),
(407,307,o),
(423,234,c),
(423,178,l),
(417,92,o),
(348,32,o),
(261,32,cs)
);
}
);
width = 559;
},
{
anchors = (
{
name = bottom;
pos = (271.667,0);
},
{
name = ogonek;
pos = (487.5,10);
},
{
name = top;
pos = (272.5,378.667);
}
);
layerId = "93649EC8-ADF5-4C20-AD08-3ED15854CD33";
shapes = (
{
closed = 1;
nodes = (
(333.167,-6.333,o),
(405.5,45.833,o),
(432.167,114.667,c),
(428.833,129.333,l),
(428.833,0,l),
(448.333,0,l),
(448.333,377.667,l),
(433,377.667,l),
(427.833,253.333,l),
(429.833,265.667,l),
(401.167,336.167,o),
(331.333,386.333,o),
(251.5,386.333,cs),
(142.833,386.333,o),
(54.333,314.333,o),
(54.333,189.333,cs),
(54.333,79,o),
(140.667,-6.333,o),
(249.333,-6.333,cs)
);
},
{
closed = 1;
nodes = (
(152.833,11.167,o),
(73.833,91,o),
(73.833,189.667,cs),
(73.833,298.833,o),
(152.667,368.833,o),
(250.833,368.833,cs),
(338.333,368.833,o),
(412.833,303.667,o),
(428.833,221.5,c),
(428.833,180.5,l),
(427.833,82.833,o),
(348.833,11.167,o),
(251,11.167,cs)
);
}
);
width = 542;
},
{
anchors = (
{
name = bottom;
pos = (296,0);
},
{
name = ogonek;
pos = (583,10);
},
{
name = top;
pos = (309,432);
}
);
layerId = "3DCE0E54-12D6-4F05-956C-7616B59038AD";
shapes = (
{
closed = 1;
nodes = (
(351,-10,o),
(410,59,o),
(421,81,c),
(411,106,l),
(411,0,l),
(512,0,l),
(512,418,l),
(419,418,l),
(409,334,l),
(415,350,l),
(387,396,o),
(336,435,o),
(256,435,c),
(141,435,o),
(43,349,o),
(43,209,c),
(43,65,o),
(136,-10,o),
(254,-10,c)
);
},
{
closed = 1;
nodes = (
(208,73,o),
(146,134,o),
(146,214,c),
(146,296,o),
(206,353,o),
(278,353,c),
(342,353,o),
(395,313,o),
(411,258,c),
(411,172,l),
(396,111,o),
(347,73,o),
(281,73,c)
);
}
);
width = 591;
}
);
metricLeft = o;
metricRight = n;
unicode = 97;
}
{
glyphname = b;
layers = (
{
anchors = (
{
name = bottom;
pos = (313,0);
},
{
name = top;
pos = (313,437);
}
);
layerId = UUID1;
shapes = (
{
closed = 1;
nodes = (
(479,-12,o),
(586,79,o),
(586,228,c),
(586,376,o),
(491,459,o),
(378,459,c),
(304,459,o),
(246,436,o),
(211,407,c),
(211,362,l),
(211,789,l),
(72,789,l),
(72,0,l),
(212,0,l),
(212,85,l),
(201,55,l),
(238,15,o),
(285,-12,o),
(359,-12,c)
);
},
{
closed = 1;
nodes = (
(273,106,o),
(236,128,o),
(212,172,c),
(212,279,l),
(229,322,o),
(273,349,o),
(328,349,c),
(390,349,o),
(444,299,o),
(444,229,c),
(444,159,o),
(390,106,o),
(328,106,c)
);
}
);
width = 624;
},
{
anchors = (
{
name = bottom;
pos = (281,0);
},
{
name = top;
pos = (281,391);
}
);
layerId = "4C85334C-E1D4-4EB0-A0B2-9D58DDEA71D9";
shapes = (
{
closed = 1;
nodes = (
(418,-8,o),
(511,66,o),
(511,199,c),
(511,317,o),
(423,403,o),
(313,403,cs),
(233,403,o),
(161,363,o),
(130,302,c),
(136,276,l),
(136,760,l),
(89,760,l),
(89,0,l),
(136,0,l),
(136,128,l),
(126,101,l),
(156,38,o),
(228,-8,o),
(308,-8,cs)
);
},
{
closed = 1;
nodes = (
(212,33,o),
(143,99,o),
(136,173,c),
(136,234,l),
(151,309,o),
(217,364,o),
(300,364,cs),
(397,364,o),
(463,289,o),
(463,199,c),
(463,102,o),
(400,33,o),
(300,33,cs)
);
}
);
width = 562;
},
{
anchors = (
{
name = bottom;
pos = (271.833,0);
},
{
name = top;
pos = (271.833,377.667);
}
);
layerId = "93649EC8-ADF5-4C20-AD08-3ED15854CD33";
shapes = (
{
closed = 1;
nodes = (
(399.667,-6.333,o),
(488.5,61.833,o),
(488.5,189.833,c),
(488.5,299.5,o),
(402.167,386.333,o),
(293.833,386.333,cs),
(212.167,386.333,o),
(141.833,337.167,o),
(112.5,267,c),
(113.5,250.167,l),
(113.5,751.667,l),
(94,751.667,l),
(94,0,l),
(113.5,0,l),
(113.5,140.5,l),
(110.167,118.5,l),
(138.5,48,o),
(210.5,-6.333,o),
(293,-6.333,cs)
);
},
{
closed = 1;
nodes = (
(193.667,11.333,o),
(114.667,90.667,o),
(113.5,173.833,c),
(113.5,220.667,l),
(127.667,304.833,o),
(200.333,369,o),
(291.667,369,cs),
(399.5,369,o),
(468.833,285.667,o),
(468.833,189.833,c),
(468.833,85.333,o),
(403.333,11.333,o),
(291.667,11.333,cs)
);
}
);
width = 543;
},
{
anchors = (
{
name = bottom;
pos = (300,0);
},
{
name = top;
pos = (300,418);
}
);
layerId = "3DCE0E54-12D6-4F05-956C-7616B59038AD";
shapes = (
{
closed = 1;
nodes = (
(453,-10,o),
(555,74,o),
(555,216,c),
(555,351,o),
(462,435,o),
(351,435,c),
(274,435,o),
(210,405,o),
(177,363,c),
(180,326,l),
(180,777,l),
(79,777,l),
(79,0,l),
(180,0,l),
(180,103,l),
(170,74,l),
(204,25,o),
(261,-10,o),
(338,-10,c)
);
},
{
closed = 1;
nodes = (
(247,75,o),
(197,116,o),
(180,172,c),
(180,260,l),
(196,317,o),
(249,355,o),
(316,355,c),
(393,355,o),
(452,295,o),
(452,216,c),
(452,135,o),
(394,75,o),
(316,75,c)
);
}
);
width = 598;
}
);
metricLeft = n;
metricRight = o;
unicode = 98;
}
{
glyphname = c;
kernLeft = o;
layers = (
{
anchors = (
{
name = bottom;
pos = (238,0);
},
{
name = top;
pos = (256,447);
}
);
layerId = UUID1;
shapes = (
{
closed = 1;
nodes = (
(373,127,l),
(354,111,o),
(328,102,o),
(297,102,cs),
(225,102,o),
(178,154,o),
(178,219,cs),
(178,287,o),
(225,335,o),
(283,335,cs),
(327,335,o),
(360,316,o),
(379,301,c),
(447,391,l),
(406,426,o),
(349,449,o),
(270,449,cs),
(151,449,o),
(38,365,o),
(38,219,cs),
(38,73,o),
(135,-12,o),
(285,-12,cs),
(341,-12,o),
(404,8,o),
(443,39,c)
);
}
);
width = 479;
},
{
anchors = (
{
name = bottom;
pos = (217,0);
},
{
name = top;
pos = (251,394);
}
);
layerId = "4C85334C-E1D4-4EB0-A0B2-9D58DDEA71D9";
shapes = (
{
closed = 1;
nodes = (
(365,67,l),
(337,46,o),
(302,32,o),
(262,32,cs),
(169,32,o),
(98,105,o),
(98,196,cs),
(98,288,o),
(169,361,o),
(258,361,cs),
(301,361,o),
(339,344,o),
(367,322,c),
(392,354,l),
(357,383,o),
(310,400,o),
(255,400,cs),
(144,400,o),
(51,314,o),
(51,196,cs),
(51,78,o),
(139,-8,o),
(259,-8,cs),
(308,-8,o),
(355,9,o),
(391,38,c)
);
}
);
width = 433;
},
{
anchors = (
{
name = bottom;
pos = (210.333,0);
},
{
name = top;
pos = (249.333,378.167);
}
);
layerId = "93649EC8-ADF5-4C20-AD08-3ED15854CD33";
shapes = (
{
closed = 1;
nodes = (
(362.5,49.5,l),
(332,26,o),
(293.667,11.167,o),
(251.167,11.167,cs),
(152.333,11.167,o),
(73.833,90.833,o),
(73.833,189.333,cs),
(73.833,288,o),
(152.333,368.5,o),
(250.5,368.5,cs),
(293.5,368.5,o),
(333.167,352.333,o),
(363.667,327.833,c),
(375.333,342.333,l),
(342,369.667,o),
(298.333,385.833,o),
(250,385.833,cs),
(141.5,385.833,o),
(54.333,299,o),
(54.333,189.333,cs),
(54.333,79.667,o),
(140.667,-6.333,o),
(250.667,-6.333,cs),
(298,-6.333,o),
(340.833,9.833,o),
(375.167,37.167,c)
);
}
);
width = 420;
},
{
anchors = (
{
name = bottom;
pos = (229,0);
},
{
name = top;
pos = (254,425);
}
);
layerId = "3DCE0E54-12D6-4F05-956C-7616B59038AD";
shapes = (
{
closed = 1;
nodes = (
(370,102,l),
(347,84,o),
(317,73,o),
(282,73,cs),
(201,73,o),
(144,133,o),
(144,209,cs),
(144,287,o),
(201,346,o),
(273,346,cs),
(316,346,o),
(351,328,o),
(374,310,c),
(424,375,l),
(385,408,o),
(333,428,o),
(264,428,cs),
(148,428,o),
(43,344,o),
(43,209,cs),
(43,75,o),
(137,-10,o),
(274,-10,cs),
(327,-10,o),
(383,8,o),
(421,39,c)
);
}
);
width = 460;
}
);
metricLeft = o;
unicode = 99;
}
{
glyphname = d;
kernLeft = o;
layers = (
{
anchors = (
{
name = bottom;
pos = (312,0);
},
{
name = center;
pos = (479,642);
},
{
name = top;
pos = (312,437);
},
{
name = topright;
pos = (607,437);
}
);
layerId = UUID1;
shapes = (
{
closed = 1;
nodes = (
(323,-12,o),
(378,17,o),
(423,55,c),
(412,85,l),
(412,0,l),
(552,0,l),
(552,789,l),
(413,789,l),
(413,362,l),
(413,406,l),
(378,442,o),
(324,459,o),
(268,459,c),
(135,459,o),
(38,375,o),
(38,227,c),
(38,78,o),
(128,-12,o),
(250,-12,c)
);
},
{
closed = 1;
nodes = (
(234,106,o),
(180,159,o),
(180,229,c),
(180,299,o),
(234,349,o),
(296,349,c),
(352,349,o),
(396,322,o),
(412,279,c),
(412,172,l),
(388,128,o),
(352,106,o),
(296,106,c)
);
}
);
width = 624;
},
{
anchors = (
{
name = bottom;
pos = (281,0);
},
{
name = center;
pos = (447,630);
},
{
name = top;
pos = (281,391);
},
{
name = topright;
pos = (539,391);
}
);
layerId = "4C85334C-E1D4-4EB0-A0B2-9D58DDEA71D9";
shapes = (
{
closed = 1;
nodes = (
(330,-8,o),
(402,35,o),
(435,98,c),
(425,120,l),
(425,0,l),
(473,0,l),
(473,760,l),
(426,760,l),
(426,276,l),
(434,298,l),
(403,360,o),
(329,403,o),
(254,403,cs),
(141,403,o),
(51,324,o),
(51,198,cs),
(51,79,o),
(138,-8,o),
(249,-8,cs)
);
},
{
closed = 1;
nodes = (
(172,33,o),
(98,107,o),
(98,199,cs),
(98,297,o),
(171,364,o),
(261,364,cs),
(342,364,o),
(410,306,o),
(425,231,c),
(425,181,l),
(419,96,o),
(350,33,o),
(261,33,cs)
);
}
);
width = 562;
},
{
anchors = (
{
name = bottom;
pos = (271.833,0);
},
{
name = center;
pos = (437,625.833);
},
{
name = top;
pos = (271.833,377.667);
},
{
name = topright;
pos = (518.167,377.667);
}
);
layerId = "93649EC8-ADF5-4C20-AD08-3ED15854CD33";
shapes = (
{
closed = 1;
nodes = (
(331.667,-6.333,o),
(402.833,43.333,o),
(431.667,113.833,c),
(429.167,130,l),
(429.167,0,l),
(448.833,0,l),
(448.833,751.667,l),
(429.333,751.667,l),
(429.333,250.167,l),
(433.167,262.167,l),
(403.833,332.5,o),
(330.667,386.333,o),
(249.833,386.333,cs),
(142.667,386.333,o),
(54.333,308.167,o),
(54.333,189.667,cs),
(54.333,79.833,o),
(140.5,-6.333,o),
(249,-6.333,cs)
);
},
{
closed = 1;
nodes = (
(152.833,11.333,o),
(73.833,91.167,o),
(73.833,189.833,cs),
(73.833,296.167,o),
(151.833,369,o),
(251,369,cs),
(339.5,369,o),
(414.167,301,o),
(429.167,216.833,c),
(429.167,183.5,l),
(428.167,86,o),
(349.167,11.333,o),
(251,11.333,cs)
);
}
);
width = 543;
},
{
anchors = (
{
name = bottom;
pos = (299,0);
},
{
name = center;
pos = (466,637);
},
{
name = top;
pos = (299,418);
},
{
name = topright;
pos = (578,418);
}
);
layerId = "3DCE0E54-12D6-4F05-956C-7616B59038AD";
shapes = (
{
closed = 1;
nodes = (
(326,-10,o),
(388,25,o),
(428,73,c),
(417,100,l),
(417,0,l),
(519,0,l),
(519,777,l),
(418,777,l),
(418,326,l),
(422,361,l),
(389,408,o),
(326,435,o),
(262,435,c),
(138,435,o),
(43,354,o),
(43,215,c),
(43,78,o),
(132,-10,o),
(250,-10,c)
);
},
{
closed = 1;
nodes = (
(208,75,o),
(146,137,o),
(146,216,c),
(146,298,o),
(208,355,o),
(281,355,c),
(348,355,o),
(402,315,o),
(417,259,c),
(417,176,l),
(401,115,o),
(351,75,o),
(281,75,c)
);
}
);
width = 598;
}
);
metricLeft = o;
metricRight = n;
unicode = 100;
}
{
glyphname = e;
kernLeft = o;
layers = (
{
anchors = (
{
name = bottom;
pos = (278,0);
},
{
name = ogonek;
pos = (475,10);
},
{
name = top;
pos = (290,458);
}
);
layerId = UUID1;
shapes = (
{
closed = 1;
nodes = (
(335,-12,o),
(392,5,o),
(439,32,c),
(377,136,l),
(349,118,o),
(321,107,o),
(290,107,c),
(226,107,o),
(176,149,o),
(176,231,c),
(176,303,o),
(216,349,o),
(279,349,c),
(334,349,o),
(358,318,o),
(369,284,c),
(398,297,l),
(152,214,l),
(183,138,l),
(523,246,l),
(499,383,o),
(415,458,o),
(290,458,c),
(150,458,o),
(38,354,o),
(38,223,c),
(38,85,o),
(127,-12,o),
(287,-12,c)
);
}
);
width = 553;
},
{
anchors = (
{
name = bottom;
pos = (244,0);
},
{
name = ogonek;
pos = (429,10);
},
{
name = top;
pos = (247,397);
}
);
layerId = "4C85334C-E1D4-4EB0-A0B2-9D58DDEA71D9";
shapes = (
{
closed = 1;
nodes = (
(310,-8,o),
(360,12,o),
(398,42,c),
(374,76,l),
(343,50,o),
(303,33,o),
(260,33,cs),
(163,33,o),
(97,110,o),
(97,199,cs),
(97,292,o),
(167,364,o),
(257,364,cs),
(324,364,o),
(370,319,o),
(393,266,c),
(403,280,l),
(90,158,l),
(104,124,l),
(446,256,l),
(418,344,o),
(353,404,o),
(260,404,cs),
(143,404,o),
(51,311,o),
(51,197,cs),
(51,81,o),
(137,-8,o),
(259,-8,cs)
);
}
);
width = 487;
},
{
anchors = (
{
name = bottom;
pos = (234,0);
},
{
name = ogonek;
pos = (415.667,10);
},
{
name = top;
pos = (234.5,378.667);
}
);
layerId = "93649EC8-ADF5-4C20-AD08-3ED15854CD33";
shapes = (
{
closed = 1;
nodes = (
(302.5,-6.333,o),
(350,13.667,o),
(385.5,45.333,c),
(373.167,58.5,l),
(341.333,29.167,o),
(298,11.333,o),
(250.833,11.333,cs),
(143.833,11.333,o),
(73.667,98.333,o),
(73.667,189.833,cs),
(73.667,288.667,o),
(152,369,o),
(250.333,369,cs),
(320.667,369,o),
(373.333,319.833,o),
(400.5,261,c),
(406.333,270.833,l),
(74.167,137.167,l),
(79.833,119.833,l),
(422.667,258.5,l),
(393.833,332.333,o),
(334.667,387.333,o),
(250.833,387.333,cs),
(141.333,387.333,o),
(54.333,298.5,o),
(54.333,189.5,cs),
(54.333,80.167,o),
(140.333,-6.333,o),
(250.667,-6.333,cs)
);
}
);
width = 467;
},
{
anchors = (
{
name = bottom;
pos = (264,0);
},
{
name = ogonek;
pos = (456,10);
},
{
name = top;
pos = (272,432);
}
);
layerId = "3DCE0E54-12D6-4F05-956C-7616B59038AD";
shapes = (
{
closed = 1;
nodes = (
(325,-10,o),
(379,8,o),
(422,36,c),
(376,111,l),
(346,89,o),
(313,76,o),
(277,76,c),
(200,76,o),
(143,133,o),
(143,218,c),
(143,298,o),
(195,355,o),
(270,355,c),
(330,355,o),
(363,318,o),
(379,276,c),
(400,290,l),
(126,190,l),
(150,132,l),
(491,250,l),
(465,367,o),
(389,435,o),
(277,435,c),
(147,435,o),
(43,336,o),
(43,212,c),
(43,83,o),
(131,-10,o),
(275,-10,c)
);
}
);
width = 525;
}
);
metricLeft = o;
unicode = 101;
}
{
glyphname = f;
kernRight = f;
layers = (
{
anchors = (
{
name = bottom;
pos = (218,0);
},
{
name = top;
pos = (218,437);
}
);
layerId = UUID1;
shapes = (
{
closed = 1;
nodes = (
(254,0,l),
(254,315,l),
(386,315,l),
(386,439,l),
(254,439,l),
(254,587,l),
(254,645,o),
(282,671,o),
(322,671,c),
(338,671,o),
(357,666,o),
(371,649,c),
(430,750,l),
(395,775,o),
(344,786,o),
(307,786,c),
(182,786,o),
(114,705,o),
(114,591,c),
(114,439,l),
(40,439,l),
(40,315,l),
(114,315,l),
(114,0,l)
);
}
);
width = 435;
},
{
anchors = (
{
name = bottom;
pos = (162,0);
},
{
name = top;
pos = (162,391);
}
);
layerId = "4C85334C-E1D4-4EB0-A0B2-9D58DDEA71D9";
shapes = (
{
closed = 1;
nodes = (
(162,0,l),
(162,347,l),
(293,347,l),
(293,390,l),
(162,390,l),
(162,588,ls),
(162,690,o),
(191,725,o),
(248,725,cs),
(262,725,o),
(274,722,o),
(283,715,c),
(303,749,l),
(285,759,o),
(262,764,o),
(244,764,cs),
(159,764,o),
(115,712,o),
(115,587,cs),
(115,390,l),
(47,390,l),
(47,347,l),
(115,347,l),
(115,0,l)
);
}
);
width = 324;
},
{
anchors = (
{
name = bottom;
pos = (145.333,0);
},
{
name = top;
pos = (145.333,377.667);
}
);
layerId = "93649EC8-ADF5-4C20-AD08-3ED15854CD33";
shapes = (
{
closed = 1;
nodes = (
(134.5,0,l),
(134.5,357,l),
(264.667,357,l),
(264.667,375,l),
(134.5,375,l),
(134.5,588.833,ls),
(134.5,703.333,o),
(163.5,741.667,o),
(226.333,741.667,cs),
(239.5,741.667,o),
(249,738.667,o),
(256.333,735,c),
(264.667,749,l),
(251.667,754,o),
(237.833,757.333,o),
(224.833,757.333,cs),
(152.333,757.333,o),
(115,714.5,o),
(115,585.333,cs),
(115,375,l),
(49.5,375,l),
(49.5,357,l),
(115,357,l),
(115,0,l)
);
}
);
width = 291;
},
{
anchors = (
{
name = bottom;
pos = (194,0);
},
{
name = top;
pos = (194,418);
}
);
layerId = "3DCE0E54-12D6-4F05-956C-7616B59038AD";
shapes = (
{
closed = 1;
nodes = (
(215,0,l),
(215,328,l),
(347,328,l),
(347,418,l),
(215,418,l),
(215,587,l),
(215,664,o),
(244,694,o),
(291,694,c),
(306,694,o),
(322,690,o),
(334,677,c),
(377,750,l),
(349,768,o),
(310,777,o),
(281,777,c),
(172,777,o),
(114,708,o),
(114,589,c),
(114,418,l),
(43,418,l),
(43,328,l),
(114,328,l),
(114,0,l)
);
}
);
width = 388;
}
);
unicode = 102;
}
{
glyphname = g;
kernLeft = o;
layers = (
{
anchors = (
{
name = bottom;
pos = (316,0);
},
{
name = top;
pos = (316,457);
}
);
layerId = UUID1;
shapes = (
{
closed = 1;
nodes = (
(441,-220,o),
(561,-128,o),
(561,0,c),
(561,437,l),
(432,437,l),
(417,389,l),
(422,402,l),
(394,434,o),
(337,459,o),
(261,459,c),
(147,459,o),
(38,358,o),
(38,221,c),
(38,87,o),
(139,-12,o),
(258,-12,c),
(349,-12,o),
(404,28,o),
(426,73,c),
(421,98,l),
(421,2,l),
(421,-64,o),
(362,-98,o),
(296,-98,c),
(229,-98,o),
(192,-66,o),
(162,-38,c),
(80,-134,l),
(124,-170,o),
(180,-220,o),
(298,-220,c)
);
},
{
closed = 1;
nodes = (
(179,295,o),
(232,345,o),
(300,345,c),
(357,345,o),
(402,318,o),
(421,275,c),
(421,168,l),
(396,124,o),
(357,102,o),
(300,102,c),
(232,102,o),
(179,155,o),
(179,225,c)
);
}
);
width = 633;
},
{
anchors = (
{
name = bottom;
pos = (282,0);
},
{
name = top;
pos = (282,397);
}
);
layerId = "4C85334C-E1D4-4EB0-A0B2-9D58DDEA71D9";
shapes = (
{
closed = 1;
nodes = (
(414,-191,o),
(475,-103,o),
(475,-6,cs),
(475,391,l),
(433,391,l),
(428,279,l),
(434,301,l),
(405,362,o),
(333,403,o),
(261,403,cs),
(144,403,o),
(51,318,o),
(51,197,cs),
(51,82,o),
(140,-8,o),
(251,-8,cs),
(337,-8,o),
(412,40,o),
(439,110,c),
(428,122,l),
(427,-5,l),
(425,-85,o),
(383,-149,o),
(261,-149,cs),
(214,-149,o),
(166,-134,o),
(109,-79,c),
(81,-111,l),
(143,-170,o),
(197,-191,o),
(263,-191,cs)
);
},
{
closed = 1;
nodes = (
(98,296,o),
(170,363,o),
(263,363,cs),
(344,363,o),
(412,308,o),
(428,233,c),
(428,175,l),
(421,98,o),
(351,32,o),
(263,32,cs),
(171,32,o),
(98,106,o),
(98,198,cs)
);
}
);
width = 564;
},
{
anchors = (
{
name = bottom;
pos = (272,0);
},
{
name = top;
pos = (272,378.667);
}
);
layerId = "93649EC8-ADF5-4C20-AD08-3ED15854CD33";
shapes = (
{
closed = 1;
nodes = (
(405.667,-181.833,o),
(449.167,-95.5,o),
(449.167,-7.667,cs),
(449.167,377.667,l),
(433.833,377.667,l),
(428,255.667,l),
(430.667,266.833,l),
(401.667,337,o),
(331.333,386.333,o),
(251,386.333,cs),
(143.167,386.333,o),
(54.333,306.333,o),
(54.333,189.5,cs),
(54.333,80.333,o),
(140.833,-6.333,o),
(249.333,-6.333,cs),
(332.833,-6.333,o),
(407.833,46.667,o),
(435.667,124.167,c),
(429.667,129.5,l),
(428.667,-7.5,l),
(425.833,-91.667,o),
(389.667,-164,o),
(251,-164,cs),
(209,-164,o),
(158.5,-154.833,o),
(93.167,-91.5,c),
(81.833,-104.333,l),
(148.833,-170,o),
(202,-181.833,o),
(252.167,-181.833,cs)
);
},
{
closed = 1;
nodes = (
(73.833,296,o),
(151.667,368.833,o),
(251.333,368.833,cs),
(339.833,368.833,o),
(414.5,304.667,o),
(429.667,220.5,c),
(429.667,177.5,l),
(428.5,89.667,o),
(349.333,11.167,o),
(251.333,11.167,cs),
(152.667,11.167,o),
(73.833,91,o),
(73.833,189.667,cs)
);
}
);
width = 543;
},
{
anchors = (
{
name = bottom;
pos = (302,0);
},
{
name = top;
pos = (302,432);
}
);
layerId = "3DCE0E54-12D6-4F05-956C-7616B59038AD";
shapes = (
{
closed = 1;
nodes = (
(430,-208,o),
(525,-118,o),
(525,-3,c),
(525,418,l),
(432,418,l),
(422,343,l),
(427,360,l),
(399,404,o),
(335,435,o),
(261,435,c),
(146,435,o),
(43,341,o),
(43,211,c),
(43,85,o),
(139,-10,o),
(255,-10,c),
(344,-10,o),
(407,33,o),
(431,89,c),
(424,108,l),
(424,-1,l),
(423,-73,o),
(371,-119,o),
(281,-119,c),
(223,-119,o),
(181,-95,o),
(140,-55,c),
(80,-124,l),
(132,-170,o),
(187,-208,o),
(283,-208,c)
);
},
{
closed = 1;
nodes = (
(145,295,o),
(206,353,o),
(284,353,c),
(352,353,o),
(406,314,o),
(424,257,c),
(424,171,l),
(407,113,o),
(354,73,o),
(284,73,c),
(206,73,o),
(145,134,o),
(145,214,c)
);
}
);
width = 604;
}
);
metricLeft = o;
metricRight = n;
unicode = 103;
}
{
glyphname = h;
layers = (
{
anchors = (
{
name = bottom;
pos = (297,0);
},
{
name = center;
pos = (156,625);
},
{
name = top;
pos = (141,789);
}
);
background = {
shapes = (
{
closed = 1;
nodes = (
(188,789,l),
(72,789,l),
(72,0,l),
(188,0,l),
(188,201,ls),
(188,277,o),
(236,334,o),
(311,334,c),
(367,331,o),
(390,299,o),
(392,260,c),
(392,0,l),
(508,0,l),
(508,318,l),
(506,397,o),
(445,450,o),
(354,449,cs),
(268,448,o),
(219,402,o),
(188,332,c)
);
}
);
};
layerId = UUID1;
shapes = (
{
closed = 1;
nodes = (
(212,0,l),
(212,178,l),
(212,271,o),
(253,339,o),
(318,339,c),
(363,339,o),
(380,314,o),
(382,275,c),
(382,0,l),
(522,0,l),
(522,327,l),
(520,404,o),
(458,458,o),
(376,458,c),
(295,458,o),
(239,421,o),
(208,366,c),
(209,349,l),
(209,789,l),
(72,789,l),
(72,0,l)
);
}
);
width = 594;
},
{
anchors = (
{
name = bottom;
pos = (256,0);
},
{
name = center;
pos = (116,578);
},
{
name = top;
pos = (107,749);
}
);
layerId = "4C85334C-E1D4-4EB0-A0B2-9D58DDEA71D9";
shapes = (
{
closed = 1;
nodes = (
(136,0,l),
(136,210,ls),
(136,296,o),
(205,361,o),
(284,361,c),
(343,359,o),
(373,322,o),
(375,272,c),
(375,0,l),
(423,0,l),
(423,285,l),
(421,354,o),
(372,402,o),
(299,402,cs),
(222,402,o),
(158,359,o),
(132,304,c),
(135,287,l),
(135,760,l),
(89,760,l),
(89,0,l)
);
}
);
width = 512;
},
{
anchors = (
{
name = bottom;
pos = (243.5,0);
},
{
name = center;
pos = (103.5,563.833);
},
{
name = top;
pos = (97,737.333);
}
);
layerId = "93649EC8-ADF5-4C20-AD08-3ED15854CD33";
shapes = (
{
closed = 1;
nodes = (
(113.5,0,l),
(113.5,219.167,ls),
(113.5,303.5,o),
(190.833,367.667,o),
(274,367.667,c),
(337.167,364.833,o),
(371.333,324.5,o),
(373.333,271.167,c),
(373.333,0,l),
(393,0,l),
(393,272.5,l),
(391,339,o),
(346.167,385.333,o),
(275.667,385.333,cs),
(200.333,385.333,o),
(136.333,340.667,o),
(112,284.833,c),
(113.333,272,l),
(113.333,751.667,l),
(94,751.667,l),
(94,0,l)
);
}
);
width = 487;
},
{
anchors = (
{
name = bottom;
pos = (280,0);
},
{
name = center;
pos = (139,605);
},
{
name = top;
pos = (127,772);
}
);
layerId = "3DCE0E54-12D6-4F05-956C-7616B59038AD";
shapes = (
{
closed = 1;
nodes = (
(180,0,l),
(180,191,l),
(180,282,o),
(233,348,o),
(304,348,c),
(355,347,o),
(377,317,o),
(379,274,c),
(379,0,l),
(480,0,l),
(480,309,l),
(478,383,o),
(422,434,o),
(344,434,c),
(264,434,o),
(205,395,o),
(176,340,c),
(178,323,l),
(178,777,l),
(79,777,l),
(79,0,l)
);
}
);
width = 560;
}
);
metricLeft = n;
metricRight = n;
unicode = 104;
}
{
glyphname = k;
kernRight = k;
layers = (
{
anchors = (
{
name = bottom;
pos = (272,0);
},
{
name = top;
pos = (272,437);
}
);
layerId = UUID1;
shapes = (
{
closed = 1;
nodes = (
(212,0,l),
(212,789,l),
(72,789,l),
(72,0,l)
);
},
{
closed = 1;
nodes = (
(231,217,l),
(358,0,l),
(521,0,l),
(323,297,l)
);
},
{
closed = 1;
nodes = (
(505,373,l),
(420,448,l),
(156,254,l),
(170,121,l)
);
}
);
width = 546;
},
{
anchors = (
{
name = bottom;
pos = (226,0);
},
{
name = top;
pos = (226,391);
}
);
layerId = "4C85334C-E1D4-4EB0-A0B2-9D58DDEA71D9";
shapes = (
{
closed = 1;
nodes = (
(136,0,l),
(136,760,l),
(89,760,l),
(89,0,l)
);
},
{
closed = 1;
nodes = (
(193,228,l),
(353,0,l),
(408,0,l),
(226,254,l)
);
},
{
closed = 1;
nodes = (
(384,374,l),
(355,399,l),
(116,189,l),
(120,142,l)
);
}
);
width = 451;
},
{
anchors = (
{
name = bottom;
pos = (211.833,0);
},
{
name = top;
pos = (211.833,377.667);
}
);
layerId = "93649EC8-ADF5-4C20-AD08-3ED15854CD33";
shapes = (
{
closed = 1;
nodes = (
(113.5,0,l),
(113.5,751.667,l),
(94,751.667,l),
(94,0,l)
);
},
{
closed = 1;
nodes = (
(181.333,231.333,l),
(351.333,0,l),
(373.833,0,l),
(196.833,241.5,l)
);
},
{
closed = 1;
nodes = (
(348.167,374,l),
(335,384.833,l),
(104.333,169.833,l),
(105,147.833,l)
);
}
);
width = 423;
},
{
anchors = (
{
name = bottom;
pos = (253,0);
},
{
name = top;
pos = (253,418);
}
);
layerId = "3DCE0E54-12D6-4F05-956C-7616B59038AD";
shapes = (
{
closed = 1;
nodes = (
(180,0,l),
(180,777,l),
(79,777,l),
(79,0,l)
);
},
{
closed = 1;
nodes = (
(215,222,l),
(356,0,l),
(474,0,l),
(282,279,l)
);
},
{
closed = 1;
nodes = (
(454,373,l),
(393,427,l),
(139,227,l),
(149,130,l)
);
}
);
width = 506;
}
);
metricLeft = n;
unicode = 107;
}
{
glyphname = l;
layers = (
{
anchors = (
{
name = bottom;
pos = (142,0);
},
{
name = center;
pos = (142,219);
},
{
name = top;
pos = (142,807);
},
{
name = topright;
pos = (267,437);
}
);
layerId = UUID1;
shapes = (
{
closed = 1;
nodes = (
(72,0,l),
(212,0,l),
(212,789,l),
(72,789,l)
);
}
);
width = 284;
},
{
anchors = (
{
name = bottom;
pos = (113,0);
},
{
name = center;
pos = (113,196);
},
{
name = top;
pos = (118,765);
},
{
name = topright;
pos = (202,391);
}
);
layerId = "4C85334C-E1D4-4EB0-A0B2-9D58DDEA71D9";
shapes = (
{
closed = 1;
nodes = (
(89,0,l),
(136,0,l),
(136,760,l),
(89,760,l)
);
}
);
width = 225;
},
{
anchors = (
{
name = bottom;
pos = (103.833,0);
},
{
name = center;
pos = (103.833,189.333);
},
{
name = top;
pos = (110.5,752.5);
},
{
name = topright;
pos = (182.833,377.667);
}
);
layerId = "93649EC8-ADF5-4C20-AD08-3ED15854CD33";
shapes = (
{
closed = 1;
nodes = (
(94,0,l),
(113.5,0,l),
(113.5,751.667,l),
(94,751.667,l)
);
}
);
width = 208;
},
{
anchors = (
{
name = bottom;
pos = (130,0);
},
{
name = center;
pos = (130,209);
},
{
name = top;
pos = (132,789);
},
{
name = topright;
pos = (240,418);
}
);
layerId = "3DCE0E54-12D6-4F05-956C-7616B59038AD";
shapes = (
{
closed = 1;
nodes = (
(79,0,l),
(180,0,l),
(180,777,l),
(79,777,l)
);
}
);
width = 259;
}
);
metricLeft = n;
metricRight = n;
unicode = 108;
}
{
glyphname = m;
kernLeft = n;
layers = (
{
anchors = (
{
name = bottom;
pos = (432,0);
},
{
name = top;
pos = (432,437);
}
);
layerId = UUID1;
shapes = (
{
closed = 1;
nodes = (
(72,437,l),
(72,0,l),
(212,0,l),
(212,181,l),
(212,257,o),
(247,338,o),
(313,338,c),
(352,335,o),
(360,309,o),
(362,270,c),
(362,0,l),
(502,0,l),
(502,179,l),
(502,257,o),
(537,338,o),
(606,338,c),
(644,335,o),
(650,309,o),
(652,270,c),
(652,0,l),
(791,0,l),
(791,328,l),
(789,405,o),
(735,459,o),
(648,459,c),
(590,459,o),
(535,423,o),
(498,368,c),
(503,369,l),
(488,430,o),
(438,459,o),
(367,459,c),
(294,459,o),
(242,425,o),
(208,366,c),
(210,360,l),
(199,437,l)
);
}
);
width = 863;
},
{
anchors = (
{
name = bottom;
pos = (394,0);
},
{
name = top;
pos = (394,391);
}
);
layerId = "4C85334C-E1D4-4EB0-A0B2-9D58DDEA71D9";
shapes = (
{
closed = 1;
nodes = (
(89,391,l),
(89,0,l),
(136,0,l),
(136,210,ls),
(136,294,o),
(203,361,o),
(283,361,c),
(340,358,o),
(368,321,o),
(370,275,c),
(370,0,l),
(417,0,l),
(417,214,l),
(421,295,o),
(486,361,o),
(565,361,c),
(622,358,o),
(649,321,o),
(651,275,c),
(651,0,l),
(698,0,l),
(698,285,l),
(696,354,o),
(650,402,o),
(575,402,cs),
(506,402,o),
(440,366,o),
(412,300,c),
(418,306,l),
(412,362,o),
(361,402,o),
(296,402,cs),
(222,402,o),
(155,360,o),
(128,292,c),
(135,282,l),
(130,391,l)
);
}
);
width = 787;
},
{
anchors = (
{
name = bottom;
pos = (382.333,0);
},
{
name = top;
pos = (382.333,377.667);
}
);
layerId = "93649EC8-ADF5-4C20-AD08-3ED15854CD33";
shapes = (
{
closed = 1;
nodes = (
(94,377.667,l),
(94,0,l),
(113.5,0,l),
(113.5,219.167,ls),
(113.5,304.833,o),
(189.667,367.667,o),
(273.833,367.667,c),
(336.667,364.667,o),
(370.5,324.333,o),
(372.5,276.667,c),
(372.5,0,l),
(392,0,l),
(392,224.833,l),
(396.833,305.833,o),
(471,367.667,o),
(552.5,367.667,c),
(615.333,364.667,o),
(649,324.333,o),
(651,276.667,c),
(651,0,l),
(670.5,0,l),
(670.5,281.667,l),
(668.5,339,o),
(624.167,385.333,o),
(553.333,385.333,cs),
(481,385.333,o),
(415.833,347.667,o),
(390.333,279.167,c),
(393.833,285.167,l),
(391.167,340.333,o),
(337.667,385.333,o),
(275.167,385.333,cs),
(200.333,385.333,o),
(132.5,340.833,o),
(108,269.5,c),
(111.667,260.333,l),
(109.167,377.667,l)
);
}
);
width = 765;
},
{
anchors = (
{
name = bottom;
pos = (416,0);
},
{
name = top;
pos = (416,418);
}
);
layerId = "3DCE0E54-12D6-4F05-956C-7616B59038AD";
shapes = (
{
closed = 1;
nodes = (
(79,418,l),
(79,0,l),
(180,0,l),
(180,193,l),
(180,273,o),
(229,348,o),
(300,348,c),
(347,345,o),
(363,314,o),
(365,272,c),
(365,0,l),
(466,0,l),
(466,194,l),
(468,273,o),
(516,348,o),
(589,348,c),
(635,345,o),
(650,314,o),
(652,272,c),
(652,0,l),
(752,0,l),
(752,310,l),
(750,384,o),
(699,435,o),
(617,435,c),
(555,435,o),
(495,399,o),
(462,339,c),
(467,343,l),
(456,401,o),
(406,435,o),
(337,435,c),
(264,435,o),
(205,398,o),
(174,335,c),
(179,327,l),
(170,418,l)
);
}
);
width = 831;
}
);
metricLeft = n;
metricRight = n;
unicode = 109;
}
{
glyphname = n;
kernLeft = n;
kernRight = n;
layers = (
{
anchors = (
{
name = bottom;
pos = (297,0);
},
{
name = top;
pos = (297,447);
}
);
layerId = UUID1;
shapes = (
{
closed = 1;
nodes = (
(72,437,l),
(72,0,l),
(212,0,l),
(212,178,l),
(212,271,o),
(253,339,o),
(318,339,c),
(363,339,o),
(380,314,o),
(382,275,c),
(382,0,l),
(522,0,l),
(522,327,l),
(520,404,o),
(458,458,o),
(376,458,c),
(295,458,o),
(239,421,o),
(208,366,c),
(210,359,l),
(199,437,l)
);
}
);
width = 594;
},
{
anchors = (
{
name = bottom;
pos = (256,0);
},
{
name = top;
pos = (256,394);
}
);
layerId = "4C85334C-E1D4-4EB0-A0B2-9D58DDEA71D9";
shapes = (
{
closed = 1;
nodes = (
(89,391,l),
(89,0,l),
(136,0,l),
(136,210,ls),
(136,300,o),
(205,361,o),
(284,361,c),
(343,359,o),
(373,322,o),
(375,272,c),
(375,0,l),
(423,0,l),
(423,285,l),
(421,354,o),
(372,402,o),
(299,402,cs),
(222,402,o),
(152,360,o),
(129,292,c),
(135,268,l),
(130,391,l)
);
}
);
width = 512;
},
{
anchors = (
{
name = bottom;
pos = (243.5,0);
},
{
name = top;
pos = (243.5,378.167);
}
);
layerId = "93649EC8-ADF5-4C20-AD08-3ED15854CD33";
shapes = (
{
closed = 1;
nodes = (
(94,377.667,l),
(94,0,l),
(113.5,0,l),
(113.5,219.167,ls),
(113.5,308.333,o),
(190.833,367.667,o),
(274,367.667,c),
(337.167,364.833,o),
(371.333,324.5,o),
(373.333,271.167,c),
(373.333,0,l),
(393,0,l),
(393,272.5,l),
(391,339,o),
(346.167,385.333,o),
(275.667,385.333,cs),
(200.333,385.333,o),
(131.167,341.667,o),
(109.833,270.333,c),
(112.5,256.333,l),
(109.167,377.667,l)
);
}
);
width = 487;
},
{
anchors = (
{
name = bottom;
pos = (280,0);
},
{
name = top;
pos = (280,425);
}
);
layerId = "3DCE0E54-12D6-4F05-956C-7616B59038AD";
shapes = (
{
closed = 1;
nodes = (
(79,418,l),
(79,0,l),
(180,0,l),
(180,191,l),
(180,283,o),
(233,348,o),
(304,348,c),
(355,347,o),
(377,317,o),
(379,274,c),
(379,0,l),
(480,0,l),
(480,309,l),
(478,383,o),
(422,434,o),
(344,434,c),
(264,434,o),
(202,395,o),
(175,335,c),
(179,321,l),
(170,418,l)
);
}
);
width = 560;
}
);
unicode = 110;
}
{
glyphname = o;
kernLeft = o;
kernRight = o;
layers = (
{
anchors = (
{
name = bottom;
pos = (286,0);
},
{
name = center;
pos = (286,219);
},
{
name = ogonek;
pos = (517,10);
},
{
name = top;
pos = (286,457);
},
{
name = topright;
pos = (450,437);
}
);
layerId = UUID1;
shapes = (
{
closed = 1;
nodes = (
(38,76,o),
(142,-12,o),
(287,-12,c),
(440,-12,o),
(533,90,o),
(533,224,c),
(533,358,o),
(439,458,o),
(289,458,c),
(140,458,o),
(38,358,o),
(38,224,c)
);
},
{
closed = 1;
nodes = (
(179,292,o),
(224,344,o),
(285,344,c),
(350,344,o),
(392,292,o),
(392,223,c),
(392,154,o),
(350,102,o),
(285,102,c),
(224,102,o),
(179,154,o),
(179,223,c)
);
}
);
width = 571;
},
{
anchors = (
{
name = bottom;
pos = (260,0);
},
{
name = center;
pos = (260,196);
},
{
name = ogonek;
pos = (441,10);
},
{
name = top;
pos = (260,397);
},
{
name = topright;
pos = (373,391);
}
);
layerId = "4C85334C-E1D4-4EB0-A0B2-9D58DDEA71D9";
shapes = (
{
closed = 1;
nodes = (
(51,77,o),
(141,-8,o),
(259,-8,cs),
(379,-8,o),
(468,83,o),
(468,198,cs),
(468,312,o),
(379,404,o),
(260,404,cs),
(141,404,o),
(51,312,o),
(51,198,c)
);
},
{
closed = 1;
nodes = (
(98,283,o),
(166,363,o),
(259,363,cs),
(349,363,o),
(420,289,o),
(420,197,cs),
(420,105,o),
(349,32,o),
(259,32,cs),
(169,32,o),
(98,105,o),
(98,197,c)
);
}
);
width = 519;
},
{
anchors = (
{
name = bottom;
pos = (251.667,0);
},
{
name = center;
pos = (251.667,189.333);
},
{
name = ogonek;
pos = (418.5,10);
},
{
name = top;
pos = (251.667,378.667);
},
{
name = topright;
pos = (349.667,377.667);
}
);
layerId = "93649EC8-ADF5-4C20-AD08-3ED15854CD33";
shapes = (
{
closed = 1;
nodes = (
(54.333,77,o),
(141,-6.333,o),
(250.667,-6.333,cs),
(360.667,-6.333,o),
(448.833,80.5,o),
(448.833,189.667,cs),
(448.833,298.667,o),
(360.667,387.333,o),
(250.833,387.333,cs),
(141,387.333,o),
(54.333,298.667,o),
(54.333,189.667,c)
);
},
{
closed = 1;
nodes = (
(73.833,280.5,o),
(148.5,368.833,o),
(250.667,368.833,cs),
(349,368.833,o),
(428.333,288.167,o),
(428.333,189.5,cs),
(428.333,90.833,o),
(349,11.167,o),
(250.667,11.167,cs),
(152.333,11.167,o),
(73.833,90.833,o),
(73.833,189.5,c)
);
}
);
width = 503;
},
{
anchors = (
{
name = bottom;
pos = (275,0);
},
{
name = center;
pos = (275,209);
},
{
name = ogonek;
pos = (485,10);
},
{
name = top;
pos = (275,432);
},
{
name = topright;
pos = (418,418);
}
);
layerId = "3DCE0E54-12D6-4F05-956C-7616B59038AD";
shapes = (
{
closed = 1;
nodes = (
(43,76,o),
(142,-10,o),
(275,-10,c),
(414,-10,o),
(506,87,o),
(506,213,c),
(506,339,o),
(414,435,o),
(277,435,c),
(140,435,o),
(43,339,o),
(43,213,c)
);
},
{
closed = 1;
nodes = (
(145,288,o),
(200,352,o),
(274,352,c),
(350,352,o),
(404,291,o),
(404,212,c),
(404,133,o),
(350,73,o),
(274,73,c),
(201,73,o),
(145,133,o),
(145,212,c)
);
}
);
width = 549;
}
);
unicode = 111;
}
{
glyphname = p;
kernRight = o;
layers = (
{
anchors = (
{
name = bottom;
pos = (313,0);
},
{
name = top;
pos = (313,437);
}
);
layerId = UUID1;
shapes = (
{
closed = 1;
nodes = (
(485,-12,o),
(586,72,o),
(586,220,c),
(586,369,o),
(496,459,o),
(374,459,c),
(301,459,o),
(246,430,o),
(201,392,c),
(212,362,l),
(192,447,l),
(72,447,l),
(72,-210,l),
(211,-210,l),
(211,85,l),
(207,44,l),
(240,8,o),
(294,-12,o),
(346,-12,c)
);
},
{
closed = 1;
nodes = (
(267,98,o),
(227,125,o),
(212,168,c),
(212,275,l),
(236,319,o),
(272,341,o),
(328,341,c),
(392,341,o),
(444,292,o),
(444,218,c),
(444,147,o),
(385,98,o),
(318,98,c)
);
}
);
width = 624;
},
{
anchors = (
{
name = bottom;
pos = (281,0);
},
{
name = top;
pos = (281,391);
}
);
layerId = "4C85334C-E1D4-4EB0-A0B2-9D58DDEA71D9";
shapes = (
{
closed = 1;
nodes = (
(421,-8,o),
(511,77,o),
(511,196,cs),
(511,315,o),
(424,403,o),
(312,403,cs),
(233,403,o),
(161,358,o),
(127,295,c),
(136,266,l),
(131,394,l),
(89,394,l),
(89,-188,l),
(136,-188,l),
(136,115,l),
(128,98,l),
(158,35,o),
(230,-8,o),
(305,-8,cs)
);
},
{
closed = 1;
nodes = (
(212,31,o),
(142,96,o),
(136,179,c),
(136,211,l),
(143,296,o),
(212,362,o),
(300,362,cs),
(391,362,o),
(463,290,o),
(463,196,cs),
(463,104,o),
(389,31,o),
(297,31,cs)
);
}
);
width = 562;
},
{
anchors = (
{
name = bottom;
pos = (271.833,0);
},
{
name = top;
pos = (271.833,377.667);
}
);
layerId = "93649EC8-ADF5-4C20-AD08-3ED15854CD33";
shapes = (
{
closed = 1;
nodes = (
(401.833,-6.333,o),
(488.5,78.667,o),
(488.5,189.333,cs),
(488.5,299.167,o),
(402.333,386.333,o),
(293.667,386.333,cs),
(212.167,386.333,o),
(141.833,336.333,o),
(112,265.833,c),
(113.5,236.833,l),
(112.667,378.167,l),
(94,378.167,l),
(94,-181.333,l),
(113.5,-181.333,l),
(113.5,138.333,l),
(111.333,113.833,l),
(139.667,43.333,o),
(210.833,-6.333,o),
(292.5,-6.333,cs)
);
},
{
closed = 1;
nodes = (
(195.333,11,o),
(117,87.667,o),
(113.5,182.333,c),
(113.5,191.833,l),
(114.667,289.333,o),
(193.667,368.667,o),
(291.667,368.667,cs),
(390.167,368.667,o),
(468.833,289.167,o),
(468.833,189.333,cs),
(468.833,90.667,o),
(389.833,11,o),
(291.167,11,cs)
);
}
);
width = 543;
},
{
anchors = (
{
name = bottom;
pos = (300,0);
},
{
name = top;
pos = (300,418);
}
);
layerId = "3DCE0E54-12D6-4F05-956C-7616B59038AD";
shapes = (
{
closed = 1;
nodes = (
(458,-10,o),
(555,74,o),
(555,210,c),
(555,346,o),
(466,435,o),
(348,435,c),
(272,435,o),
(210,400,o),
(170,351,c),
(180,322,l),
(166,425,l),
(79,425,l),
(79,-201,l),
(180,-201,l),
(180,98,l),
(174,67,l),
(206,19,o),
(267,-10,o),
(329,-10,c)
);
},
{
closed = 1;
nodes = (
(244,70,o),
(191,113,o),
(180,173,c),
(180,248,l),
(197,309,o),
(247,350,o),
(316,350,c),
(392,350,o),
(452,291,o),
(452,209,c),
(452,129,o),
(387,70,o),
(309,70,c)
);
}
);
width = 598;
}
);
metricLeft = n;
metricRight = o;
unicode = 112;
}
{
glyphname = q;
kernLeft = o;
layers = (
{
anchors = (
{
name = bottom;
pos = (312,0);
},
{
name = top;
pos = (312,437);
}
);
layerId = UUID1;
shapes = (
{
closed = 1;
nodes = (
(320,-12,o),
(380,11,o),
(415,40,c),
(413,85,l),
(413,-210,l),
(552,-210,l),
(552,447,l),
(412,447,l),
(412,362,l),
(423,392,l),
(386,432,o),
(340,459,o),
(265,459,c),
(145,459,o),
(38,368,o),
(38,219,c),
(38,71,o),
(133,-12,o),
(246,-12,c)
);
},
{
closed = 1;
nodes = (
(234,98,o),
(180,148,o),
(180,218,c),
(180,288,o),
(234,341,o),
(296,341,c),
(352,341,o),
(388,319,o),
(412,275,c),
(412,168,l),
(396,125,o),
(352,98,o),
(296,98,c)
);
}
);
width = 624;
},
{
anchors = (
{
name = bottom;
pos = (281,0);
},
{
name = top;
pos = (281,391);
}
);
layerId = "4C85334C-E1D4-4EB0-A0B2-9D58DDEA71D9";
shapes = (
{
closed = 1;
nodes = (
(329,-8,o),
(402,33,o),
(432,94,c),
(426,127,l),
(426,-188,l),
(473,-188,l),
(473,394,l),
(425,394,l),
(425,266,l),
(436,294,l),
(405,358,o),
(333,403,o),
(260,403,cs),
(142,403,o),
(51,316,o),
(51,196,cs),
(51,78,o),
(139,-8,o),
(248,-8,cs)
);
},
{
closed = 1;
nodes = (
(172,31,o),
(98,104,o),
(98,196,cs),
(98,289,o),
(172,362,o),
(261,362,cs),
(350,362,o),
(419,296,o),
(425,211,c),
(425,177,l),
(418,95,o),
(348,31,o),
(261,31,cs)
);
}
);
width = 562;
},
{
anchors = (
{
name = bottom;
pos = (271.833,0);
},
{
name = top;
pos = (271.833,377.667);
}
);
layerId = "93649EC8-ADF5-4C20-AD08-3ED15854CD33";
shapes = (
{
closed = 1;
nodes = (
(331.5,-6.333,o),
(402.833,43,o),
(431.167,113.167,c),
(429.333,134.5,l),
(429.333,-181.333,l),
(448.833,-181.333,l),
(448.833,378.167,l),
(429.167,378.167,l),
(429.167,237.667,l),
(433.5,261.5,l),
(404.167,332.167,o),
(331.333,386.333,o),
(250.833,386.333,cs),
(141.167,386.333,o),
(54.333,300.167,o),
(54.333,189.333,cs),
(54.333,79.667,o),
(140.667,-6.333,o),
(248.833,-6.333,cs)
);
},
{
closed = 1;
nodes = (
(152.833,11,o),
(73.833,90.667,o),
(73.833,189.333,cs),
(73.833,289,o),
(152.833,368.667,o),
(251,368.667,cs),
(349.167,368.667,o),
(428.167,289.333,o),
(429.167,191.833,c),
(429.167,179.5,l),
(424.667,85.833,o),
(346.333,11,o),
(251,11,cs)
);
}
);
width = 543;
},
{
anchors = (
{
name = bottom;
pos = (299,0);
},
{
name = top;
pos = (299,418);
}
);
layerId = "3DCE0E54-12D6-4F05-956C-7616B59038AD";
shapes = (
{
closed = 1;
nodes = (
(324,-10,o),
(389,20,o),
(422,63,c),
(418,103,l),
(418,-201,l),
(519,-201,l),
(519,425,l),
(417,425,l),
(417,322,l),
(428,351,l),
(394,401,o),
(337,435,o),
(263,435,c),
(144,435,o),
(43,346,o),
(43,209,c),
(43,74,o),
(136,-10,o),
(247,-10,c)
);
},
{
closed = 1;
nodes = (
(208,70,o),
(146,130,o),
(146,209,c),
(146,288,o),
(208,350,o),
(281,350,c),
(351,350,o),
(401,309,o),
(417,248,c),
(417,172,l),
(405,112,o),
(350,70,o),
(281,70,c)
);
}
);
width = 598;
}
);
metricLeft = o;
metricRight = n;
unicode = 113;
}
{
glyphname = r;
kernLeft = n;
kernRight = r;
layers = (
{
anchors = (
{
name = bottom;
pos = (127,0);
},
{
name = top;
pos = (194,437);
}
);
layerId = UUID1;
shapes = (
{
closed = 1;
nodes = (
(72,437,l),
(72,0,l),
(211,0,l),
(211,171,l),
(211,247,o),
(270,330,o),
(368,319,c),
(375,459,l),
(340,459,o),
(246,412,o),
(208,335,c),
(211,317,l),
(198,437,l)
);
}
);
width = 410;
},
{
anchors = (
{
name = bottom;
pos = (151,0);
},
{
name = top;
pos = (168,391);
}
);
layerId = "4C85334C-E1D4-4EB0-A0B2-9D58DDEA71D9";
shapes = (
{
closed = 1;
nodes = (
(89,391,l),
(89,0,l),
(136,0,l),
(136,207,ls),
(136,291,o),
(208,356,o),
(297,356,c),
(299,402,l),
(235,401,o),
(155,358,o),
(129,286,c),
(135,271,l),
(130,391,l)
);
}
);
width = 342;
},
{
anchors = (
{
name = bottom;
pos = (157.667,0);
},
{
name = top;
pos = (160.5,377.667);
}
);
layerId = "93649EC8-ADF5-4C20-AD08-3ED15854CD33";
shapes = (
{
closed = 1;
nodes = (
(94,377.667,l),
(94,0,l),
(113.5,0,l),
(113.5,217.833,ls),
(113.5,304.333,o),
(188.833,364.333,o),
(276.167,366.833,c),
(276.5,385.333,l),
(203.333,383.5,o),
(132.5,342.167,o),
(109.833,271,c),
(111.667,260.167,l),
(109.167,377.667,l)
);
}
);
width = 321;
},
{
anchors = (
{
name = bottom;
pos = (137,0);
},
{
name = top;
pos = (183,418);
}
);
layerId = "3DCE0E54-12D6-4F05-956C-7616B59038AD";
shapes = (
{
closed = 1;
nodes = (
(79,418,l),
(79,0,l),
(180,0,l),
(180,186,l),
(180,265,o),
(244,341,o),
(338,335,c),
(343,435,l),
(296,435,o),
(208,389,o),
(175,314,c),
(179,298,l),
(169,418,l)
);
}
);
width = 381;
}
);
metricLeft = n;
unicode = 114;
}
{
glyphname = s;
kernLeft = s;
layers = (
{
anchors = (
{
name = bottom;
pos = (219,-10);
},
{
name = top;
pos = (225,447);
}
);
layerId = UUID1;
shapes = (
{
closed = 1;
nodes = (
(341,-9,o),
(402,65,o),
(402,146,c),
(402,211,o),
(362,249,o),
(299,270,c),
(252,285,o),
(196,292,o),
(198,331,c),
(198,349,o),
(219,366,o),
(255,365,c),
(282,364,o),
(316,348,o),
(341,328,c),
(394,410,l),
(348,443,o),
(302,457,o),
(229,457,c),
(106,457,o),
(56,378,o),
(56,312,c),
(56,254,o),
(89,202,o),
(169,177,c),
(216,163,o),
(262,154,o),
(262,120,c),
(262,96,o),
(236,86,o),
(202,86,c),
(173,86,o),
(135,101,o),
(93,140,c),
(35,63,l),
(77,17,o),
(142,-9,o),
(214,-9,c)
);
}
);
width = 447;
},
{
anchors = (
{
name = bottom;
pos = (183,-3);
},
{
name = top;
pos = (185,394);
}
);
layerId = "4C85334C-E1D4-4EB0-A0B2-9D58DDEA71D9";
shapes = (
{
closed = 1;
nodes = (
(270,-8,o),
(315,43,o),
(315,112,cs),
(315,180,o),
(259,202,o),
(202,221,cs),
(157,237,o),
(113,252,o),
(113,299,cs),
(113,342,o),
(157,362,o),
(192,362,cs),
(219,361,o),
(259,352,o),
(281,323,c),
(302,356,l),
(269,388,o),
(226,400,o),
(185,400,cs),
(116,400,o),
(66,357,o),
(66,293,cs),
(66,234,o),
(107,206,o),
(164,187,cs),
(215,170,o),
(268,157,o),
(268,102,cs),
(268,48,o),
(223,30,o),
(178,30,cs),
(137,30,o),
(98,48,o),
(72,76,c),
(50,45,l),
(81,7,o),
(135,-8,o),
(181,-8,cs)
);
}
);
width = 368;
},
{
anchors = (
{
name = bottom;
pos = (172.167,-0.5);
},
{
name = top;
pos = (172.5,378.167);
}
);
layerId = "93649EC8-ADF5-4C20-AD08-3ED15854CD33";
shapes = (
{
closed = 1;
nodes = (
(248.333,-8,o),
(289.167,36.333,o),
(289.167,102,cs),
(289.167,170.833,o),
(228.167,187.833,o),
(172.833,206.833,cs),
(128.667,222.833,o),
(88,240.333,o),
(88,289,cs),
(88,342.833,o),
(137.833,365.333,o),
(172.833,365.333,cs),
(199.833,365.167,o),
(241.5,353.667,o),
(263.5,326.333,c),
(274.5,339.333,l),
(245.667,371.333,o),
(202.667,382.5,o),
(171.667,382.5,cs),
(119.333,382.5,o),
(68.5,350.333,o),
(68.5,287.167,cs),
(68.5,228.167,o),
(112.833,206.833,o),
(162.333,190.333,cs),
(215,172.5,o),
(269.667,157.833,o),
(269.667,97,cs),
(269.667,30.5,o),
(218.833,9.167,o),
(171.333,9.167,cs),
(126.167,9.167,o),
(86.333,27.167,o),
(66.167,51.833,c),
(54.167,40,l),
(82.667,4.5,o),
(133.333,-8,o),
(171,-8,cs)
);
}
);
width = 344;
},
{
anchors = (
{
name = bottom;
pos = (204,-7);
},
{
name = top;
pos = (208,425);
}
);
layerId = "3DCE0E54-12D6-4F05-956C-7616B59038AD";
shapes = (
{
closed = 1;
nodes = (
(311,-9,o),
(365,56,o),
(365,132,c),
(365,198,o),
(319,229,o),
(258,249,c),
(212,265,o),
(161,275,o),
(162,318,c),
(162,346,o),
(193,364,o),
(229,364,c),
(256,363,o),
(292,350,o),
(316,326,c),
(355,387,l),
(315,420,o),
(270,433,o),
(211,433,c),
(110,433,o),
(60,369,o),
(60,304,c),
(60,246,o),
(97,204,o),
(167,181,c),
(216,166,o),
(265,155,o),
(265,112,c),
(265,76,o),
(231,62,o),
(192,62,c),
(158,62,o),
(119,79,o),
(84,113,c),
(41,55,l),
(79,13,o),
(139,-9,o),
(200,-9,c)
);
}
);
width = 414;
}
);
unicode = 115;
}
{
glyphname = t;
layers = (
{
anchors = (
{
name = bottom;
pos = (176,0);
},
{
name = center;
pos = (187,190);
},
{
name = top;
pos = (187,437);
},
{
name = topright;
pos = (374,437);
}
);
layerId = UUID1;
shapes = (
{
closed = 1;
nodes = (
(113,439,l),
(45,439,l),
(45,330,l),
(113,330,l),
(113,0,l),
(253,0,l),
(253,330,l),
(359,330,l),
(359,439,l),
(253,439,l),
(253,629,l),
(113,629,l)
);
}
);
width = 394;
},
{
anchors = (
{
name = bottom;
pos = (149,0);
},
{
name = center;
pos = (162,201);
},
{
name = top;
pos = (162,391);
},
{
name = topright;
pos = (301,391);
}
);
layerId = "4C85334C-E1D4-4EB0-A0B2-9D58DDEA71D9";
shapes = (
{
closed = 1;
nodes = (
(128,386,l),
(45,386,l),
(45,348,l),
(128,348,l),
(128,0,l),
(176,0,l),
(176,348,l),
(297,348,l),
(297,386,l),
(176,386,l),
(176,563,l),
(128,563,l)
);
}
);
width = 325;
},
{
anchors = (
{
name = bottom;
pos = (129,0);
},
{
name = center;
pos = (154.5,204.333);
},
{
name = top;
pos = (154.5,377.667);
},
{
name = topright;
pos = (279.333,377.667);
}
);
layerId = "93649EC8-ADF5-4C20-AD08-3ED15854CD33";
shapes = (
{
closed = 1;
nodes = (
(133,370.167,l),
(45,370.167,l),
(45,353,l),
(133,353,l),
(133,0,l),
(152.667,0,l),
(152.667,353,l),
(278.667,353,l),
(278.667,370.167,l),
(152.667,370.167,l),
(152.667,543,l),
(133,543,l)
);
}
);
width = 304;
},
{
anchors = (
{
name = bottom;
pos = (165,0);
},
{
name = center;
pos = (177,195);
},
{
name = top;
pos = (177,418);
},
{
name = topright;
pos = (343,418);
}
);
layerId = "3DCE0E54-12D6-4F05-956C-7616B59038AD";
shapes = (
{
closed = 1;
nodes = (
(119,417,l),
(45,417,l),
(45,338,l),
(119,338,l),
(119,0,l),
(221,0,l),
(221,338,l),
(333,338,l),
(333,417,l),
(221,417,l),
(221,601,l),
(119,601,l)
);
}
);
width = 365;
}
);
unicode = 116;
}
{
glyphname = v;
kernLeft = v;
kernRight = v;
layers = (
{
anchors = (
{
name = bottom;
pos = (267,0);
},
{
name = top;
pos = (267,437);
}
);
layerId = UUID1;
shapes = (
{
closed = 1;
nodes = (
(276,-9,l),
(524,437,l),
(368,437,l),
(239,138,l),
(325,135,l),
(176,437,l),
(10,437,l),
(272,-9,l)
);
}
);
width = 534;
},
{
anchors = (
{
name = bottom;
pos = (227,0);
},
{
name = top;
pos = (227,391);
}
);
layerId = "4C85334C-E1D4-4EB0-A0B2-9D58DDEA71D9";
shapes = (
{
closed = 1;
nodes = (
(232,-15,l),
(426,391,l),
(374,391,l),
(217,37,l),
(246,36,l),
(83,391,l),
(28,391,l),
(226,-15,l)
);
}
);
width = 454;
},
{
anchors = (
{
name = bottom;
pos = (215.333,0);
},
{
name = top;
pos = (215.333,377.667);
}
);
layerId = "93649EC8-ADF5-4C20-AD08-3ED15854CD33";
shapes = (
{
closed = 1;
nodes = (
(218.667,-16.667,l),
(396.833,377.667,l),
(375.667,377.667,l),
(210.333,6.167,l),
(221.833,6,l),
(55.5,377.667,l),
(33.833,377.667,l),
(212.667,-16.667,l)
);
}
);
width = 431;
},
{
anchors = (
{
name = bottom;
pos = (250,0);
},
{
name = top;
pos = (250,418);
}
);
layerId = "3DCE0E54-12D6-4F05-956C-7616B59038AD";
shapes = (
{
closed = 1;
nodes = (
(258,-12,l),
(483,418,l),
(371,418,l),
(230,96,l),
(292,93,l),
(137,418,l),
(18,418,l),
(253,-12,l)
);
}
);
width = 500;
}
);
unicode = 118;
}
{
glyphname = w;
kernLeft = w;
kernRight = v;
layers = (
{
anchors = (
{
name = bottom;
pos = (342,0);
},
{
name = top;
pos = (342,437);
}
);
layerId = UUID1;
shapes = (
{
closed = 1;
nodes = (
(265,437,l),
(288,387,l),
(204,201,l),
(252,194,l),
(146,437,l),
(10,437,l),
(209,-26,l),
(337,264,l),
(477,-26,l),
(674,437,l),
(538,437,l),
(454,210,l),
(480,212,l),
(384,437,l)
);
}
);
width = 684;
},
{
anchors = (
{
name = bottom;
pos = (332,0);
},
{
name = top;
pos = (332,391);
}
);
layerId = "4C85334C-E1D4-4EB0-A0B2-9D58DDEA71D9";
shapes = (
{
closed = 1;
nodes = (
(266,391,l),
(309,298,l),
(209,56,l),
(226,51,l),
(75,391,l),
(28,391,l),
(212,-24,l),
(327,254,l),
(453,-24,l),
(637,391,l),
(589,391,l),
(446,57,l),
(457,58,l),
(309,391,l)
);
}
);
width = 665;
},
{
anchors = (
{
name = bottom;
pos = (329.5,0);
},
{
name = top;
pos = (329.5,377.667);
}
);
layerId = "93649EC8-ADF5-4C20-AD08-3ED15854CD33";
shapes = (
{
closed = 1;
nodes = (
(266.833,377.667,l),
(314.833,271.333,l),
(210.667,12.667,l),
(218.5,8.5,l),
(54.167,377.667,l),
(33.833,377.667,l),
(212.833,-23.167,l),
(324.5,251.5,l),
(446.333,-23.167,l),
(625.333,377.667,l),
(604.833,377.667,l),
(443.5,11.167,l),
(450.333,11.333,l),
(286.5,377.667,l)
);
}
);
width = 659;
},
{
anchors = (
{
name = bottom;
pos = (338,0);
},
{
name = top;
pos = (338,418);
}
);
layerId = "3DCE0E54-12D6-4F05-956C-7616B59038AD";
shapes = (
{
closed = 1;
nodes = (
(265,418,l),
(297,350,l),
(206,140,l),
(241,134,l),
(116,418,l),
(18,418,l),
(210,-25,l),
(333,260,l),
(467,-25,l),
(658,418,l),
(559,418,l),
(451,146,l),
(470,147,l),
(353,418,l)
);
}
);
width = 676;
}
);
metricLeft = v;
metricRight = v;
unicode = 119;
}
{
glyphname = x;
kernLeft = x;
layers = (
{
anchors = (
{
name = bottom;
pos = (256,0);
},
{
name = top;
pos = (256,437);
}
);
layerId = UUID1;
shapes = (
{
closed = 1;
nodes = (
(319,197,l),
(492,437,l),
(353,437,l),
(270,298,l)
);
},
{
closed = 1;
nodes = (
(182,437,l),
(10,437,l),
(347,0,l),
(516,0,l)
);
},
{
closed = 1;
nodes = (
(188,234,l),
(15,0,l),
(154,0,l),
(252,140,l)
);
}
);
width = 526;
},
{
anchors = (
{
name = bottom;
pos = (201,0);
},
{
name = top;
pos = (201,391);
}
);
layerId = "4C85334C-E1D4-4EB0-A0B2-9D58DDEA71D9";
shapes = (
{
closed = 1;
nodes = (
(224,187,l),
(369,391,l),
(320,391,l),
(204,222,l)
);
},
{
closed = 1;
nodes = (
(87,391,l),
(28,391,l),
(321,0,l),
(377,0,l)
);
},
{
closed = 1;
nodes = (
(177,199,l),
(33,0,l),
(83,0,l),
(203,168,l)
);
}
);
width = 405;
},
{
anchors = (
{
name = bottom;
pos = (184.333,0);
},
{
name = top;
pos = (184.333,377.667);
}
);
layerId = "93649EC8-ADF5-4C20-AD08-3ED15854CD33";
shapes = (
{
closed = 1;
nodes = (
(195.667,183.667,l),
(332.333,376.833,l),
(310,376.833,l),
(184,198.667,l)
);
},
{
closed = 1;
nodes = (
(58.667,377.667,l),
(33.833,377.667,l),
(312.667,0,l),
(335.333,0,l)
);
},
{
closed = 1;
nodes = (
(173.667,189,l),
(38,0,l),
(61.333,0,l),
(188,176.333,l)
);
}
);
width = 369;
},
{
anchors = (
{
name = bottom;
pos = (233,0);
},
{
name = top;
pos = (233,418);
}
);
layerId = "3DCE0E54-12D6-4F05-956C-7616B59038AD";
shapes = (
{
closed = 1;
nodes = (
(279,193,l),
(440,418,l),
(339,418,l),
(242,266,l)
);
},
{
closed = 1;
nodes = (
(142,418,l),
(18,418,l),
(336,0,l),
(458,0,l)
);
},
{
closed = 1;
nodes = (
(183,219,l),
(23,0,l),
(124,0,l),
(231,152,l)
);
}
);
width = 475;
}
);
unicode = 120;
}
{
glyphname = y;
kernLeft = v;
kernRight = v;
layers = (
{
anchors = (
{
name = bottom;
pos = (437,-10);
},
{
name = top;
pos = (277,437);
}
);
layerId = UUID1;
shapes = (
{
closed = 1;
nodes = (
(242,-210,l),
(524,437,l),
(398,437,l),
(107,-210,l)
);
},
{
closed = 1;
nodes = (
(332,68,l),
(167,437,l),
(10,437,l),
(224,-2,l)
);
}
);
width = 534;
},
{
anchors = (
{
name = bottom;
pos = (353,-3);
},
{
name = top;
pos = (230,391);
}
);
layerId = "4C85334C-E1D4-4EB0-A0B2-9D58DDEA71D9";
shapes = (
{
closed = 1;
nodes = (
(174,-188,l),
(426,391,l),
(380,391,l),
(125,-188,l)
);
},
{
closed = 1;
nodes = (
(250,21,l),
(81,391,l),
(28,391,l),
(213,-4,l)
);
}
);
width = 454;
},
{
anchors = (
{
name = bottom;
pos = (328,-0.5);
},
{
name = top;
pos = (215.833,377.667);
}
);
layerId = "93649EC8-ADF5-4C20-AD08-3ED15854CD33";
shapes = (
{
closed = 1;
nodes = (
(154,-181.333,l),
(396.833,377.667,l),
(375,377.667,l),
(130,-181.333,l)
);
},
{
closed = 1;
nodes = (
(225.833,6.833,l),
(55.167,377.667,l),
(33.833,377.667,l),
(209.667,-4.833,l)
);
}
);
width = 431;
},
{
anchors = (
{
name = bottom;
pos = (402,-7);
},
{
name = top;
pos = (257,418);
}
);
layerId = "3DCE0E54-12D6-4F05-956C-7616B59038AD";
shapes = (
{
closed = 1;
nodes = (
(213,-201,l),
(483,418,l),
(390,418,l),
(115,-201,l)
);
},
{
closed = 1;
nodes = (
(298,48,l),
(131,418,l),
(18,418,l),
(219,-3,l)
);
}
);
width = 501;
}
);
metricLeft = v;
metricRight = v;
unicode = 121;
}
{
glyphname = z;
layers = (
{
anchors = (
{
name = bottom;
pos = (261,0);
},
{
name = top;
pos = (261,437);
}
);
layerId = UUID1;
shapes = (
{
closed = 1;
nodes = (
(290,323,l),
(269,363,l),
(20,0,l),
(463,0,l),
(463,114,l),
(198,114,l),
(224,85,l),
(466,437,l),
(189,437,ls),
(164,437,o),
(155,437,o),
(155,465,cs),
(155,479,l),
(50,479,l),
(50,419,ls),
(50,360,o),
(92,323,o),
(140,323,cs)
);
}
);
width = 522;
},
{
anchors = (
{
name = bottom;
pos = (193,0);
},
{
name = top;
pos = (208,391);
}
);
layerId = "4C85334C-E1D4-4EB0-A0B2-9D58DDEA71D9";
shapes = (
{
closed = 1;
nodes = (
(303,352,l),
(293,365,l),
(36,0,l),
(359,0,l),
(359,40,l),
(99,40,l),
(109,30,l),
(363,391,l),
(110,391,ls),
(87,391,o),
(76,400,o),
(76,416,cs),
(76,428,l),
(39,428,l),
(39,409,ls),
(39,366,o),
(64,352,o),
(99,352,cs)
);
}
);
width = 404;
},
{
anchors = (
{
name = bottom;
pos = (173,0);
},
{
name = top;
pos = (192.167,377.667);
}
);
layerId = "93649EC8-ADF5-4C20-AD08-3ED15854CD33";
shapes = (
{
closed = 1;
nodes = (
(307.167,360.333,l),
(300.5,365.833,l),
(41,0,l),
(327.333,0,l),
(327.333,17.5,l),
(69,17.5,l),
(74,13.333,l),
(332.167,377.667,l),
(85.833,377.667,ls),
(63.667,377.667,o),
(52.667,388.333,o),
(52.667,401,cs),
(52.667,413,l),
(35.667,413,l),
(35.667,406.5,ls),
(35.667,367.667,o),
(55.667,360.333,o),
(86.5,360.333,cs)
);
}
);
width = 368;
},
{
anchors = (
{
name = bottom;
pos = (232,0);
},
{
name = top;
pos = (239,418);
}
);
layerId = "3DCE0E54-12D6-4F05-956C-7616B59038AD";
shapes = (
{
closed = 1;
nodes = (
(295,335,l),
(279,364,l),
(27,0,l),
(419,0,l),
(419,83,l),
(156,83,l),
(176,62,l),
(423,418,l),
(156,418,ls),
(132,418,o),
(122,421,o),
(122,444,cs),
(122,458,l),
(45,458,l),
(45,415,ls),
(45,363,o),
(80,335,o),
(123,335,cs)
);
}
);
width = 472;
}
);
unicode = 122;
}
{
glyphname = braceleft;
layers = (
{
layerId = UUID1;
shapes = (
{
closed = 1;
nodes = (
(351,639,l),
(351,761,l),
(272,761,ls),
(194,761,o),
(116,767,o),
(116,640,cs),
(116,482,ls),
(116,421,o),
(89,366,o),
(35,365,c),
(35,249,l),
(35,249,l),
(89,248,o),
(116,192,o),
(116,132,cs),
(116,-33,ls),
(116,-162,o),
(198,-153,o),
(272,-153,cs),
(351,-153,l),
(351,-31,l),
(314,-31,ls),
(272,-31,o),
(261,-23,o),
(261,68,cs),
(261,188,ls),
(261,246,o),
(216,288,o),
(195,305,c),
(220,322,o),
(261,364,o),
(261,441,cs),
(261,539,ls),
(261,630,o),
(272,639,o),
(314,639,cs)
);
}
);
width = 401;
},
{
layerId = "4C85334C-E1D4-4EB0-A0B2-9D58DDEA71D9";
shapes = (
{
closed = 1;
nodes = (
(264,707,l),
(264,750,l),
(215,750,ls),
(163,750,o),
(111,754,o),
(111,631,cs),
(111,456,ls),
(111,400,o),
(93,328,o),
(31,325,c),
(31,277,l),
(31,277,l),
(93,274,o),
(111,202,o),
(111,147,cs),
(111,-4,ls),
(111,-155,o),
(157,-149,o),
(215,-149,cs),
(264,-149,l),
(264,-107,l),
(212,-107,ls),
(171,-107,o),
(160,-81,o),
(160,2,cs),
(160,144,ls),
(160,250,o),
(125,281,o),
(94,301,c),
(126,319,o),
(160,350,o),
(160,462,cs),
(160,599,ls),
(160,681,o),
(171,707,o),
(212,707,cs)
);
}
);
width = 306;
},
{
layerId = "93649EC8-ADF5-4C20-AD08-3ED15854CD33";
shapes = (
{
closed = 1;
nodes = (
(237.333,727.833,l),
(237.333,746.667,l),
(198.333,746.667,ls),
(153.833,746.667,o),
(109.333,749.833,o),
(109.333,628.5,cs),
(109.333,447.667,ls),
(109.333,393.333,o),
(94.667,316.333,o),
(30.167,313.333,c),
(30.167,285.333,l),
(30.167,285.333,l),
(94.667,282.333,o),
(109.333,205.333,o),
(109.333,151.167,cs),
(109.333,4.333,ls),
(109.333,-152.5,o),
(144.5,-148.167,o),
(198.333,-148.167,cs),
(237.333,-148.167,l),
(237.333,-129.5,l),
(181.167,-129.5,ls),
(140.167,-129.5,o),
(129.167,-98.5,o),
(129.167,-18,cs),
(129.167,130.667,ls),
(129.167,250.833,o),
(97.5,279.333,o),
(63.167,299.333,c),
(97.667,318.167,o),
(129.167,345.833,o),
(129.167,468.667,cs),
(129.167,616.5,ls),
(129.167,696.833,o),
(140.167,727.833,o),
(181.167,727.833,cs)
);
}
);
width = 278;
},
{
layerId = "3DCE0E54-12D6-4F05-956C-7616B59038AD";
shapes = (
{
closed = 1;
nodes = (
(314,668,l),
(314,756,l),
(248,756,ls),
(181,756,o),
(114,762,o),
(114,636,cs),
(114,471,ls),
(114,412,o),
(91,350,o),
(33,348,c),
(33,261,l),
(33,261,l),
(91,259,o),
(114,196,o),
(114,138,cs),
(114,-21,ls),
(114,-159,o),
(181,-151,o),
(248,-151,cs),
(314,-151,l),
(314,-63,l),
(271,-63,ls),
(230,-63,o),
(219,-47,o),
(219,40,cs),
(219,170,ls),
(219,248,o),
(178,285,o),
(153,303,c),
(181,321,o),
(219,358,o),
(219,450,cs),
(219,564,ls),
(219,651,o),
(230,668,o),
(271,668,cs)
);
}
);
width = 361;
}
);
unicode = 123;
}
{
glyphname = bar;
layers = (
{
layerId = UUID1;
shapes = (
{
closed = 1;
nodes = (
(88,-237,l),
(214,-237,l),
(214,714,l),
(88,714,l)
);
}
);
width = 306;
},
{
layerId = "4C85334C-E1D4-4EB0-A0B2-9D58DDEA71D9";
shapes = (
{
closed = 1;
nodes = (
(96,-233,l),
(140,-233,l),
(140,704,l),
(96,704,l)
);
}
);
width = 242;
},
{
layerId = "93649EC8-ADF5-4C20-AD08-3ED15854CD33";
shapes = (
{
closed = 1;
nodes = (
(98.5,-232.167,l),
(117.5,-232.167,l),
(117.5,700.667,l),
(98.5,700.667,l)
);
}
);
width = 223;
},
{
layerId = "3DCE0E54-12D6-4F05-956C-7616B59038AD";
shapes = (
{
closed = 1;
nodes = (
(91,-235,l),
(183,-235,l),
(183,710,l),
(91,710,l)
);
}
);
width = 279;
}
);
unicode = 124;
}
{
glyphname = braceright;
layers = (
{
layerId = UUID1;
shapes = (
{
closed = 1;
nodes = (
(50,-31,l),
(50,-153,l),
(129,-153,ls),
(207,-153,o),
(285,-159,o),
(285,-32,cs),
(285,126,ls),
(285,187,o),
(312,242,o),
(366,243,c),
(366,359,l),
(312,360,o),
(285,416,o),
(285,476,cs),
(285,641,ls),
(285,770,o),
(203,761,o),
(129,761,cs),
(50,761,l),
(50,639,l),
(87,639,ls),
(129,639,o),
(140,631,o),
(140,540,cs),
(140,420,ls),
(140,362,o),
(185,320,o),
(206,303,c),
(181,286,o),
(140,244,o),
(140,167,cs),
(140,69,ls),
(140,-22,o),
(129,-31,o),
(87,-31,cs)
);
}
);
width = 401;
},
{
layerId = "4C85334C-E1D4-4EB0-A0B2-9D58DDEA71D9";
shapes = (
{
closed = 1;
nodes = (
(78,-107,l),
(78,-149,l),
(126,-149,ls),
(178,-149,o),
(231,-155,o),
(231,-31,cs),
(231,119,ls),
(231,168,o),
(234,272,o),
(310,275,c),
(310,324,l),
(234,327,o),
(231,431,o),
(231,480,cs),
(231,631,ls),
(231,755,o),
(178,750,o),
(126,750,cs),
(78,750,l),
(78,707,l),
(130,707,ls),
(171,707,o),
(182,682,o),
(182,599,cs),
(182,457,ls),
(182,350,o),
(217,319,o),
(248,300,c),
(223,285,o),
(182,252,o),
(182,166,cs),
(182,2,ls),
(182,-81,o),
(171,-107,o),
(130,-107,cs)
);
}
);
width = 341;
},
{
layerId = "93649EC8-ADF5-4C20-AD08-3ED15854CD33";
shapes = (
{
closed = 1;
nodes = (
(86,-129,l),
(86,-148,l),
(125,-148,ls),
(170,-148,o),
(214,-153,o),
(214,-30,cs),
(214,117,ls),
(214,162,o),
(211,281,o),
(293,285,c),
(293,313,l),
(211,317,o),
(214,435,o),
(214,482,cs),
(214,629,ls),
(214,751,o),
(171,747,o),
(125,747,cs),
(86,747,l),
(86,728,l),
(143,728,ls),
(184,728,o),
(195,697,o),
(195,617,cs),
(195,468,ls),
(195,346,o),
(226,318,o),
(261,299,c),
(236,285,o),
(195,255,o),
(195,165,cs),
(195,-18,ls),
(195,-98,o),
(184,-129,o),
(143,-129,cs)
);
}
);
width = 324;
},
{
layerId = "3DCE0E54-12D6-4F05-956C-7616B59038AD";
shapes = (
{
closed = 1;
nodes = (
(62,-63,l),
(62,-151,l),
(128,-151,ls),
(195,-151,o),
(262,-157,o),
(262,-32,cs),
(262,123,ls),
(262,179,o),
(279,255,o),
(342,256,c),
(342,344,l),
(279,346,o),
(262,422,o),
(262,478,cs),
(262,637,ls),
(262,764,o),
(193,756,o),
(128,756,cs),
(62,756,l),
(62,668,l),
(105,668,ls),
(147,668,o),
(158,652,o),
(158,565,cs),
(158,436,ls),
(158,357,o),
(198,320,o),
(224,302,c),
(199,286,o),
(158,247,o),
(158,167,cs),
(158,41,ls),
(158,-47,o),
(147,-63,o),
(105,-63,cs)
);
}
);
width = 376;
}
);
unicode = 125;
}
{
glyphname = asciitilde;
layers = (
{
layerId = UUID1;
shapes = (
{
closed = 1;
nodes = (
(389,422,o),
(446,501,o),
(428,606,c),
(343,606,l),
(346,567,o),
(344,522,o),
(313,522,c),
(294,522,o),
(275,539,o),
(253,558,c),
(225,582,o),
(193,609,o),
(153,609,c),
(59,609,o),
(11,518,o),
(22,424,c),
(107,424,l),
(103,460,o),
(111,503,o),
(144,503,c),
(162,503,o),
(179,490,o),
(197,475,c),
(227,451,o),
(261,422,o),
(317,422,c)
);
}
);
width = 451;
},
{
layerId = "4C85334C-E1D4-4EB0-A0B2-9D58DDEA71D9";
shapes = (
{
closed = 1;
nodes = (
(324,449,o),
(361,492,o),
(359,577,c),
(327,578,l),
(325,511,o),
(304,486,o),
(276,486,c),
(250,486,o),
(232,505,o),
(213,526,c),
(192,549,o),
(169,574,o),
(131,574,c),
(82,574,o),
(42,528,o),
(43,446,c),
(75,445,l),
(77,511,o),
(104,535,o),
(129,535,c),
(155,535,o),
(172,516,o),
(190,497,c),
(212,474,o),
(235,449,o),
(277,449,c)
);
}
);
width = 402;
},
{
layerId = "93649EC8-ADF5-4C20-AD08-3ED15854CD33";
shapes = (
{
closed = 1;
nodes = (
(304,457.333,o),
(336,489.5,o),
(338.167,567.833,c),
(322,569.667,l),
(318.333,494.333,o),
(292.333,475.167,o),
(265.167,475.167,c),
(236.667,475.167,o),
(218.667,495,o),
(201.333,516,c),
(182,539,o),
(162.333,563.167,o),
(124.333,563.167,c),
(88.667,563.167,o),
(51.167,530.5,o),
(48.833,452.667,c),
(65,450.833,l),
(68.667,526,o),
(102.333,545,o),
(124.833,545,c),
(152.5,545,o),
(169.5,524.333,o),
(187.5,503.667,c),
(207,480.667,o),
(227.5,457.333,o),
(264.5,457.333,c)
);
}
);
width = 387;
},
{
layerId = "3DCE0E54-12D6-4F05-956C-7616B59038AD";
shapes = (
{
closed = 1;
nodes = (
(362,433,o),
(410,497,o),
(399,594,c),
(336,594,l),
(337,543,o),
(327,507,o),
(297,507,c),
(276,507,o),
(257,525,o),
(236,545,c),
(211,568,o),
(183,594,o),
(144,594,c),
(69,594,o),
(24,522,o),
(31,433,c),
(94,433,l),
(92,481,o),
(108,516,o),
(138,516,c),
(159,516,o),
(176,501,o),
(194,484,c),
(221,461,o),
(250,433,o),
(300,433,c)
);
}
);
width = 430;
}
);
unicode = 126;
}
{
glyphname = exclamdown;
layers = (
{
layerId = UUID1;
shapes = (
{
closed = 1;
nodes = (
(36,352,l),
(161,352,l),
(161,-214,l),
(36,-214,l)
);
},
{
closed = 1;
nodes = (
(150,565,o),
(182,537,o),
(182,494,c),
(182,453,o),
(149,421,o),
(102,421,c),
(55,421,o),
(20,453,o),
(20,494,c),
(20,537,o),
(54,565,o),
(102,565,c)
);
}
);
width = 204;
},
{
layerId = "4C85334C-E1D4-4EB0-A0B2-9D58DDEA71D9";
shapes = (
{
closed = 1;
nodes = (
(78,368,l),
(121,368,l),
(121,-211,l),
(78,-211,l)
);
},
{
closed = 1;
nodes = (
(122,521,o),
(138,506,o),
(138,485,cs),
(138,466,o),
(122,450,o),
(101,450,cs),
(80,450,o),
(63,466,o),
(63,485,cs),
(63,506,o),
(80,521,o),
(101,521,cs)
);
}
);
width = 201;
},
{
layerId = "93649EC8-ADF5-4C20-AD08-3ED15854CD33";
shapes = (
{
closed = 1;
nodes = (
(90.5,373,l),
(109.333,373,l),
(109.333,-210.167,l),
(90.5,-210.167,l)
);
},
{
closed = 1;
nodes = (
(113.667,507.667,o),
(124.667,496.833,o),
(124.667,482.5,cs),
(124.667,469.333,o),
(113.667,458.333,o),
(101,458.333,cs),
(87.5,458.333,o),
(76.333,469.333,o),
(76.333,482.5,cs),
(76.333,496.833,o),
(87.5,507.667,o),
(101,507.667,cs)
);
}
);
width = 200;
},
{
layerId = "3DCE0E54-12D6-4F05-956C-7616B59038AD";
shapes = (
{
closed = 1;
nodes = (
(54,359,l),
(144,359,l),
(144,-213,l),
(54,-213,l)
);
},
{
closed = 1;
nodes = (
(138,547,o),
(164,524,o),
(164,490,c),
(164,458,o),
(138,433,o),
(102,433,c),
(66,433,o),
(38,458,o),
(38,490,c),
(38,524,o),
(65,547,o),
(102,547,c)
);
}
);
width = 203;
}
);
unicode = 161;
}
{
glyphname = cent;
layers = (
{
layerId = UUID1;
shapes = (
{
closed = 1;
nodes = (
(239,-68,l),
(323,-68,l),
(323,506,l),
(239,506,l)
);
},
{
ref = c;
}
);
width = 479;
},
{
layerId = "4C85334C-E1D4-4EB0-A0B2-9D58DDEA71D9";
shapes = (
{
closed = 1;
nodes = (
(235,-68,l),
(268,-68,l),
(268,456,l),
(235,456,l)
);
},
{
ref = c;
}
);
width = 433;
},
{
layerId = "93649EC8-ADF5-4C20-AD08-3ED15854CD33";
shapes = (
{
closed = 1;
nodes = (
(234.167,-68,l),
(251.333,-68,l),
(251.333,441,l),
(234.167,441,l)
);
},
{
alignment = -1;
ref = c;
}
);
width = 420;
},
{
layerId = "3DCE0E54-12D6-4F05-956C-7616B59038AD";
shapes = (
{
closed = 1;
nodes = (
(237,-68,l),
(300,-68,l),
(300,485,l),
(237,485,l)
);
},
{
alignment = -1;
ref = c;
}
);
width = 460;
}
);
metricLeft = c;
metricRight = c;
unicode = 162;
}
{
glyphname = sterling;
layers = (
{
layerId = UUID1;
shapes = (
{
closed = 1;
nodes = (
(107,418,l),
(107,278,l),
(462,278,l),
(462,418,l)
);
},
{
closed = 1;
nodes = (
(173,213,ls),
(173,144,o),
(159,140,o),
(120,140,cs),
(75,140,l),
(75,0,l),
(495,0,ls),
(589,0,o),
(637,53,o),
(637,132,cs),
(637,213,l),
(511,212,l),
(511,179,ls),
(511,152,o),
(496,140,o),
(467,140,cs),
(270,140,l),
(290,127,l),
(313,146,o),
(318,178,o),
(318,217,cs),
(318,237,l),
(318,504,ls),
(318,570,o),
(349,597,o),
(414,597,cs),
(475,597,o),
(502,570,o),
(516,555,c),
(621,627,l),
(585,696,o),
(510,737,o),
(411,737,cs),
(269,737,o),
(173,656,o),
(173,560,cs)
);
}
);
width = 672;
},
{
layerId = "4C85334C-E1D4-4EB0-A0B2-9D58DDEA71D9";
shapes = (
{
closed = 1;
nodes = (
(70,350,l),
(70,302,l),
(316,302,l),
(316,350,l)
);
},
{
closed = 1;
nodes = (
(135,177,ls),
(135,74,o),
(128,47,o),
(83,47,cs),
(38,47,l),
(38,0,l),
(401,0,ls),
(515,0,o),
(525,46,o),
(525,98,cs),
(525,147,l),
(482,147,l),
(482,96,ls),
(482,59,o),
(454,47,o),
(388,47,cs),
(152,47,l),
(161,47,l),
(181,66,o),
(183,120,o),
(183,138,cs),
(183,161,l),
(183,504,ls),
(183,566,o),
(215,614,o),
(315,614,cs),
(398,614,o),
(424,587,o),
(450,543,c),
(485,567,l),
(456,624,o),
(406,661,o),
(315,661,cs),
(207,661,o),
(135,610,o),
(135,516,cs)
);
}
);
width = 593;
},
{
layerId = "93649EC8-ADF5-4C20-AD08-3ED15854CD33";
shapes = (
{
closed = 1;
nodes = (
(62.5,329.167,l),
(62.5,309.5,l),
(276.833,309.5,l),
(276.833,329.167,l)
);
},
{
closed = 1;
nodes = (
(127.5,166.167,ls),
(127.5,53.167,o),
(123,19.5,o),
(75.5,19.5,cs),
(31.333,19.5,l),
(31.333,0,l),
(376.833,0,ls),
(497.5,0,o),
(495.833,43.5,o),
(495.833,88,cs),
(495.833,127,l),
(477,127,l),
(477,71,ls),
(477,30.667,o),
(445.667,19.5,o),
(368,19.5,cs),
(117.833,19.5,l),
(124.333,19.5,l),
(143.5,37.667,o),
(147.167,79.167,o),
(147.167,113.833,cs),
(147.167,151,l),
(147.167,504,ls),
(147.167,565.167,o),
(179.167,619,o),
(290,619,cs),
(369.667,619,o),
(401.5,599.5,o),
(434.167,539.667,c),
(448.333,548.667,l),
(421.833,602.333,o),
(379.333,638.5,o),
(290,638.5,cs),
(192.833,638.5,o),
(127.5,595.833,o),
(127.5,502.667,cs)
);
}
);
width = 574;
},
{
layerId = "3DCE0E54-12D6-4F05-956C-7616B59038AD";
shapes = (
{
closed = 1;
nodes = (
(91,389,l),
(91,288,l),
(401,288,l),
(401,389,l)
);
},
{
closed = 1;
nodes = (
(157,198,ls),
(157,115,o),
(146,101,o),
(104,101,cs),
(59,101,l),
(59,0,l),
(456,0,ls),
(558,0,o),
(590,50,o),
(590,118,cs),
(590,185,l),
(499,185,l),
(499,144,ls),
(499,113,o),
(478,101,o),
(434,101,cs),
(220,101,l),
(236,93,l),
(258,112,o),
(261,154,o),
(261,184,cs),
(261,205,l),
(261,504,ls),
(261,568,o),
(293,604,o),
(372,604,cs),
(443,604,o),
(469,577,o),
(488,550,c),
(564,602,l),
(531,666,o),
(466,705,o),
(371,705,cs),
(243,705,o),
(157,637,o),
(157,542,cs)
);
}
);
width = 639;
}
);
unicode = 163;
}
{
glyphname = currency;
layers = (
{
layerId = UUID1;
shapes = (
{
closed = 1;
nodes = (
(415,463,l),
(356,522,l),
(332,498,l),
(332,498,l),
(308,511,o),
(281,519,o),
(252,519,cs),
(223,519,o),
(198,510,o),
(173,498,c),
(149,522,l),
(90,463,l),
(98,455,o),
(105,447,o),
(113,439,c),
(100,416,o),
(92,390,o),
(92,361,cs),
(92,361,ls),
(92,331,o),
(100,303,o),
(114,279,c),
(90,255,l),
(149,196,l),
(174,221,l),
(174,221,l),
(197,209,o),
(223,202,o),
(252,202,cs),
(281,202,o),
(308,209,o),
(331,222,c),
(340,214,o),
(348,205,o),
(357,197,c),
(416,256,l),
(392,280,l),
(407,304,o),
(415,331,o),
(415,361,cs),
(415,389,o),
(407,417,o),
(393,441,c)
);
},
{
closed = 1;
nodes = (
(176,360,ls),
(176,403,o),
(211,438,o),
(253,438,cs),
(296,438,o),
(331,403,o),
(331,360,cs),
(331,318,o),
(296,283,o),
(253,283,cs),
(211,283,o),
(176,318,o),
(176,360,cs)
);
}
);
width = 506;
},
{
layerId = "4C85334C-E1D4-4EB0-A0B2-9D58DDEA71D9";
shapes = (
{
closed = 1;
nodes = (
(393,479,l),
(370,502,l),
(336,468,l),
(336,468,l),
(312,488,o),
(282,501,o),
(248,501,cs),
(215,501,o),
(185,488,o),
(161,469,c),
(127,503,l),
(104,480,l),
(116,468,o),
(126,457,o),
(138,446,c),
(120,422,o),
(109,393,o),
(109,361,cs),
(109,361,ls),
(109,327,o),
(121,296,o),
(140,272,c),
(104,236,l),
(127,213,l),
(164,250,l),
(164,250,l),
(187,232,o),
(216,221,o),
(248,221,cs),
(280,221,o),
(310,232,o),
(333,251,c),
(346,238,o),
(358,226,o),
(370,214,c),
(393,237,l),
(357,273,l),
(376,297,o),
(389,327,o),
(389,361,cs),
(389,393,o),
(378,422,o),
(359,445,c)
);
},
{
closed = 1;
nodes = (
(141,361,ls),
(141,421,o),
(190,469,o),
(249,469,cs),
(308,469,o),
(356,421,o),
(356,361,cs),
(356,301,o),
(308,253,o),
(249,253,cs),
(190,253,o),
(141,301,o),
(141,361,cs)
);
}
);
width = 502;
},
{
layerId = "93649EC8-ADF5-4C20-AD08-3ED15854CD33";
shapes = (
{
closed = 1;
nodes = (
(386.333,484,l),
(374.167,496.167,l),
(336.833,458.833,l),
(336.833,458.833,l),
(313.667,481.333,o),
(282,495.167,o),
(247.167,495.167,cs),
(212.5,495.167,o),
(180.833,481.333,o),
(157.667,459.833,c),
(120.333,497.167,l),
(108.167,485,l),
(121,472.167,o),
(132.667,460.333,o),
(145.5,447.667,c),
(125.833,423.667,o),
(114,393.833,o),
(114,361,cs),
(114,361,ls),
(114,326.167,o),
(126.833,294.333,o),
(148.333,270.333,c),
(108.167,230.167,l),
(120.333,218,l),
(160.667,258.333,l),
(160.667,258.333,l),
(183.667,238.667,o),
(214.333,226.833,o),
(247.167,226.833,cs),
(280,226.833,o),
(310.833,238.667,o),
(333.833,259.333,c),
(347.667,245.5,o),
(360.5,232.667,o),
(374.167,219,c),
(386.333,231.167,l),
(346.167,271.333,l),
(366.833,295.333,o),
(380.667,326.167,o),
(380.667,361,cs),
(380.667,393.833,o),
(368.833,423.667,o),
(349,446.667,c)
);
},
{
closed = 1;
nodes = (
(131,361,ls),
(131,426,o),
(183.333,478.167,o),
(247.333,478.167,cs),
(311.333,478.167,o),
(363.5,426,o),
(363.5,361,cs),
(363.5,296,o),
(311.333,243.833,o),
(247.333,243.833,cs),
(183.333,243.833,o),
(131,296,o),
(131,361,cs)
);
}
);
width = 500;
},
{
layerId = "3DCE0E54-12D6-4F05-956C-7616B59038AD";
shapes = (
{
closed = 1;
nodes = (
(406,470,l),
(362,514,l),
(334,485,l),
(334,485,l),
(310,501,o),
(281,511,o),
(250,511,cs),
(220,511,o),
(193,501,o),
(168,486,c),
(140,514,l),
(96,470,l),
(106,460,o),
(114,451,o),
(124,442,c),
(108,419,o),
(99,391,o),
(99,361,cs),
(99,361,ls),
(99,329,o),
(109,300,o),
(125,276,c),
(96,247,l),
(140,203,l),
(170,233,l),
(170,233,l),
(193,219,o),
(220,210,o),
(250,210,cs),
(281,210,o),
(309,219,o),
(332,234,c),
(343,224,o),
(352,214,o),
(362,204,c),
(406,248,l),
(377,277,l),
(394,301,o),
(404,329,o),
(404,361,cs),
(404,391,o),
(395,419,o),
(379,443,c)
);
},
{
closed = 1;
nodes = (
(161,360,ls),
(161,411,o),
(202,451,o),
(251,451,cs),
(301,451,o),
(342,411,o),
(342,360,cs),
(342,311,o),
(301,270,o),
(251,270,cs),
(202,270,o),
(161,311,o),
(161,360,cs)
);
}
);
width = 504;
}
);
unicode = 164;
}
{
glyphname = yen;
layers = (
{
layerId = UUID1;
shapes = (
{
closed = 1;
nodes = (
(174,202,l),
(563,202,l),
(563,315,l),
(174,315,l)
);
},
{
closed = 1;
nodes = (
(175,64,l),
(563,64,l),
(563,177,l),
(175,177,l)
);
},
{
closed = 1;
nodes = (
(286,0,l),
(431,0,l),
(431,309,l),
(707,736,l),
(528,736,l),
(341,431,l),
(384,434,l),
(194,736,l),
(15,736,l),
(286,309,l)
);
}
);
width = 722;
},
{
layerId = "4C85334C-E1D4-4EB0-A0B2-9D58DDEA71D9";
shapes = (
{
closed = 1;
nodes = (
(156,247,l),
(503,247,l),
(503,287,l),
(156,287,l)
);
},
{
closed = 1;
nodes = (
(157,90,l),
(502,90,l),
(502,131,l),
(157,131,l)
);
},
{
closed = 1;
nodes = (
(306,0,l),
(355,0,l),
(355,297,l),
(620,710,l),
(561,710,l),
(323,336,l),
(340,338,l),
(101,710,l),
(41,710,l),
(306,297,l)
);
}
);
width = 661;
},
{
layerId = "93649EC8-ADF5-4C20-AD08-3ED15854CD33";
shapes = (
{
closed = 1;
nodes = (
(151,260.333,l),
(484.667,260.333,l),
(484.667,278.667,l),
(151,278.667,l)
);
},
{
closed = 1;
nodes = (
(151.167,98.333,l),
(483.667,98.333,l),
(483.667,116.833,l),
(151.167,116.833,l)
);
},
{
closed = 1;
nodes = (
(311.833,0,l),
(331.667,0,l),
(331.667,292.833,l),
(594.167,701.667,l),
(571,701.667,l),
(318,307.667,l),
(326.667,308.833,l),
(72.667,701.667,l),
(48.5,701.667,l),
(311.833,292.833,l)
);
}
);
width = 643;
},
{
layerId = "3DCE0E54-12D6-4F05-956C-7616B59038AD";
shapes = (
{
closed = 1;
nodes = (
(166,221,l),
(538,221,l),
(538,303,l),
(166,303,l)
);
},
{
closed = 1;
nodes = (
(167,75,l),
(537,75,l),
(537,158,l),
(167,158,l)
);
},
{
closed = 1;
nodes = (
(294,0,l),
(399,0,l),
(399,304,l),
(670,725,l),
(542,725,l),
(333,391,l),
(366,394,l),
(155,725,l),
(26,725,l),
(294,304,l)
);
}
);
width = 696;
}
);
metricLeft = Y;
metricRight = Y;
unicode = 165;
}
{
glyphname = brokenbar;
layers = (
{
layerId = UUID1;
shapes = (
{
closed = 1;
nodes = (
(51,357,l),
(177,357,l),
(177,714,l),
(51,714,l)
);
},
{
closed = 1;
nodes = (
(51,-238,l),
(177,-238,l),
(177,119,l),
(51,119,l)
);
}
);
width = 219;
},
{
layerId = "4C85334C-E1D4-4EB0-A0B2-9D58DDEA71D9";
shapes = (
{
closed = 1;
nodes = (
(89,352,l),
(132,352,l),
(132,704,l),
(89,704,l)
);
},
{
closed = 1;
nodes = (
(89,-234,l),
(132,-234,l),
(132,118,l),
(89,118,l)
);
}
);
width = 216;
},
{
layerId = "93649EC8-ADF5-4C20-AD08-3ED15854CD33";
shapes = (
{
closed = 1;
nodes = (
(99.833,350.333,l),
(118.667,350.333,l),
(118.667,700.667,l),
(99.833,700.667,l)
);
},
{
closed = 1;
nodes = (
(99.833,-233.167,l),
(118.667,-233.167,l),
(118.667,117.167,l),
(99.833,117.167,l)
);
}
);
width = 215;
},
{
layerId = "3DCE0E54-12D6-4F05-956C-7616B59038AD";
shapes = (
{
closed = 1;
nodes = (
(67,355,l),
(158,355,l),
(158,710,l),
(67,710,l)
);
},
{
closed = 1;
nodes = (
(67,-236,l),
(158,-236,l),
(158,119,l),
(67,119,l)
);
}
);
width = 218;
}
);
unicode = 166;
}
{
glyphname = section;
layers = (
{
layerId = UUID1;
shapes = (
{
closed = 1;
nodes = (
(482,160,o),
(529,231,o),
(529,306,cs),
(529,423,o),
(428,458,o),
(347,480,c),
(286,496,o),
(231,515,o),
(231,557,cs),
(231,586,o),
(253,610,o),
(315,610,c),
(353,608,o),
(390,596,o),
(443,551,c),
(506,658,l),
(454,704,o),
(388,735,o),
(300,736,c),
(136,736,o),
(79,630,o),
(79,536,cs),
(79,468,o),
(108,397,o),
(225,360,c),
(236,412,l),
(155,418,o),
(61,375,o),
(61,261,cs),
(61,156,o),
(166,108,o),
(249,88,c),
(306,74,o),
(358,55,o),
(358,12,cs),
(358,-31,o),
(324,-56,o),
(275,-56,cs),
(231,-56,o),
(186,-39,o),
(122,11,c),
(50,-109,l),
(121,-169,o),
(208,-185,o),
(283,-185,cs),
(417,-185,o),
(510,-86,o),
(510,34,cs),
(510,136,o),
(429,191,o),
(329,192,c),
(384,139,l)
);
},
{
closed = 1;
nodes = (
(385,240,o),
(336,216,o),
(291,213,c),
(248,224,o),
(200,255,o),
(203,298,c),
(205,326,o),
(241,351,o),
(293,347,c),
(332,345,o),
(390,314,o),
(387,279,c)
);
}
);
width = 579;
},
{
layerId = "4C85334C-E1D4-4EB0-A0B2-9D58DDEA71D9";
shapes = (
{
closed = 1;
nodes = (
(452,153,o),
(514,216,o),
(514,296,cs),
(514,405,o),
(415,437,o),
(322,461,cs),
(226,485,o),
(155,508,o),
(155,581,cs),
(155,634,o),
(211,685,o),
(305,685,cs),
(361,684,o),
(419,667,o),
(460,643,c),
(481,679,l),
(432,708,o),
(359,727,o),
(300,727,cs),
(180,727,o),
(105,654,o),
(105,578,cs),
(105,496,o),
(167,453,o),
(253,428,c),
(258,444,l),
(162,444,o),
(76,384,o),
(76,290,cs),
(76,183,o),
(177,152,o),
(270,126,c),
(354,106,o),
(434,83,o),
(434,7,cs),
(434,-69,o),
(350,-114,o),
(265,-114,cs),
(193,-114,o),
(121,-79,o),
(74,-45,c),
(50,-85,l),
(86,-112,o),
(165,-158,o),
(269,-158,cs),
(392,-158,o),
(484,-83,o),
(484,10,cs),
(484,96,o),
(419,136,o),
(342,152,c),
(357,135,l)
);
},
{
closed = 1;
nodes = (
(465,211,o),
(381,167,o),
(316,162,c),
(202,192,o),
(124,215,o),
(124,299,cs),
(125,368,o),
(190,420,o),
(294,419,c),
(383,397,o),
(466,366,o),
(466,289,cs)
);
}
);
width = 564;
},
{
layerId = "93649EC8-ADF5-4C20-AD08-3ED15854CD33";
shapes = (
{
closed = 1;
nodes = (
(442.833,150.5,o),
(509.833,211,o),
(509.833,292.667,cs),
(509.833,399.167,o),
(410.833,431.167,o),
(314.5,455.167,cs),
(208.5,481.667,o),
(132.5,505.5,o),
(132.5,588.5,cs),
(132.5,648.167,o),
(198.5,707.5,o),
(301.667,707.5,cs),
(363.5,707.333,o),
(428.167,687.833,o),
(465,670.5,c),
(473.5,685.667,l),
(425.333,708.833,o),
(349.833,724.5,o),
(300,724.5,cs),
(193.333,724.5,o),
(112.5,660.667,o),
(112.5,590.5,cs),
(112.5,504.333,o),
(184.5,469.667,o),
(261.333,448,c),
(264.667,453.167,l),
(164.5,452.333,o),
(80.167,387.254,o),
(80.167,298.333,cs),
(80.167,191.333,o),
(180.333,165.333,o),
(275.833,137.667,c),
(368.167,115.167,o),
(456.5,91.333,o),
(456.5,5.333,cs),
(456.5,-80.667,o),
(358.333,-131.5,o),
(261.667,-131.5,cs),
(181.333,-131.5,o),
(101,-91.5,o),
(59.833,-61.667,c),
(50,-78.333,l),
(75.167,-94.5,o),
(151.667,-149.667,o),
(264.833,-149.667,cs),
(384.5,-149.667,o),
(476.5,-82.167,o),
(476.5,3.333,cs),
(476.5,84.333,o),
(415.667,119.333,o),
(345.333,139.5,c),
(348.667,133.333,l)
);
},
{
closed = 1;
nodes = (
(489.167,202.393,o),
(394.333,152,o),
(323.5,146.167,c),
(188.667,182,o),
(100.667,203.333,o),
(100.667,299.833,cs),
(100.833,380.5,o),
(175,440.833,o),
(294,440.667,c),
(398,412.833,o),
(489.333,381.833,o),
(489.333,291.5,cs)
);
}
);
width = 560;
},
{
layerId = "3DCE0E54-12D6-4F05-956C-7616B59038AD";
shapes = (
{
closed = 1;
nodes = (
(469,157,o),
(523,225,o),
(523,302,cs),
(523,415,o),
(423,449,o),
(337,472,c),
(261,491,o),
(199,512,o),
(199,567,cs),
(199,606,o),
(235,642,o),
(311,642,c),
(356,640,o),
(402,626,o),
(450,590,c),
(496,667,l),
(445,706,o),
(376,732,o),
(300,732,c),
(154,732,o),
(90,640,o),
(90,554,cs),
(90,480,o),
(133,421,o),
(237,389,c),
(245,425,l),
(158,429,o),
(67,379,o),
(67,273,cs),
(67,167,o),
(171,126,o),
(258,104,c),
(326,87,o),
(390,67,o),
(390,10,cs),
(390,-47,o),
(335,-80,o),
(271,-80,cs),
(215,-80,o),
(159,-56,o),
(102,-13,c),
(50,-99,l),
(106,-145,o),
(190,-174,o),
(277,-174,cs),
(407,-174,o),
(499,-85,o),
(499,24,cs),
(499,119,o),
(425,168,o),
(334,175,c),
(373,137,l)
);
},
{
closed = 1;
nodes = (
(419,228,o),
(355,195,o),
(302,192,c),
(229,211,o),
(168,238,o),
(170,298,c),
(171,344,o),
(220,380,o),
(293,377,c),
(353,367,o),
(422,336,o),
(420,283,c)
);
}
);
width = 573;
}
);
unicode = 167;
}
{
glyphname = dieresis;
layers = (
{
layerId = UUID1;
shapes = (
{
closed = 1;
nodes = (
(50,542,ls),
(50,499,o),
(86,470,o),
(122,470,cs),
(155,470,o),
(192,499,o),
(192,542,cs),
(192,584,o),
(155,615,o),
(122,615,cs),
(86,615,o),
(50,584,o),
(50,542,cs)
);
},
{
closed = 1;
nodes = (
(250,542,ls),
(250,499,o),
(286,470,o),
(322,470,cs),
(355,470,o),
(392,499,o),
(392,542,cs),
(392,584,o),
(355,615,o),
(322,615,cs),
(286,615,o),
(250,584,o),
(250,542,cs)
);
}
);
width = 442;
},
{
layerId = "4C85334C-E1D4-4EB0-A0B2-9D58DDEA71D9";
shapes = (
{
closed = 1;
nodes = (
(74,511,ls),
(74,492,o),
(90,477,o),
(107,477,cs),
(124,477,o),
(141,492,o),
(141,511,cs),
(141,530,o),
(124,545,o),
(107,545,cs),
(90,545,o),
(74,530,o),
(74,511,cs)
);
},
{
closed = 1;
nodes = (
(248,511,ls),
(248,492,o),
(264,477,o),
(282,477,cs),
(298,477,o),
(315,492,o),
(315,511,cs),
(315,530,o),
(298,545,o),
(282,545,cs),
(264,545,o),
(248,530,o),
(248,511,cs)
);
}
);
width = 389;
},
{
layerId = "93649EC8-ADF5-4C20-AD08-3ED15854CD33";
shapes = (
{
closed = 1;
nodes = (
(80.667,501.833,ls),
(80.667,489.5,o),
(90.833,479.5,o),
(102.833,479.5,cs),
(114.833,479.5,o),
(125.167,489.5,o),
(125.167,501.833,cs),
(125.167,514.167,o),
(114.833,524.167,o),
(102.833,524.167,cs),
(90.833,524.167,o),
(80.667,514.167,o),
(80.667,501.833,cs)
);
},
{
closed = 1;
nodes = (
(247.167,501.833,ls),
(247.167,489.5,o),
(257.333,479.5,o),
(269.5,479.5,cs),
(281.333,479.5,o),
(291.667,489.5,o),
(291.667,501.833,cs),
(291.667,514.167,o),
(281.333,524.167,o),
(269.5,524.167,cs),
(257.333,524.167,o),
(247.167,514.167,o),
(247.167,501.833,cs)
);
}
);
width = 373;
},
{
layerId = "3DCE0E54-12D6-4F05-956C-7616B59038AD";
shapes = (
{
closed = 1;
nodes = (
(60,529,ls),
(60,496,o),
(88,473,o),
(116,473,cs),
(142,473,o),
(171,496,o),
(171,529,cs),
(171,561,o),
(142,586,o),
(116,586,cs),
(88,586,o),
(60,561,o),
(60,529,cs)
);
},
{
closed = 1;
nodes = (
(249,529,ls),
(249,496,o),
(277,473,o),
(305,473,cs),
(331,473,o),
(360,496,o),
(360,529,cs),
(360,561,o),
(331,586,o),
(305,586,cs),
(277,586,o),
(249,561,o),
(249,529,cs)
);
}
);
width = 420;
}
);
unicode = 168;
}
{
glyphname = copyright;
layers = (
{
layerId = UUID1;
shapes = (
{
closed = 1;
nodes = (
(548,277,l),
(525,248,o),
(492,235,o),
(463,235,c),
(415,235,o),
(389,273,o),
(389,317,c),
(389,358,o),
(414,399,o),
(461,399,c),
(486,399,o),
(511,394,o),
(532,372,c),
(588,479,l),
(557,509,o),
(493,521,o),
(450,521,c),
(322,521,o),
(244,434,o),
(244,312,c),
(244,203,o),
(330,111,o),
(439,108,c),
(518,107,o),
(579,146,o),
(612,182,c)
);
},
{
closed = 1;
nodes = (
(653,-71,o),
(830,94,o),
(830,312,c),
(830,533,o),
(653,696,o),
(440,696,c),
(227,696,o),
(50,533,o),
(50,312,c),
(50,94,o),
(227,-71,o),
(440,-71,c)
);
},
{
closed = 1;
nodes = (
(287,41,o),
(170,156,o),
(170,312,c),
(170,469,o),
(287,584,o),
(440,584,c),
(593,584,o),
(709,469,o),
(709,312,c),
(709,156,o),
(593,41,o),
(440,41,c)
);
}
);
width = 880;
},
{
layerId = "4C85334C-E1D4-4EB0-A0B2-9D58DDEA71D9";
shapes = (
{
closed = 1;
nodes = (
(499,255,l),
(476,238,o),
(449,228,o),
(420,228,cs),
(346,228,o),
(293,286,o),
(293,358,cs),
(293,434,o),
(353,491,o),
(421,491,cs),
(449,491,o),
(474,485,o),
(496,469,c),
(515,505,l),
(489,524,o),
(451,533,o),
(418,533,cs),
(321,533,o),
(245,457,o),
(245,358,cs),
(245,265,o),
(315,186,o),
(414,185,cs),
(458,185,o),
(495,202,o),
(521,222,c)
);
},
{
closed = 1;
nodes = (
(579,68,o),
(698,191,o),
(698,356,cs),
(698,523,o),
(569,645,o),
(407,645,cs),
(245,645,o),
(116,523,o),
(116,356,cs),
(116,191,o),
(245,68,o),
(407,68,cs)
);
},
{
closed = 1;
nodes = (
(252,108,o),
(158,213,o),
(158,355,cs),
(158,500,o),
(269,605,o),
(406,605,cs),
(544,605,o),
(655,500,o),
(655,355,cs),
(655,214,o),
(544,108,o),
(406,108,cs)
);
}
);
width = 814;
},
{
layerId = "93649EC8-ADF5-4C20-AD08-3ED15854CD33";
shapes = (
{
closed = 1;
nodes = (
(484.833,248.333,l),
(461.833,234.667,o),
(436.5,226.333,o),
(407.5,226.333,cs),
(325.167,226.333,o),
(264.667,290.167,o),
(264.667,370.5,cs),
(264.667,456.5,o),
(334.667,518.5,o),
(408.5,518.5,cs),
(437.333,518.5,o),
(462.333,512.5,o),
(485.167,498.167,c),
(493.333,513.333,l),
(469,528.167,o),
(438.5,536.333,o),
(408,536.333,cs),
(321,536.333,o),
(245,463.667,o),
(245,371.333,cs),
(245,283.333,o),
(310,208.5,o),
(406.5,208.333,cs),
(440.5,208.333,o),
(470,218.667,o),
(493.5,233.667,c)
);
},
{
closed = 1;
nodes = (
(556.5,109.667,o),
(658,220.167,o),
(658,369.333,cs),
(658,519.667,o),
(544,630,o),
(397,630,cs),
(250,630,o),
(136,519.667,o),
(136,369.333,cs),
(136,220.167,o),
(250,109.667,o),
(397,109.667,cs)
);
},
{
closed = 1;
nodes = (
(242,128,o),
(154.667,229.667,o),
(154.667,368.333,cs),
(154.667,509.167,o),
(264,611.667,o),
(396,611.667,cs),
(529.833,611.667,o),
(639.167,509.167,o),
(639.167,368.333,cs),
(639.167,231.5,o),
(529.833,128,o),
(396,128,cs)
);
}
);
width = 794;
},
{
layerId = "3DCE0E54-12D6-4F05-956C-7616B59038AD";
shapes = (
{
closed = 1;
nodes = (
(527,268,l),
(504,244,o),
(474,232,o),
(445,232,c),
(386,232,o),
(349,278,o),
(349,334,c),
(349,390,o),
(388,438,o),
(444,438,c),
(470,438,o),
(495,432,o),
(517,413,c),
(557,490,l),
(528,515,o),
(475,526,o),
(437,526,c),
(322,526,o),
(244,444,o),
(244,331,c),
(244,229,o),
(324,143,o),
(429,140,c),
(493,140,o),
(544,170,o),
(574,199,c)
);
},
{
closed = 1;
nodes = (
(622,-13,o),
(775,135,o),
(775,330,c),
(775,529,o),
(618,675,o),
(426,675,c),
(235,675,o),
(78,529,o),
(78,330,c),
(78,135,o),
(235,-13,o),
(426,-13,c)
);
},
{
closed = 1;
nodes = (
(272,69,o),
(165,180,o),
(165,330,c),
(165,482,o),
(279,593,o),
(426,593,c),
(572,593,o),
(686,482,o),
(686,330,c),
(686,180,o),
(572,69,o),
(426,69,c)
);
}
);
width = 852;
}
);
unicode = 169;
}
